<?xml version="1.0" encoding="UTF-8" standalone="no"?>
<!DOCTYPE svg PUBLIC "-//W3C//DTD SVG 1.1//EN" "http://www.w3.org/Graphics/SVG/1.1/DTD/svg11.dtd">
<svg width="100%" height="100%" viewBox="0 0 3202 2242" version="1.1" xmlns="http://www.w3.org/2000/svg" xmlns:xlink="http://www.w3.org/1999/xlink" xml:space="preserve" xmlns:serif="http://www.serif.com/" style="fill-rule:evenodd;clip-rule:evenodd;stroke-linecap:round;stroke-linejoin:round;stroke-miterlimit:1.5;">
    <g transform="matrix(1,0,0,1,-2584.13,6411.29)">
        <g transform="matrix(0.998306,0,0,1.05669,4970.28,-10470.7)">
            <rect x="-786.655" y="5053.75" width="320.543" height="302.834" style="fill:rgb(237,237,237);stroke:rgb(237,237,237);stroke-width:1.62px;"/>
        </g>
        <g transform="matrix(0.998306,0,0,1.05669,5930.28,-10470.7)">
            <rect x="-786.655" y="5053.75" width="320.543" height="302.834" style="fill:rgb(237,237,237);stroke:rgb(237,237,237);stroke-width:1.62px;"/>
        </g>
        <g transform="matrix(0.998306,0,0,1.05669,5610.28,-10790.7)">
            <rect x="-786.655" y="5053.75" width="320.543" height="302.834" style="fill:rgb(237,237,237);stroke:rgb(237,237,237);stroke-width:1.62px;"/>
        </g>
        <g transform="matrix(0.998306,0,0,1.05669,6250.28,-10790.7)">
            <rect x="-786.655" y="5053.75" width="320.543" height="302.834" style="fill:rgb(237,237,237);stroke:rgb(237,237,237);stroke-width:1.62px;"/>
        </g>
        <g transform="matrix(0.998306,0,0,1.05669,4330.28,-10470.7)">
            <rect x="-786.655" y="5053.75" width="320.543" height="302.834" style="fill:rgb(237,237,237);stroke:rgb(237,237,237);stroke-width:1.62px;"/>
        </g>
        <g transform="matrix(0.998306,0,0,1.05669,4650.28,-10790.7)">
            <rect x="-786.655" y="5053.75" width="320.543" height="302.834" style="fill:rgb(237,237,237);stroke:rgb(237,237,237);stroke-width:1.62px;"/>
        </g>
        <g transform="matrix(0.998306,0,0,1.05669,4010.28,-10470.7)">
            <rect x="-786.655" y="5053.75" width="320.543" height="302.834" style="fill:rgb(237,237,237);stroke:rgb(237,237,237);stroke-width:1.62px;"/>
        </g>
        <g transform="matrix(0.998306,0,0,1.05669,3370.28,-10790.7)">
            <rect x="-786.655" y="5053.75" width="320.543" height="302.834" style="fill:rgb(237,237,237);stroke:rgb(237,237,237);stroke-width:1.62px;"/>
        </g>
        <g transform="matrix(0.998306,0,0,1.05669,6250.28,-11110.7)">
            <rect x="-786.655" y="5053.75" width="320.543" height="302.834" style="fill:rgb(237,237,237);stroke:rgb(237,237,237);stroke-width:1.62px;"/>
        </g>
        <g transform="matrix(0.998306,0,0,1.05669,3370.28,-11110.7)">
            <rect x="-786.655" y="5053.75" width="320.543" height="302.834" style="fill:rgb(237,237,237);stroke:rgb(237,237,237);stroke-width:1.62px;"/>
        </g>
        <g transform="matrix(0.998306,0,0,1.05669,4970.28,-10790.7)">
            <rect x="-786.655" y="5053.75" width="320.543" height="302.834" style="fill:rgb(237,237,237);stroke:rgb(237,237,237);stroke-width:1.62px;"/>
        </g>
        <g transform="matrix(0.998306,0,0,1.05669,5290.28,-10470.7)">
            <rect x="-786.655" y="5053.75" width="320.543" height="302.834" style="fill:rgb(237,237,237);stroke:rgb(237,237,237);stroke-width:1.62px;"/>
        </g>
        <g transform="matrix(0.998306,0,0,1.05669,5290.28,-11110.7)">
            <rect x="-786.655" y="5053.75" width="320.543" height="302.834" style="fill:rgb(237,237,237);stroke:rgb(237,237,237);stroke-width:1.62px;"/>
        </g>
        <g transform="matrix(0.998306,0,0,1.05669,5610.28,-11110.7)">
            <rect x="-786.655" y="5053.75" width="320.543" height="302.834" style="fill:rgb(237,237,237);stroke:rgb(237,237,237);stroke-width:1.62px;"/>
        </g>
        <g transform="matrix(0.998306,0,0,1.05669,5930.28,-10790.7)">
            <rect x="-786.655" y="5053.75" width="320.543" height="302.834" style="fill:rgb(237,237,237);stroke:rgb(237,237,237);stroke-width:1.62px;"/>
        </g>
        <g transform="matrix(0.998306,0,0,1.05669,4010.28,-10790.7)">
            <rect x="-786.655" y="5053.75" width="320.543" height="302.834" style="fill:rgb(237,237,237);stroke:rgb(237,237,237);stroke-width:1.62px;"/>
        </g>
        <g transform="matrix(0.998306,0,0,1.05669,4650.28,-11110.7)">
            <rect x="-786.655" y="5053.75" width="320.543" height="302.834" style="fill:rgb(237,237,237);stroke:rgb(237,237,237);stroke-width:1.62px;"/>
        </g>
        <g transform="matrix(0.998306,0,0,1.05669,4970.28,-11110.7)">
            <rect x="-786.655" y="5053.75" width="320.543" height="302.834" style="fill:rgb(237,237,237);stroke:rgb(237,237,237);stroke-width:1.62px;"/>
        </g>
        <g transform="matrix(0.998306,0,0,1.05669,4330.28,-11110.7)">
            <rect x="-786.655" y="5053.75" width="320.543" height="302.834" style="fill:rgb(237,237,237);stroke:rgb(237,237,237);stroke-width:1.62px;"/>
        </g>
        <g transform="matrix(0.998306,0,0,1.05669,4010.28,-11110.7)">
            <rect x="-786.655" y="5053.75" width="320.543" height="302.834" style="fill:rgb(237,237,237);stroke:rgb(237,237,237);stroke-width:1.62px;"/>
        </g>
        <g transform="matrix(0.998306,0,0,1.05669,4010.28,-11750.7)">
            <rect x="-786.655" y="5053.75" width="320.543" height="302.834" style="fill:rgb(237,237,237);stroke:rgb(237,237,237);stroke-width:1.62px;"/>
        </g>
        <g transform="matrix(0.998306,0,0,1.05669,3690.28,-10470.7)">
            <rect x="-786.655" y="5053.75" width="320.543" height="302.834" style="fill:rgb(237,237,237);stroke:rgb(237,237,237);stroke-width:1.62px;"/>
        </g>
        <g transform="matrix(0.998306,0,0,1.05669,3690.28,-9830.68)">
            <rect x="-786.655" y="5053.75" width="320.543" height="302.834" style="fill:rgb(237,237,237);stroke:rgb(237,237,237);stroke-width:1.62px;"/>
        </g>
        <g transform="matrix(0.998306,0,0,1.05669,4010.28,-10150.7)">
            <rect x="-786.655" y="5053.75" width="320.543" height="302.834" style="fill:rgb(217,217,217);stroke:rgb(217,217,217);stroke-width:1.62px;"/>
        </g>
        <g transform="matrix(0.998306,0,0,1.05669,4330.28,-11430.7)">
            <rect x="-786.655" y="5053.75" width="320.543" height="302.834" style="fill:rgb(217,217,217);stroke:rgb(217,217,217);stroke-width:1.62px;"/>
        </g>
        <g transform="matrix(0.998306,0,0,1.05669,5610.28,-10470.7)">
            <rect x="-786.655" y="5053.75" width="320.543" height="302.834" style="fill:rgb(217,217,217);stroke:rgb(217,217,217);stroke-width:1.62px;"/>
        </g>
        <g transform="matrix(0.998306,0,0,1.05669,5610.28,-10150.7)">
            <rect x="-786.655" y="5053.75" width="320.543" height="302.834" style="fill:rgb(217,217,217);stroke:rgb(217,217,217);stroke-width:1.62px;"/>
        </g>
        <g transform="matrix(0.998306,0,0,1.05669,5930.28,-9830.68)">
            <rect x="-786.655" y="5053.75" width="320.543" height="302.834" style="fill:rgb(217,217,217);stroke:rgb(217,217,217);stroke-width:1.62px;"/>
        </g>
        <g transform="matrix(0.998306,0,0,1.05669,4650.28,-10470.7)">
            <rect x="-786.655" y="5053.75" width="320.543" height="302.834" style="fill:rgb(217,217,217);stroke:rgb(217,217,217);stroke-width:1.62px;"/>
        </g>
        <g transform="matrix(0.998306,0,0,1.05669,5290.28,-11430.7)">
            <rect x="-786.655" y="5053.75" width="320.543" height="302.834" style="fill:rgb(217,217,217);stroke:rgb(217,217,217);stroke-width:1.62px;"/>
        </g>
        <g transform="matrix(0.998306,0,0,1.05669,5610.28,-10470.7)">
            <rect x="-786.655" y="5053.75" width="320.543" height="302.834" style="fill:rgb(217,217,217);stroke:rgb(217,217,217);stroke-width:1.62px;"/>
        </g>
    </g>
</svg>
