<?xml version="1.0" encoding="UTF-8" standalone="no"?>
<!-- Created with Inkscape (http://www.inkscape.org/) -->

<svg
   version="1.1"
   id="svg2"
   xml:space="preserve"
   width="407.36691"
   height="125.4048"
   viewBox="0 0 407.36691 125.4048"
   sodipodi:docname="ath-logo.svg"
   inkscape:version="1.1.1 (eb90963e84, 2021-10-02)"
   xmlns:inkscape="http://www.inkscape.org/namespaces/inkscape"
   xmlns:sodipodi="http://sodipodi.sourceforge.net/DTD/sodipodi-0.dtd"
   xmlns="http://www.w3.org/2000/svg"
   xmlns:svg="http://www.w3.org/2000/svg"><defs
     id="defs6" /><sodipodi:namedview
     id="namedview4"
     pagecolor="#ffffff"
     bordercolor="#666666"
     borderopacity="1.0"
     inkscape:pageshadow="2"
     inkscape:pageopacity="0.0"
     inkscape:pagecheckerboard="0"
     showgrid="false"
     inkscape:zoom="0.45041789"
     inkscape:cx="633.85582"
     inkscape:cy="168.7322"
     inkscape:window-width="1916"
     inkscape:window-height="987"
     inkscape:window-x="0"
     inkscape:window-y="72"
     inkscape:window-maximized="1"
     inkscape:current-layer="g8" /><g
     id="g8"
     inkscape:groupmode="layer"
     inkscape:label="logo-ATH-format-wektorowy"
     transform="matrix(1.3333333,0,0,-1.3333333,-196.11626,614.55652)"><g
       id="g973"><path
         d="m 260.9286,430.9642 1.0284,-3.2201 h 2.2425 l -3.6924,11.3638 h -2.647 l -3.642,-11.3638 h 2.1413 l 0.978,3.2201 z m -3.2542,1.5681 0.8767,2.799 c 0.0618,0.2276 0.1236,0.4606 0.1854,0.7052 0.0621,0.2415 0.1211,0.4862 0.18,0.7249 0.059,0.2417 0.118,0.475 0.1741,0.6942 h 0.0337 c 0.0845,-0.3317 0.1743,-0.6829 0.267,-1.0483 0.0956,-0.3679 0.1968,-0.7248 0.3065,-1.076 l 0.8934,-2.799 z m 10.0154,7.1995 h -2.0739 v -11.9877 h 2.0739 v 2.7989 l 0.6911,0.826 2.3604,-3.6249 h 2.546 l -3.4733,4.8557 3.0518,3.3551 h -2.4953 l -2.0064,-2.647 c -0.104,-0.146 -0.2109,-0.3008 -0.3203,-0.4666 -0.1125,-0.1684 -0.2194,-0.3313 -0.3206,-0.4943 h -0.0334 z m 13.0665,-7.0645 c 0.003,0.4552 -0.0507,0.8906 -0.1601,1.3039 -0.1097,0.413 -0.2923,0.7838 -0.5479,1.1098 -0.256,0.326 -0.6044,0.5816 -1.0426,0.7699 -0.4386,0.1885 -0.9837,0.2868 -1.6385,0.2897 -0.4325,-0.003 -0.8373,-0.0366 -1.2109,-0.1069 -0.3739,-0.0675 -0.7081,-0.1545 -1.006,-0.2642 -0.2951,-0.1097 -0.5451,-0.2276 -0.7504,-0.354 l 0.4048,-1.3488 c 0.1882,0.118 0.4017,0.2248 0.6407,0.3147 0.2386,0.0898 0.4918,0.163 0.7585,0.2134 0.267,0.0508 0.5369,0.0788 0.8093,0.0788 0.3597,-0.003 0.652,-0.0533 0.8739,-0.1491 0.222,-0.0955 0.3906,-0.2162 0.506,-0.3651 0.1151,-0.1491 0.1911,-0.3036 0.233,-0.4665 0.0394,-0.163 0.0593,-0.3147 0.0564,-0.4525 v -0.1349 c -1.0145,0.006 -1.8856,-0.1066 -2.6132,-0.3399 -0.7251,-0.2304 -1.2816,-0.5788 -1.6694,-1.0397 -0.3906,-0.4609 -0.5873,-1.0369 -0.5901,-1.7226 0,-0.3147 0.0592,-0.6183 0.1715,-0.9077 0.1125,-0.2922 0.278,-0.5507 0.5003,-0.7812 0.2191,-0.233 0.4887,-0.4158 0.8093,-0.5479 0.3174,-0.135 0.6854,-0.205 1.0987,-0.2078 0.3597,0.003 0.6939,0.0476 1.0003,0.1403 0.3062,0.0955 0.5789,0.2222 0.8204,0.3878 0.2418,0.163 0.4442,0.3515 0.6071,0.5678 h 0.0505 l 0.1517,-0.9105 h 1.8717 c -0.0508,0.2585 -0.0845,0.5564 -0.1041,0.8991 -0.0226,0.3402 -0.0309,0.6999 -0.0309,1.0735 z m -2.0233,-2.0401 c 0,-0.076 0,-0.1517 -0.006,-0.2276 -0.005,-0.076 -0.0196,-0.1517 -0.0448,-0.2277 -0.0674,-0.1995 -0.1771,-0.3849 -0.326,-0.5564 -0.1491,-0.1687 -0.3345,-0.3061 -0.5564,-0.4102 -0.2191,-0.1068 -0.472,-0.1601 -0.7532,-0.163 -0.2219,0 -0.4215,0.0423 -0.5984,0.1265 -0.1771,0.0841 -0.3174,0.2134 -0.4215,0.3877 -0.104,0.1744 -0.1573,0.3963 -0.1601,0.6659 0.003,0.3093 0.0842,0.5678 0.2415,0.7702 0.1573,0.1992 0.371,0.3597 0.6409,0.4719 0.2696,0.1126 0.576,0.1911 0.9159,0.2362 0.343,0.0419 0.697,0.0618 1.0678,0.0561 v -1.1296 z m 9.7115,9.1046 v -4.6537 h -0.0338 c -0.1236,0.2053 -0.295,0.385 -0.5113,0.5454 -0.2194,0.1602 -0.478,0.2838 -0.7784,0.3765 -0.3036,0.0927 -0.6435,0.1377 -1.0202,0.1406 -0.4972,0 -0.9666,-0.1012 -1.4077,-0.298 -0.4442,-0.1967 -0.8348,-0.4861 -1.1747,-0.8628 -0.3427,-0.3793 -0.6097,-0.8374 -0.8036,-1.3796 -0.1939,-0.5395 -0.2894,-1.1549 -0.2894,-1.8434 0.003,-0.635 0.0955,-1.2084 0.2724,-1.7226 0.18,-0.5142 0.43,-0.9553 0.7503,-1.3235 0.3203,-0.3708 0.6914,-0.6548 1.1186,-0.8516 0.424,-0.1992 0.885,-0.2976 1.3824,-0.3004 0.3963,0.003 0.7643,0.0618 1.1072,0.1825 0.3428,0.1208 0.6463,0.2894 0.9105,0.5114 0.2668,0.222 0.4805,0.4833 0.6463,0.7897 h 0.0338 l 0.1009,-1.2982 h 1.838 c -0.0114,0.1882 -0.0227,0.4073 -0.0338,0.6604 -0.009,0.2501 -0.017,0.5171 -0.0226,0.8008 -0.008,0.2809 -0.0111,0.5647 -0.0111,0.8487 v 9.6778 z m 0,-8.4303 c 0,-0.1097 -0.003,-0.2134 -0.0142,-0.3146 -0.0111,-0.1012 -0.0281,-0.1996 -0.0533,-0.2923 -0.0703,-0.3007 -0.191,-0.5592 -0.3654,-0.7783 -0.174,-0.2192 -0.3821,-0.3878 -0.6293,-0.5057 -0.2446,-0.1211 -0.5088,-0.18 -0.7925,-0.1829 -0.4383,0.003 -0.8122,0.1182 -1.1183,0.3402 -0.3064,0.2219 -0.5369,0.5309 -0.697,0.9215 -0.1602,0.3906 -0.2416,0.843 -0.2416,1.3516 0,0.3824 0.0448,0.7364 0.1375,1.0624 0.0902,0.326 0.2223,0.6126 0.3991,0.8569 0.1772,0.2446 0.3935,0.4329 0.652,0.5703 0.2557,0.1378 0.5508,0.2053 0.8853,0.2081 0.3146,-0.003 0.5955,-0.0703 0.843,-0.1996 0.2443,-0.1292 0.4467,-0.3033 0.6097,-0.5227 0.1602,-0.2162 0.2724,-0.4606 0.3342,-0.7276 0.017,-0.087 0.0309,-0.18 0.0394,-0.2784 0.008,-0.0983 0.0114,-0.191 0.0114,-0.2781 z m 11.2623,-0.0337 c 0.017,0.0927 0.0337,0.2137 0.0479,0.3626 0.0113,0.1488 0.0196,0.3203 0.0196,0.5142 0,0.3654 -0.0366,0.7333 -0.1123,1.1072 -0.076,0.3764 -0.1995,0.7361 -0.3654,1.0788 -0.1686,0.343 -0.3906,0.652 -0.6658,0.9219 -0.2756,0.2727 -0.6098,0.4889 -1.006,0.6463 -0.3963,0.1573 -0.8601,0.2389 -1.391,0.2418 -0.5255,-0.003 -1.0032,-0.0817 -1.4275,-0.2418 -0.4244,-0.1574 -0.798,-0.3765 -1.1211,-0.6577 -0.3232,-0.2809 -0.593,-0.6069 -0.8093,-0.9805 -0.2166,-0.371 -0.3796,-0.7727 -0.489,-1.2027 -0.1097,-0.4329 -0.1658,-0.8768 -0.1658,-1.3348 0.003,-0.8431 0.1712,-1.5736 0.5057,-2.1918 0.3345,-0.6182 0.8149,-1.0987 1.4445,-1.4389 0.6293,-0.3398 1.391,-0.5113 2.2816,-0.517 0.593,0.003 1.1296,0.0536 1.6101,0.1491 0.4833,0.0955 0.902,0.2191 1.256,0.3736 l -0.3033,1.4162 c -0.2109,-0.0729 -0.4328,-0.1375 -0.6605,-0.1939 -0.2304,-0.0561 -0.4748,-0.0984 -0.7418,-0.1293 -0.2642,-0.0308 -0.5536,-0.0476 -0.8739,-0.0476 -0.3345,0 -0.652,0.0394 -0.9499,0.1236 -0.2976,0.0814 -0.5618,0.2106 -0.7951,0.3821 -0.2333,0.1715 -0.4159,0.3935 -0.5536,0.6605 -0.1378,0.2696 -0.2163,0.5873 -0.2305,0.9581 z m -5.4964,1.4499 c 0.0199,0.2138 0.0703,0.4386 0.152,0.669 0.0842,0.233 0.1992,0.4496 0.3512,0.6517 0.1516,0.1996 0.3455,0.3654 0.576,0.4918 0.2304,0.1264 0.5057,0.1911 0.826,0.1939 0.343,-0.003 0.6267,-0.0729 0.8515,-0.205 0.2248,-0.1349 0.3991,-0.3064 0.5256,-0.5142 0.1264,-0.208 0.2134,-0.4243 0.2613,-0.6519 0.0505,-0.2305 0.0703,-0.4414 0.0646,-0.6353 z m 7.2332,-4.9736 h 2.0231 v 4.8557 c 0,0.1179 0.008,0.2361 0.0252,0.3512 0.017,0.1179 0.0422,0.2305 0.076,0.3402 0.0674,0.191 0.1715,0.3736 0.3064,0.5479 0.1375,0.1769 0.3061,0.3232 0.5057,0.4383 0.1996,0.1153 0.43,0.1743 0.6885,0.1771 0.3204,-0.003 0.5845,-0.0873 0.7952,-0.2531 0.208,-0.163 0.3653,-0.3932 0.4665,-0.6854 0.1038,-0.2923 0.1545,-0.6324 0.1545,-1.0174 v -4.7545 h 2.0231 v 4.9232 c 0,0.1207 0.009,0.2415 0.0255,0.3654 0.0167,0.1207 0.042,0.2301 0.0757,0.3259 0.0731,0.1993 0.18,0.3822 0.3147,0.548 0.1377,0.163 0.3035,0.2948 0.4946,0.396 0.1911,0.0983 0.4048,0.1491 0.6406,0.1519 0.3317,0 0.6072,-0.0873 0.8235,-0.2613 0.2163,-0.1715 0.3793,-0.4187 0.4861,-0.7419 0.1041,-0.3231 0.1574,-0.7137 0.1574,-1.1718 v -4.5354 h 2.0233 v 4.8387 c -0.003,0.6548 -0.0816,1.2112 -0.2361,1.6665 -0.1545,0.4552 -0.3625,0.8206 -0.6239,1.0987 -0.2614,0.2781 -0.5536,0.4805 -0.8739,0.6069 -0.3232,0.1264 -0.6577,0.1882 -0.9975,0.1857 -0.3427,0 -0.652,-0.0423 -0.9244,-0.1239 -0.2755,-0.0842 -0.5284,-0.205 -0.7617,-0.3651 -0.1854,-0.1182 -0.3625,-0.2614 -0.5284,-0.4329 -0.1683,-0.1686 -0.3231,-0.3682 -0.4663,-0.5958 h -0.0337 c -0.1182,0.3064 -0.2894,0.5706 -0.5085,0.7982 -0.2166,0.2277 -0.4779,0.4017 -0.7756,0.5281 -0.3007,0.1267 -0.6296,0.1885 -0.9921,0.1914 -0.3484,-0.003 -0.6602,-0.0451 -0.9301,-0.1293 -0.2727,-0.0816 -0.5113,-0.1939 -0.7137,-0.3288 -0.2024,-0.1378 -0.3793,-0.2894 -0.5227,-0.4524 -0.146,-0.163 -0.2671,-0.326 -0.3626,-0.489 h -0.0504 l -0.1012,1.2138 h -1.7703 c 0.0168,-0.3512 0.0338,-0.7305 0.0476,-1.1324 0.0114,-0.4045 0.0199,-0.8402 0.0199,-1.3122 z m 16.3712,0 v 8.2108 h -2.0738 v -8.2108 z m -1.0287,11.6336 c -0.233,-0.003 -0.4354,-0.0535 -0.6097,-0.1491 -0.1715,-0.0983 -0.309,-0.2333 -0.4045,-0.4016 -0.0984,-0.1715 -0.1463,-0.3626 -0.1491,-0.5792 0.003,-0.2049 0.0507,-0.3906 0.1434,-0.5589 0.0955,-0.1659 0.2276,-0.3008 0.3991,-0.3992 0.1712,-0.1012 0.3736,-0.1516 0.6041,-0.1545 0.2415,0.003 0.4524,0.0533 0.6293,0.1545 0.1743,0.0984 0.3092,0.2333 0.4048,0.3992 0.0955,0.1683 0.1459,0.354 0.1459,0.5589 -0.005,0.2166 -0.0561,0.4077 -0.1516,0.5792 -0.0955,0.1683 -0.2276,0.3033 -0.3991,0.4016 -0.1712,0.0956 -0.3765,0.1463 -0.6126,0.1491 z m 9.6443,-6.7104 c 0.003,0.4552 -0.0507,0.8906 -0.1601,1.3039 -0.1097,0.413 -0.2923,0.7838 -0.548,1.1098 -0.2559,0.326 -0.6043,0.5816 -1.0426,0.7699 -0.4385,0.1885 -0.9836,0.2868 -1.6384,0.2897 -0.4325,-0.003 -0.8373,-0.0366 -1.2109,-0.1069 -0.3739,-0.0675 -0.7081,-0.1545 -1.0061,-0.2642 -0.295,-0.1097 -0.5451,-0.2276 -0.7503,-0.354 l 0.4048,-1.3488 c 0.1882,0.118 0.4017,0.2248 0.6406,0.3147 0.2387,0.0898 0.4918,0.163 0.7586,0.2134 0.267,0.0508 0.5369,0.0788 0.8093,0.0788 0.3597,-0.003 0.6519,-0.0533 0.8739,-0.1491 0.2219,-0.0955 0.3906,-0.2162 0.506,-0.3651 0.1151,-0.1491 0.191,-0.3036 0.233,-0.4665 0.0394,-0.163 0.0592,-0.3147 0.0564,-0.4525 v -0.1349 c -1.0145,0.006 -1.8856,-0.1066 -2.6133,-0.3399 -0.7251,-0.2304 -1.2815,-0.5788 -1.6693,-1.0397 -0.3906,-0.4609 -0.5873,-1.0369 -0.5902,-1.7226 0,-0.3147 0.0593,-0.6183 0.1715,-0.9077 0.1126,-0.2922 0.2781,-0.5507 0.5004,-0.7812 0.2191,-0.233 0.4886,-0.4158 0.8092,-0.5479 0.3175,-0.135 0.6855,-0.205 1.0988,-0.2078 0.3597,0.003 0.6939,0.0476 1.0003,0.1403 0.3061,0.0955 0.5788,0.2222 0.8203,0.3878 0.2418,0.163 0.4442,0.3515 0.6072,0.5678 h 0.0505 l 0.1516,-0.9105 h 1.8718 c -0.0508,0.2585 -0.0845,0.5564 -0.1041,0.8991 -0.0227,0.3402 -0.0309,0.6999 -0.0309,1.0735 z m -2.0233,-2.0401 c 0,-0.076 0,-0.1517 -0.006,-0.2276 -0.005,-0.076 -0.0196,-0.1517 -0.0448,-0.2277 -0.0675,-0.1995 -0.1772,-0.3849 -0.326,-0.5564 -0.1491,-0.1687 -0.3345,-0.3061 -0.5564,-0.4102 -0.2191,-0.1068 -0.472,-0.1601 -0.7532,-0.163 -0.2219,0 -0.4215,0.0423 -0.5984,0.1265 -0.1772,0.0841 -0.3175,0.2134 -0.4215,0.3877 -0.104,0.1744 -0.1573,0.3963 -0.1602,0.6659 0.003,0.3093 0.0842,0.5678 0.2416,0.7702 0.1573,0.1992 0.371,0.3597 0.6409,0.4719 0.2695,0.1126 0.576,0.1911 0.9158,0.2362 0.343,0.0419 0.6971,0.0618 1.0679,0.0561 v -1.1296 z m -67.1709,-25.5651 h 2.0738 v 9.6273 h 3.2709 v 1.7365 h -8.5819 v -1.7365 h 3.2372 z m 12.257,3.5237 c 0.017,0.0927 0.0337,0.2138 0.0479,0.3626 0.0113,0.1488 0.0195,0.3203 0.0195,0.5142 0,0.3654 -0.0365,0.7333 -0.1122,1.1072 -0.076,0.3764 -0.1996,0.7362 -0.3654,1.0789 -0.1687,0.343 -0.3906,0.6519 -0.6659,0.9218 -0.2755,0.2727 -0.6097,0.489 -1.006,0.6463 -0.3963,0.1573 -0.86,0.2389 -1.3909,0.2418 -0.5256,-0.003 -1.0032,-0.0817 -1.4276,-0.2418 -0.4243,-0.1573 -0.7979,-0.3765 -1.1211,-0.6577 -0.3231,-0.2809 -0.593,-0.6068 -0.8093,-0.9805 -0.2165,-0.371 -0.3795,-0.7727 -0.4889,-1.2027 -0.1097,-0.4328 -0.1659,-0.8768 -0.1659,-1.3348 0.003,-0.8431 0.1712,-1.5735 0.5057,-2.1918 0.3345,-0.6182 0.815,-1.0987 1.4446,-1.4388 0.6293,-0.3399 1.3909,-0.5114 2.2816,-0.5171 0.593,0.003 1.1296,0.0536 1.6101,0.1491 0.4833,0.0955 0.9019,0.2191 1.256,0.3736 l -0.3033,1.4162 c -0.2109,-0.0728 -0.4329,-0.1375 -0.6605,-0.1939 -0.2305,-0.0561 -0.4748,-0.0983 -0.7418,-0.1292 -0.2642,-0.0309 -0.5536,-0.0477 -0.8739,-0.0477 -0.3345,0 -0.652,0.0394 -0.9499,0.1236 -0.2977,0.0814 -0.5619,0.2106 -0.7951,0.3821 -0.2333,0.1715 -0.4159,0.3935 -0.5537,0.6605 -0.1377,0.2696 -0.2162,0.5874 -0.2304,0.9581 z m -5.4964,1.4499 c 0.0198,0.2138 0.0703,0.4386 0.1519,0.669 0.0842,0.233 0.1993,0.4496 0.3512,0.6517 0.1517,0.1996 0.3456,0.3654 0.576,0.4918 0.2305,0.1264 0.5057,0.1911 0.8261,0.1939 0.3429,-0.003 0.6267,-0.0728 0.8515,-0.2049 0.2248,-0.135 0.3991,-0.3065 0.5255,-0.5142 0.1264,-0.2081 0.2135,-0.4244 0.2614,-0.652 0.0504,-0.2305 0.0703,-0.4414 0.0646,-0.6353 z m 12.9824,-3.1864 c -0.2024,-0.0873 -0.4357,-0.163 -0.7053,-0.2248 -0.267,-0.0618 -0.5788,-0.0927 -0.9303,-0.0955 -0.3566,0 -0.6854,0.059 -0.989,0.1769 -0.3062,0.1154 -0.5703,0.2866 -0.798,0.5142 -0.2276,0.2248 -0.4048,0.5031 -0.5312,0.832 -0.1264,0.3259 -0.191,0.7024 -0.1939,1.1239 -0.003,0.3764 0.0508,0.7277 0.163,1.048 0.1126,0.3234 0.2755,0.6043 0.4918,0.8458 0.2163,0.2418 0.4805,0.43 0.7923,0.565 0.3149,0.1349 0.669,0.2024 1.065,0.2052 0.3682,-0.003 0.68,-0.0337 0.936,-0.0955 0.2557,-0.0621 0.4663,-0.1378 0.6321,-0.2251 l 0.3711,1.5681 c -0.1602,0.0675 -0.3459,0.1293 -0.5621,0.1854 -0.2135,0.0564 -0.4439,0.1012 -0.6914,0.1349 -0.2472,0.0338 -0.4972,0.0508 -0.7529,0.0508 -0.7223,-0.003 -1.3657,-0.1154 -1.9307,-0.3373 -0.5646,-0.2192 -1.0426,-0.5284 -1.4357,-0.9219 -0.3906,-0.396 -0.6886,-0.8597 -0.8938,-1.3881 -0.2049,-0.5281 -0.3061,-1.1015 -0.309,-1.7198 0.003,-0.6378 0.1012,-1.2138 0.3005,-1.7308 0.1996,-0.5142 0.4836,-0.9556 0.8544,-1.3235 0.371,-0.3682 0.8149,-0.6491 1.3348,-0.8459 0.5199,-0.1967 1.0987,-0.295 1.7422,-0.2979 0.3455,0.003 0.6658,0.0227 0.9638,0.0646 0.2979,0.0423 0.5621,0.0927 0.7925,0.1574 0.2333,0.0646 0.4215,0.1321 0.5704,0.1995 z m 1.821,-1.7872 h 2.0738 v 4.9232 c 0,0.1094 0.005,0.2191 0.0167,0.326 0.0113,0.104 0.0337,0.2049 0.0675,0.2979 0.0785,0.2106 0.1939,0.4045 0.3455,0.5788 0.1491,0.1741 0.3317,0.3147 0.5451,0.4215 0.2166,0.1066 0.4581,0.1602 0.728,0.163 0.3792,-0.003 0.6885,-0.0955 0.9215,-0.2783 0.2333,-0.1826 0.402,-0.4326 0.5088,-0.7447 0.1038,-0.3146 0.1573,-0.6687 0.1545,-1.0678 v -4.6196 h 2.0738 v 4.8387 c -0.003,0.6548 -0.087,1.2113 -0.25,1.6665 -0.163,0.4553 -0.3824,0.8206 -0.6576,1.0987 -0.2755,0.2781 -0.5817,0.4805 -0.919,0.6069 -0.3399,0.1264 -0.6857,0.1882 -1.0398,0.1857 -0.2613,0 -0.5142,-0.0337 -0.7528,-0.0958 -0.2418,-0.0647 -0.4695,-0.1574 -0.6801,-0.2753 -0.2109,-0.1097 -0.4048,-0.2443 -0.5788,-0.3991 -0.1715,-0.1573 -0.3232,-0.3342 -0.4499,-0.5281 h -0.0334 v 4.8895 h -2.0738 z m 9.644,0 h 2.0738 v 4.8387 c 0,0.1211 0.008,0.239 0.0252,0.3543 0.0168,0.1151 0.042,0.2163 0.0757,0.3034 0.0732,0.2109 0.1857,0.4101 0.3345,0.593 0.1488,0.1825 0.3288,0.3316 0.5451,0.4439 0.2166,0.1153 0.4638,0.1743 0.739,0.1771 0.3767,-0.003 0.6772,-0.0955 0.9077,-0.2755 0.2333,-0.1797 0.3991,-0.4243 0.5059,-0.7361 0.1038,-0.3119 0.1574,-0.6662 0.1545,-1.0622 v -4.6366 h 2.0739 v 4.8725 c -0.003,0.6463 -0.0899,1.197 -0.2529,1.6469 -0.1658,0.4496 -0.3878,0.8118 -0.669,1.0902 -0.278,0.2752 -0.5899,0.4748 -0.9357,0.6012 -0.3427,0.1264 -0.6967,0.1882 -1.0593,0.1857 -0.3401,-0.003 -0.652,-0.0451 -0.9357,-0.1321 -0.2809,-0.0845 -0.5312,-0.1967 -0.7532,-0.3345 -0.2191,-0.1406 -0.4073,-0.2923 -0.5646,-0.4581 -0.1576,-0.1658 -0.2841,-0.3288 -0.3768,-0.4918 h -0.0504 l -0.1012,1.2308 h -1.804 c 0.0167,-0.3512 0.0338,-0.7305 0.0476,-1.1324 0.0114,-0.4045 0.0199,-0.8402 0.0199,-1.3122 z m 11.7178,0 v 8.2108 h -2.0738 v -8.2108 z m -1.0286,11.6336 c -0.2331,-0.003 -0.4354,-0.0535 -0.6098,-0.1491 -0.1715,-0.0983 -0.309,-0.2332 -0.4045,-0.4016 -0.0983,-0.1715 -0.1462,-0.3626 -0.1491,-0.5791 0.003,-0.205 0.0508,-0.3907 0.1434,-0.559 0.0956,-0.1659 0.2277,-0.3008 0.3992,-0.3992 0.1712,-0.1011 0.3736,-0.1516 0.604,-0.1544 0.2415,0.003 0.4524,0.0533 0.6293,0.1544 0.1744,0.0984 0.3093,0.2333 0.4048,0.3992 0.0955,0.1683 0.146,0.354 0.146,0.559 -0.005,0.2165 -0.0561,0.4076 -0.1517,0.5791 -0.0955,0.1684 -0.2276,0.3033 -0.3991,0.4016 -0.1712,0.0956 -0.3764,0.1463 -0.6125,0.1491 z m 9.0204,-9.8464 c -0.2024,-0.0873 -0.4357,-0.163 -0.7053,-0.2248 -0.267,-0.0618 -0.5788,-0.0927 -0.9303,-0.0955 -0.3566,0 -0.6854,0.059 -0.989,0.1769 -0.3062,0.1154 -0.5704,0.2866 -0.798,0.5142 -0.2276,0.2248 -0.4048,0.5031 -0.5312,0.832 -0.1264,0.3259 -0.1911,0.7024 -0.1939,1.1239 -0.003,0.3764 0.0508,0.7277 0.163,1.048 0.1125,0.3234 0.2755,0.6043 0.4918,0.8458 0.2163,0.2418 0.4805,0.43 0.7923,0.565 0.3149,0.1349 0.669,0.2024 1.065,0.2052 0.3682,-0.003 0.68,-0.0337 0.936,-0.0955 0.2557,-0.0621 0.4663,-0.1378 0.6321,-0.2251 l 0.3711,1.5681 c -0.1602,0.0675 -0.3459,0.1293 -0.5622,0.1854 -0.2134,0.0564 -0.4439,0.1012 -0.6913,0.1349 -0.2472,0.0338 -0.4972,0.0508 -0.7529,0.0508 -0.7223,-0.003 -1.3657,-0.1154 -1.9307,-0.3373 -0.5646,-0.2192 -1.0426,-0.5284 -1.4357,-0.9219 -0.3906,-0.396 -0.6886,-0.8597 -0.8938,-1.3881 -0.2049,-0.5281 -0.3061,-1.1015 -0.309,-1.7198 0.003,-0.6378 0.1012,-1.2138 0.3005,-1.7308 0.1996,-0.5142 0.4836,-0.9556 0.8544,-1.3235 0.371,-0.3682 0.8149,-0.6491 1.3348,-0.8459 0.5199,-0.1967 1.0987,-0.295 1.7422,-0.2979 0.3455,0.003 0.6658,0.0227 0.9637,0.0646 0.298,0.0423 0.5622,0.0927 0.7926,0.1574 0.2333,0.0646 0.4215,0.1321 0.5703,0.1995 z m 1.0454,-1.7872 h 6.9125 v 1.6523 h -4.3163 v 0.0337 c 0.2109,0.2191 0.4133,0.4468 0.6126,0.6801 0.1996,0.2361 0.3991,0.4748 0.6015,0.7194 l 3.0011,3.8608 v 1.2645 h -6.5081 v -1.6523 h 3.979 v -0.0337 c -0.2078,-0.233 -0.4074,-0.4578 -0.5984,-0.6772 -0.1911,-0.222 -0.3906,-0.4553 -0.5987,-0.7053 l -3.0852,-3.9453 z m 8.3628,0 h 2.0738 v 4.8387 c 0,0.1211 0.008,0.239 0.0252,0.3543 0.0167,0.1151 0.042,0.2163 0.0757,0.3034 0.0731,0.2109 0.1857,0.4101 0.3345,0.593 0.1488,0.1825 0.3288,0.3316 0.5451,0.4439 0.2166,0.1153 0.4637,0.1743 0.739,0.1771 0.3767,-0.003 0.6772,-0.0955 0.9076,-0.2755 0.2333,-0.1797 0.3991,-0.4243 0.506,-0.7361 0.1038,-0.3119 0.1573,-0.6662 0.1545,-1.0622 v -4.6366 h 2.0738 v 4.8725 c -0.003,0.6463 -0.0898,1.197 -0.2528,1.6469 -0.1658,0.4496 -0.3878,0.8118 -0.669,1.0902 -0.2781,0.2752 -0.5899,0.4748 -0.9357,0.6012 -0.3427,0.1264 -0.6968,0.1882 -1.0593,0.1857 -0.3402,-0.003 -0.652,-0.0451 -0.9357,-0.1321 -0.281,-0.0845 -0.5313,-0.1967 -0.7532,-0.3345 -0.2191,-0.1406 -0.4073,-0.2923 -0.5647,-0.4581 -0.1576,-0.1658 -0.284,-0.3288 -0.3767,-0.4918 h -0.0504 l -0.1012,1.2308 h -1.804 c 0.0167,-0.3512 0.0337,-0.7305 0.0476,-1.1324 0.0113,-0.4045 0.0199,-0.8402 0.0199,-1.3122 z m 13.3698,8.3965 c -0.6207,-0.003 -1.1914,-0.1012 -1.7084,-0.3008 -0.517,-0.1995 -0.9666,-0.4861 -1.3459,-0.8628 -0.3793,-0.3765 -0.6715,-0.8317 -0.8796,-1.3683 -0.208,-0.5369 -0.3118,-1.141 -0.3146,-1.8182 0.003,-0.6633 0.1094,-1.256 0.3175,-1.7787 0.208,-0.5227 0.5,-0.9638 0.8739,-1.3292 0.3736,-0.3654 0.8093,-0.6434 1.3039,-0.8345 0.4972,-0.191 1.0369,-0.2866 1.6186,-0.2894 0.4215,0 0.8345,0.0533 1.2419,0.1658 0.4047,0.1094 0.7869,0.2753 1.1437,0.5029 0.3598,0.2248 0.6744,0.5114 0.9471,0.8572 0.2752,0.3455 0.489,0.7557 0.6435,1.228 0.1573,0.4719 0.2358,1.0085 0.2386,1.6129 -0.003,0.6264 -0.1009,1.197 -0.2922,1.7112 -0.1939,0.5142 -0.472,0.9582 -0.8317,1.332 -0.3597,0.3736 -0.7869,0.6602 -1.2869,0.8655 -0.5003,0.2024 -1.0565,0.3035 -1.6694,0.3064 z m -0.0504,-1.5007 c 0.354,-0.003 0.6576,-0.087 0.9076,-0.25 0.2529,-0.1658 0.4581,-0.3824 0.6183,-0.652 0.1601,-0.2698 0.2781,-0.5677 0.3512,-0.8909 0.076,-0.3231 0.1125,-0.6463 0.1125,-0.9723 -0.003,-0.559 -0.0873,-1.0508 -0.2585,-1.4723 -0.1687,-0.4215 -0.4019,-0.7475 -0.7027,-0.9836 -0.3005,-0.2359 -0.6491,-0.3569 -1.0451,-0.3597 -0.3121,0.003 -0.5959,0.0731 -0.8459,0.2109 -0.2503,0.1406 -0.4637,0.3345 -0.6435,0.5845 -0.1771,0.2528 -0.3121,0.5451 -0.4076,0.8824 -0.0955,0.337 -0.1431,0.7053 -0.1431,1.1041 0,0.3458 0.0363,0.6829 0.1151,1.0145 0.0788,0.3288 0.1995,0.6296 0.3625,0.8963 0.1658,0.2699 0.3793,0.4833 0.6378,0.6435 0.2614,0.1604 0.576,0.2418 0.9414,0.2446 z m 5.4794,-1.686 v -1.4332 h 4.2995 v 1.4332 z m 6.0023,6.154 v -11.3638 h 2.0738 v 5.0074 h 4.8051 v -5.0074 h 2.0738 v 11.3638 h -2.0738 v -4.5522 h -4.8051 v 4.5522 z m 18.5967,-3.153 h -2.0735 v -4.9569 c 0,-0.1208 -0.009,-0.2359 -0.0284,-0.3456 -0.0167,-0.1122 -0.0476,-0.2106 -0.0898,-0.2951 -0.0675,-0.1825 -0.1715,-0.3597 -0.3118,-0.5281 -0.1435,-0.1686 -0.3204,-0.3064 -0.5313,-0.4161 -0.2134,-0.1094 -0.4609,-0.1655 -0.7418,-0.1684 -0.3625,0.003 -0.6576,0.0956 -0.885,0.2781 -0.225,0.1826 -0.3906,0.4411 -0.4946,0.7756 -0.104,0.3345 -0.1573,0.7305 -0.1545,1.1885 v 4.468 h -2.0738 v -4.822 c 0.003,-0.6687 0.0813,-1.2308 0.2358,-1.6889 0.1548,-0.4578 0.3654,-0.826 0.6324,-1.1041 0.2671,-0.2755 0.5704,-0.4751 0.9105,-0.5987 0.3399,-0.1235 0.6968,-0.1853 1.0707,-0.1825 0.3707,0.003 0.6996,0.0504 0.989,0.1403 0.2894,0.0901 0.5422,0.2081 0.7588,0.3541 0.2163,0.1434 0.396,0.295 0.5451,0.458 0.1488,0.163 0.267,0.3175 0.3541,0.4638 h 0.0504 l 0.1012,-1.2308 h 1.804 c -0.0167,0.3373 -0.0338,0.7081 -0.0448,1.1182 -0.0142,0.4077 -0.0227,0.8544 -0.0227,1.3434 z m 2.2428,-8.2108 h 2.0231 v 4.8557 c 0,0.1179 0.008,0.2362 0.0252,0.3512 0.017,0.118 0.0422,0.2305 0.076,0.3402 0.0674,0.1911 0.1715,0.3736 0.3064,0.5479 0.1375,0.1769 0.3061,0.3232 0.5057,0.4383 0.1996,0.1153 0.43,0.1743 0.6885,0.1771 0.3203,-0.003 0.5845,-0.0873 0.7951,-0.2531 0.2081,-0.163 0.3654,-0.3932 0.4666,-0.6854 0.1038,-0.2923 0.1545,-0.6324 0.1545,-1.0174 v -4.7545 h 2.0231 v 4.9232 c 0,0.1207 0.009,0.2415 0.0255,0.3654 0.0167,0.1207 0.042,0.2302 0.0757,0.326 0.0731,0.1992 0.18,0.3821 0.3146,0.5479 0.1378,0.163 0.3036,0.2948 0.4947,0.396 0.191,0.0984 0.4048,0.1491 0.6406,0.1519 0.3317,0 0.6072,-0.0873 0.8235,-0.2613 0.2163,-0.1715 0.3793,-0.4187 0.4861,-0.7418 0.1041,-0.3232 0.1574,-0.7138 0.1574,-1.1719 v -4.5354 h 2.0233 v 4.8387 c -0.003,0.6548 -0.0816,1.2113 -0.2361,1.6665 -0.1545,0.4553 -0.3626,0.8206 -0.6239,1.0987 -0.2614,0.2781 -0.5536,0.4805 -0.8739,0.6069 -0.3232,0.1264 -0.6577,0.1882 -0.9975,0.1857 -0.3428,0 -0.652,-0.0423 -0.9244,-0.1239 -0.2755,-0.0842 -0.5284,-0.2049 -0.7617,-0.3651 -0.1854,-0.1182 -0.3625,-0.2613 -0.5284,-0.4328 -0.1683,-0.1687 -0.3231,-0.3683 -0.4663,-0.5959 h -0.0337 c -0.1182,0.3064 -0.2894,0.5706 -0.5085,0.7982 -0.2166,0.2277 -0.478,0.4017 -0.7756,0.5281 -0.3008,0.1268 -0.6296,0.1885 -0.9921,0.1914 -0.3484,-0.003 -0.6602,-0.0451 -0.9301,-0.1293 -0.2727,-0.0816 -0.5113,-0.1939 -0.7137,-0.3288 -0.2024,-0.1378 -0.3793,-0.2894 -0.5227,-0.4524 -0.146,-0.163 -0.2671,-0.326 -0.3626,-0.489 h -0.0504 l -0.1012,1.2138 h -1.7703 c 0.0167,-0.3512 0.0338,-0.7305 0.0476,-1.1324 0.0114,-0.4045 0.0199,-0.8402 0.0199,-1.3122 z m 20.6705,4.9232 c 0.003,0.4552 -0.0507,0.8906 -0.1602,1.3039 -0.1097,0.413 -0.2922,0.7838 -0.5479,1.1098 -0.256,0.326 -0.6043,0.5817 -1.0426,0.7699 -0.4385,0.1885 -0.9836,0.2868 -1.6384,0.2897 -0.4326,-0.003 -0.8374,-0.0366 -1.211,-0.1069 -0.3739,-0.0674 -0.7081,-0.1545 -1.006,-0.2642 -0.2951,-0.1097 -0.5451,-0.2276 -0.7503,-0.354 l 0.4048,-1.3487 c 0.1882,0.1179 0.4016,0.2247 0.6406,0.3146 0.2387,0.0899 0.4918,0.163 0.7586,0.2135 0.267,0.0507 0.5368,0.0788 0.8093,0.0788 0.3597,-0.003 0.6519,-0.0533 0.8739,-0.1491 0.2219,-0.0956 0.3906,-0.2163 0.506,-0.3652 0.115,-0.1491 0.191,-0.3035 0.233,-0.4665 0.0394,-0.163 0.0592,-0.3147 0.0564,-0.4524 v -0.135 c -1.0145,0.006 -1.8856,-0.1066 -2.6133,-0.3398 -0.7251,-0.2305 -1.2815,-0.5789 -1.6693,-1.0398 -0.3906,-0.4609 -0.5873,-1.0369 -0.5902,-1.7226 0,-0.3147 0.0593,-0.6182 0.1715,-0.9077 0.1126,-0.2922 0.2781,-0.5507 0.5003,-0.7812 0.2191,-0.233 0.4887,-0.4158 0.8093,-0.5479 0.3175,-0.135 0.6854,-0.205 1.0987,-0.2078 0.3597,0.003 0.694,0.0476 1.0004,0.1403 0.3061,0.0955 0.5788,0.2222 0.8203,0.3878 0.2418,0.163 0.4442,0.3515 0.6072,0.5678 h 0.0505 l 0.1516,-0.9105 h 1.8717 c -0.0507,0.2585 -0.0844,0.5564 -0.104,0.8991 -0.0227,0.3402 -0.0309,0.6999 -0.0309,1.0735 z m -2.0234,-2.0401 c 0,-0.076 0,-0.1517 -0.006,-0.2276 -0.005,-0.076 -0.0196,-0.1517 -0.0448,-0.2276 -0.0675,-0.1996 -0.1772,-0.385 -0.326,-0.5565 -0.1491,-0.1686 -0.3345,-0.3061 -0.5564,-0.4102 -0.2192,-0.1068 -0.472,-0.1601 -0.7532,-0.163 -0.222,0 -0.4215,0.0423 -0.5984,0.1265 -0.1772,0.0842 -0.3175,0.2134 -0.4215,0.3878 -0.1041,0.1743 -0.1573,0.3962 -0.1602,0.6658 0.003,0.3093 0.0842,0.5678 0.2415,0.7702 0.1574,0.1993 0.3711,0.3597 0.6409,0.472 0.2696,0.1125 0.576,0.191 0.9159,0.2361 0.343,0.0419 0.6971,0.0618 1.0678,0.0561 v -1.1296 z m 4.2152,-2.8831 h 2.0738 v 4.8387 c 0,0.1211 0.008,0.239 0.0252,0.3543 0.0167,0.1151 0.042,0.2163 0.0757,0.3034 0.0731,0.2109 0.1857,0.4101 0.3345,0.593 0.1488,0.1825 0.3288,0.3316 0.5451,0.4439 0.2165,0.1153 0.4637,0.1743 0.739,0.1771 0.3767,-0.003 0.6772,-0.0955 0.9076,-0.2755 0.2333,-0.1797 0.3991,-0.4243 0.506,-0.7361 0.1038,-0.3119 0.1573,-0.6662 0.1545,-1.0622 v -4.6366 h 2.0738 v 4.8725 c -0.003,0.6463 -0.0898,1.197 -0.2528,1.6469 -0.1659,0.4496 -0.3878,0.8118 -0.669,1.0902 -0.2781,0.2752 -0.5899,0.4748 -0.9357,0.6012 -0.3427,0.1264 -0.6968,0.1882 -1.0593,0.1857 -0.3402,-0.003 -0.652,-0.0451 -0.9357,-0.1321 -0.281,-0.0845 -0.5313,-0.1967 -0.7532,-0.3345 -0.2191,-0.1406 -0.4073,-0.2923 -0.5647,-0.4581 -0.1576,-0.1658 -0.284,-0.3288 -0.3767,-0.4918 h -0.0504 l -0.1012,1.2308 h -1.804 c 0.0167,-0.3512 0.0337,-0.7305 0.0476,-1.1324 0.0113,-0.4045 0.0199,-0.8402 0.0199,-1.3122 z"
         style="fill:#20388a;fill-opacity:1;fill-rule:nonzero;stroke:none"
         id="path24" /><path
         d="m 397.7827,405.0621 v 8.2108 h -2.0738 v -8.2108 z m -1.0287,11.6336 c -0.233,-0.003 -0.4354,-0.0535 -0.6097,-0.1491 -0.1715,-0.0983 -0.309,-0.2332 -0.4045,-0.4016 -0.0984,-0.1715 -0.1463,-0.3626 -0.1491,-0.5791 0.003,-0.205 0.0507,-0.3907 0.1434,-0.559 0.0955,-0.1659 0.2276,-0.3008 0.3991,-0.3992 0.1712,-0.1011 0.3736,-0.1516 0.6041,-0.1544 0.2415,0.003 0.4524,0.0533 0.6293,0.1544 0.1743,0.0984 0.3092,0.2333 0.4048,0.3992 0.0955,0.1683 0.146,0.354 0.146,0.559 -0.005,0.2165 -0.0562,0.4076 -0.1517,0.5791 -0.0955,0.1684 -0.2276,0.3033 -0.3991,0.4016 -0.1712,0.0956 -0.3765,0.1463 -0.6126,0.1491 z m 2.7652,-11.2291 c 0.3064,-0.1712 0.6744,-0.309 1.1016,-0.413 0.4271,-0.1041 0.8937,-0.1573 1.3938,-0.1602 0.7251,0.006 1.3376,0.1154 1.8323,0.3345 0.4943,0.2191 0.8711,0.5227 1.1239,0.9105 0.2529,0.3849 0.3821,0.8317 0.3821,1.3345 -0.006,0.6016 -0.1854,1.1044 -0.5394,1.5064 -0.3541,0.4019 -0.9048,0.7333 -1.6523,0.989 -0.3459,0.1264 -0.6268,0.2446 -0.8374,0.354 -0.2109,0.1097 -0.3625,0.2251 -0.4552,0.3487 -0.0956,0.1236 -0.1435,0.2724 -0.1406,0.4439 0,0.1715 0.045,0.3203 0.1321,0.4524 0.087,0.1321 0.2162,0.2361 0.3877,0.309 0.1715,0.076 0.3793,0.1154 0.6268,0.1154 0.2443,-0.003 0.4748,-0.0281 0.6967,-0.076 0.222,-0.0505 0.4216,-0.1123 0.6013,-0.1826 0.1771,-0.0731 0.3231,-0.1434 0.4385,-0.2137 l 0.4215,1.4502 c -0.2472,0.1375 -0.5621,0.2529 -0.9386,0.3455 -0.3764,0.0927 -0.7954,0.1406 -1.2531,0.1435 -0.478,-0.003 -0.9077,-0.0675 -1.2873,-0.1967 -0.3821,-0.1293 -0.7081,-0.3093 -0.9776,-0.5398 -0.2699,-0.233 -0.478,-0.5028 -0.6211,-0.8149 -0.1434,-0.309 -0.2137,-0.6463 -0.2166,-1.0114 -0.002,-0.326 0.076,-0.6381 0.2305,-0.9357 0.1548,-0.2951 0.3991,-0.5678 0.7308,-0.815 0.3342,-0.2475 0.767,-0.4609 1.2982,-0.6435 0.3342,-0.121 0.6013,-0.2389 0.8008,-0.3512 0.1967,-0.1125 0.3371,-0.2361 0.4244,-0.371 0.0841,-0.1321 0.1264,-0.2923 0.1236,-0.4748 0,-0.1829 -0.0451,-0.343 -0.1378,-0.4805 -0.0927,-0.1378 -0.2359,-0.2475 -0.4326,-0.326 -0.1939,-0.0788 -0.4413,-0.121 -0.7446,-0.121 -0.2503,0.003 -0.5089,0.0337 -0.7702,0.0927 -0.2639,0.062 -0.5114,0.1377 -0.7418,0.2304 -0.2305,0.0902 -0.4244,0.1857 -0.5789,0.2841 z m 7.8738,9.3407 v -1.5344 h -1.1633 v -1.5511 h 1.1633 v -3.8608 c 0,-0.5397 0.0507,-1.0006 0.1573,-1.3827 0.1069,-0.3821 0.2727,-0.6911 0.5003,-0.9272 0.1968,-0.2138 0.444,-0.3765 0.7475,-0.4947 0.3033,-0.1179 0.6492,-0.1769 1.0398,-0.1797 0.3231,0.003 0.6154,0.0224 0.8767,0.0646 0.2611,0.042 0.4692,0.0927 0.6237,0.1545 l -0.0338,1.5681 c -0.1151,-0.0337 -0.233,-0.0564 -0.354,-0.0674 -0.1236,-0.0114 -0.2753,-0.017 -0.4553,-0.017 -0.2613,0 -0.4719,0.0561 -0.6264,0.1686 -0.1573,0.1123 -0.2699,0.2809 -0.3373,0.5057 -0.0675,0.2248 -0.1012,0.506 -0.0984,0.8431 v 3.6249 h 1.9726 v 1.5511 h -1.9726 v 2.1076 z m 4.7208,-1.5344 3.0181,-7.5251 c 0.0419,-0.0984 0.0672,-0.18 0.0813,-0.2447 0.0142,-0.0646 0.0196,-0.1179 0.0196,-0.1573 0,-0.0504 -0.008,-0.1066 -0.0281,-0.1658 -0.0167,-0.0618 -0.0476,-0.1293 -0.0898,-0.2049 -0.1489,-0.2812 -0.3232,-0.5341 -0.5284,-0.7617 -0.205,-0.2276 -0.4102,-0.4045 -0.618,-0.5338 -0.2109,-0.1519 -0.4189,-0.2755 -0.6239,-0.3682 -0.2024,-0.0955 -0.3934,-0.163 -0.5731,-0.2052 l 0.4719,-1.7365 c 0.1715,0.0224 0.3736,0.0703 0.6041,0.1434 0.2333,0.0757 0.4833,0.1854 0.7532,0.3314 0.267,0.1462 0.5394,0.3373 0.8178,0.5706 0.2386,0.2078 0.4691,0.4581 0.691,0.7475 0.222,0.2922 0.4471,0.6434 0.6719,1.0536 0.2219,0.413 0.4552,0.902 0.6995,1.4726 0.2444,0.5675 0.5057,1.2337 0.7869,1.995 l 2.0569,5.5891 h -2.2088 l -1.2813,-4.3753 c -0.0561,-0.1768 -0.1097,-0.3594 -0.1629,-0.5479 -0.0505,-0.1854 -0.1012,-0.3708 -0.146,-0.5508 -0.0479,-0.1825 -0.0902,-0.3483 -0.1296,-0.5 h -0.0504 c -0.0394,0.1517 -0.0842,0.3175 -0.1378,0.4975 -0.0505,0.1825 -0.1066,0.3651 -0.163,0.5505 -0.0561,0.1856 -0.1151,0.3625 -0.1712,0.534 l -1.4669,4.392 z m 14.9383,-6.4236 c -0.2024,-0.0873 -0.4357,-0.163 -0.7052,-0.2248 -0.2671,-0.0618 -0.5789,-0.0927 -0.9304,-0.0955 -0.3566,0 -0.6854,0.059 -0.989,0.1769 -0.3061,0.1154 -0.5703,0.2866 -0.7979,0.5142 -0.2276,0.2248 -0.4048,0.5031 -0.5312,0.832 -0.1265,0.3259 -0.1911,0.7024 -0.1939,1.1239 -0.003,0.3764 0.0507,0.7277 0.163,1.048 0.1125,0.3234 0.2755,0.6043 0.4918,0.8458 0.2163,0.2418 0.4804,0.43 0.7923,0.565 0.3149,0.1349 0.6689,0.2024 1.0649,0.2052 0.3683,-0.003 0.6801,-0.0337 0.936,-0.0955 0.2557,-0.0621 0.4663,-0.1378 0.6322,-0.2251 l 0.371,1.5681 c -0.1601,0.0675 -0.3458,0.1293 -0.5621,0.1854 -0.2134,0.0564 -0.4439,0.1012 -0.6914,0.1349 -0.2471,0.0338 -0.4972,0.0508 -0.7528,0.0508 -0.7223,-0.003 -1.3658,-0.1154 -1.9307,-0.3373 -0.5647,-0.2192 -1.0426,-0.5284 -1.4358,-0.9219 -0.3906,-0.396 -0.6885,-0.8597 -0.8937,-1.3881 -0.205,-0.5281 -0.3062,-1.1015 -0.309,-1.7198 0.003,-0.6378 0.1012,-1.2138 0.3005,-1.7308 0.1995,-0.5142 0.4836,-0.9556 0.8543,-1.3235 0.3711,-0.3682 0.815,-0.6491 1.3349,-0.8459 0.5198,-0.1967 1.0987,-0.295 1.7421,-0.2979 0.3456,0.003 0.6659,0.0227 0.9638,0.0646 0.2979,0.0423 0.5621,0.0927 0.7926,0.1574 0.2333,0.0646 0.4215,0.1321 0.5703,0.1995 z m 1.0454,-1.7872 h 6.9126 v 1.6523 h -4.3163 v 0.0337 c 0.2109,0.2191 0.4133,0.4468 0.6126,0.6801 0.1995,0.2361 0.3991,0.4748 0.6015,0.7194 l 3.001,3.8608 v 1.2645 h -6.508 v -1.6523 h 3.9789 v -0.0337 c -0.2077,-0.233 -0.4073,-0.4578 -0.5984,-0.6772 -0.191,-0.222 -0.3906,-0.4553 -0.5986,-0.7053 l -3.0853,-3.9453 z m 8.3628,0 h 2.0738 v 4.8387 c 0,0.1211 0.008,0.239 0.0253,0.3543 0.0167,0.1151 0.0419,0.2163 0.0757,0.3034 0.0731,0.2109 0.1856,0.4101 0.3344,0.593 0.1489,0.1825 0.3289,0.3316 0.5451,0.4439 0.2166,0.1153 0.4638,0.1743 0.739,0.1771 0.3768,-0.003 0.6772,-0.0955 0.9077,-0.2755 0.2333,-0.1797 0.3991,-0.4243 0.506,-0.7361 0.1037,-0.3119 0.1573,-0.6662 0.1545,-1.0622 v -4.6366 h 2.0738 v 4.8725 c -0.003,0.6463 -0.0899,1.197 -0.2529,1.6469 -0.1658,0.4496 -0.3877,0.8118 -0.6689,1.0902 -0.2781,0.2752 -0.5899,0.4748 -0.9358,0.6012 -0.3427,0.1264 -0.6967,0.1882 -1.0593,0.1857 -0.3401,-0.003 -0.6519,-0.0451 -0.9357,-0.1321 -0.2809,-0.0845 -0.5312,-0.1967 -0.7531,-0.3345 -0.2192,-0.1406 -0.4074,-0.2923 -0.5647,-0.4581 -0.1576,-0.1658 -0.284,-0.3288 -0.3767,-0.4918 h -0.0505 l -0.1012,1.2308 h -1.8039 c 0.0167,-0.3512 0.0337,-0.7305 0.0476,-1.1324 0.0113,-0.4045 0.0198,-0.8402 0.0198,-1.3122 z m 16.0172,4.9232 c 0.003,0.4552 -0.0508,0.8906 -0.1602,1.3039 -0.1097,0.413 -0.2922,0.7838 -0.5479,1.1098 -0.256,0.326 -0.6044,0.5817 -1.0426,0.7699 -0.4385,0.1885 -0.9836,0.2868 -1.6384,0.2897 -0.4326,-0.003 -0.8374,-0.0366 -1.211,-0.1069 -0.3739,-0.0674 -0.7081,-0.1545 -1.006,-0.2642 -0.2951,-0.1097 -0.5451,-0.2276 -0.7503,-0.354 l 0.4048,-1.3487 c 0.1882,0.1179 0.4016,0.2247 0.6406,0.3146 0.2387,0.0899 0.4918,0.163 0.7585,0.2135 0.2671,0.0507 0.5369,0.0788 0.8093,0.0788 0.3597,-0.003 0.652,-0.0533 0.874,-0.1491 0.2219,-0.0956 0.3906,-0.2163 0.5059,-0.3652 0.1151,-0.1491 0.1911,-0.3035 0.233,-0.4665 0.0394,-0.163 0.0593,-0.3147 0.0565,-0.4524 v -0.135 c -1.0146,0.006 -1.8857,-0.1066 -2.6133,-0.3398 -0.7251,-0.2305 -1.2815,-0.5789 -1.6693,-1.0398 -0.3906,-0.4609 -0.5874,-1.0369 -0.5902,-1.7226 0,-0.3147 0.0592,-0.6182 0.1715,-0.9077 0.1125,-0.2922 0.2781,-0.5507 0.5003,-0.7812 0.2191,-0.233 0.4887,-0.4158 0.8093,-0.5479 0.3175,-0.135 0.6854,-0.205 1.0987,-0.2078 0.3597,0.003 0.6939,0.0476 1.0004,0.1403 0.3061,0.0955 0.5788,0.2222 0.8203,0.3878 0.2418,0.163 0.4442,0.3515 0.6072,0.5678 h 0.0504 l 0.1517,-0.9105 h 1.8717 c -0.0507,0.2585 -0.0845,0.5564 -0.104,0.8991 -0.0227,0.3402 -0.0309,0.6999 -0.0309,1.0735 z m -2.0234,-2.0401 c 0,-0.076 0,-0.1517 -0.006,-0.2276 -0.005,-0.076 -0.0195,-0.1517 -0.0447,-0.2276 -0.0675,-0.1996 -0.1772,-0.385 -0.326,-0.5565 -0.1491,-0.1686 -0.3345,-0.3061 -0.5565,-0.4102 -0.2191,-0.1068 -0.4719,-0.1601 -0.7531,-0.163 -0.222,0 -0.4215,0.0423 -0.5984,0.1265 -0.1772,0.0842 -0.3175,0.2134 -0.4215,0.3878 -0.1041,0.1743 -0.1574,0.3962 -0.1602,0.6658 0.003,0.3093 0.0842,0.5678 0.2415,0.7702 0.1573,0.1993 0.3711,0.3597 0.6409,0.472 0.2696,0.1125 0.576,0.191 0.9159,0.2361 0.343,0.0419 0.697,0.0618 1.0678,0.0561 v -1.1296 z m -196.3539,-17.3543 2.4279,-8.2108 h 1.9389 l 1.0451,3.3384 c 0.1182,0.4016 0.2276,0.8149 0.3316,1.2393 0.1012,0.4269 0.1996,0.8906 0.2923,1.3909 h 0.0337 c 0.0618,-0.3288 0.1236,-0.6409 0.1883,-0.9331 0.0646,-0.2923 0.132,-0.576 0.2023,-0.8541 0.0732,-0.2784 0.1489,-0.5593 0.2333,-0.843 l 0.978,-3.3384 h 1.9219 l 2.5798,8.2108 h -2.0401 l -0.9105,-3.6416 c -0.1097,-0.4777 -0.2137,-0.9443 -0.3064,-1.3995 -0.0955,-0.4552 -0.1715,-0.9048 -0.2333,-1.3487 h -0.0337 c -0.0927,0.4439 -0.1939,0.8935 -0.3033,1.3487 -0.1097,0.4552 -0.2277,0.9218 -0.3541,1.3995 l -1.0284,3.6416 h -1.6861 l -1.0791,-3.7428 c -0.1125,-0.4244 -0.2276,-0.8572 -0.3484,-1.304 -0.1182,-0.4467 -0.2219,-0.8935 -0.3092,-1.343 h -0.0338 c -0.0757,0.4467 -0.1601,0.8935 -0.25,1.3374 -0.0927,0.447 -0.1882,0.8881 -0.2894,1.3263 l -0.843,3.7261 z m 17.0793,-8.1771 c 0.2699,-0.0365 0.6182,-0.0703 1.0454,-0.1012 0.4272,-0.0309 0.9272,-0.0476 1.5004,-0.0504 0.697,0 1.3124,0.0391 1.8462,0.1179 0.5369,0.0788 1.0003,0.1939 1.3938,0.3484 0.3934,0.1545 0.7251,0.3484 0.9921,0.5788 0.2163,0.1857 0.4045,0.3963 0.5647,0.6353 0.1601,0.2358 0.2866,0.5 0.3764,0.7866 0.0902,0.2894 0.1378,0.6015 0.1378,0.9385 -0.003,0.3878 -0.0646,0.7393 -0.1911,1.0483 -0.1236,0.3118 -0.2922,0.5845 -0.5057,0.8206 -0.2137,0.233 -0.4581,0.4269 -0.7336,0.5845 -0.2724,0.1545 -0.559,0.2696 -0.8626,0.3455 v 0.0505 c 0.4102,0.1548 0.756,0.3569 1.037,0.6043 0.2809,0.2472 0.4918,0.5281 0.6349,0.8431 0.1434,0.3146 0.2166,0.6463 0.2166,0.9975 0,0.326 -0.0508,0.6264 -0.1491,0.8963 -0.0984,0.2699 -0.233,0.5114 -0.4102,0.7194 -0.1772,0.2106 -0.3821,0.385 -0.6211,0.5256 -0.25,0.174 -0.5309,0.3146 -0.8402,0.4215 -0.3061,0.1066 -0.6576,0.1825 -1.0508,0.233 -0.3934,0.0479 -0.843,0.0703 -1.3461,0.0703 -0.3963,0 -0.7841,-0.0111 -1.1662,-0.0366 -0.3793,-0.0224 -0.7305,-0.0533 -1.0508,-0.0898 -0.3232,-0.0394 -0.5959,-0.0814 -0.8178,-0.1265 z m 2.0568,9.7957 c 0.1069,0.0252 0.256,0.0479 0.4442,0.0618 0.1911,0.0142 0.4354,0.0227 0.7362,0.0227 0.441,0 0.8178,-0.0536 1.1352,-0.1658 0.3175,-0.1126 0.5593,-0.2838 0.7305,-0.5171 0.1715,-0.2304 0.2557,-0.5255 0.2585,-0.8852 0,-0.3232 -0.087,-0.6069 -0.2585,-0.8516 -0.1712,-0.2443 -0.4243,-0.4354 -0.7585,-0.5731 -0.3317,-0.1378 -0.7419,-0.2078 -1.2252,-0.2106 h -1.0624 z m 0,-4.6196 h 1.0287 c 0.3597,0 0.6968,-0.0337 1.0114,-0.104 0.3121,-0.0703 0.5873,-0.1826 0.8235,-0.3317 0.2389,-0.1516 0.4243,-0.3427 0.5564,-0.5817 0.1349,-0.2358 0.2024,-0.5224 0.205,-0.854 -0.003,-0.3484 -0.0729,-0.6435 -0.2078,-0.8853 -0.1349,-0.2415 -0.3203,-0.4354 -0.5565,-0.5845 -0.2361,-0.146 -0.5057,-0.2529 -0.8064,-0.3203 -0.3036,-0.0675 -0.6211,-0.0984 -0.9581,-0.0984 -0.2362,0 -0.4442,0 -0.6239,0.006 -0.18,0.006 -0.3374,0.0195 -0.4723,0.0451 v 3.7091 z m 9.6443,-5.2098 v 8.2108 h -2.0738 v -8.2108 z m -1.0287,11.6337 c -0.233,-0.003 -0.4354,-0.0536 -0.6097,-0.1491 -0.1715,-0.0984 -0.309,-0.2333 -0.4045,-0.4017 -0.0984,-0.1715 -0.1463,-0.3626 -0.1491,-0.5791 0.003,-0.205 0.0507,-0.3906 0.1434,-0.559 0.0956,-0.1658 0.2277,-0.3008 0.3991,-0.3991 0.1713,-0.1012 0.3737,-0.1517 0.6041,-0.1545 0.2415,0.003 0.4524,0.0533 0.6293,0.1545 0.1743,0.0983 0.3093,0.2333 0.4048,0.3991 0.0955,0.1684 0.146,0.354 0.146,0.559 -0.005,0.2165 -0.0562,0.4076 -0.1517,0.5791 -0.0955,0.1684 -0.2276,0.3033 -0.3991,0.4017 -0.1712,0.0955 -0.3764,0.1462 -0.6126,0.1491 z m 10.2342,-8.11 c 0.017,0.0927 0.0338,0.2138 0.0479,0.3626 0.0114,0.1488 0.0196,0.3203 0.0196,0.5142 0,0.3654 -0.0366,0.7333 -0.1122,1.1072 -0.076,0.3765 -0.1996,0.7362 -0.3654,1.0789 -0.1687,0.343 -0.3906,0.6519 -0.6659,0.9218 -0.2755,0.2727 -0.6097,0.489 -1.006,0.6463 -0.3963,0.1573 -0.86,0.239 -1.391,0.2418 -0.5255,-0.003 -1.0031,-0.0816 -1.4275,-0.2418 -0.4243,-0.1573 -0.7979,-0.3764 -1.1211,-0.6576 -0.3231,-0.2809 -0.593,-0.6069 -0.8093,-0.9805 -0.2166,-0.3711 -0.3795,-0.7728 -0.489,-1.2028 -0.1097,-0.4328 -0.1658,-0.8767 -0.1658,-1.3348 0.003,-0.843 0.1712,-1.5735 0.5057,-2.1918 0.3345,-0.6182 0.815,-1.0987 1.4445,-1.4388 0.6293,-0.3399 1.391,-0.5114 2.2817,-0.5171 0.593,0.003 1.1296,0.0536 1.61,0.1491 0.4833,0.0956 0.902,0.2192 1.2561,0.3736 l -0.3033,1.4162 c -0.2109,-0.0728 -0.4329,-0.1374 -0.6605,-0.1939 -0.2305,-0.0561 -0.4748,-0.0983 -0.7418,-0.1292 -0.2642,-0.0309 -0.5537,-0.0476 -0.874,-0.0476 -0.3345,0 -0.6519,0.0394 -0.9499,0.1235 -0.2976,0.0814 -0.5618,0.2107 -0.7951,0.3822 -0.2333,0.1715 -0.4158,0.3934 -0.5536,0.6604 -0.1377,0.2696 -0.2163,0.5874 -0.2304,0.9581 z m -5.4963,1.45 c 0.0198,0.2137 0.0703,0.4385 0.1519,0.6689 0.0842,0.233 0.1993,0.4496 0.3512,0.6517 0.1517,0.1996 0.3456,0.3654 0.576,0.4918 0.2305,0.1265 0.5057,0.1911 0.826,0.1939 0.343,-0.003 0.6268,-0.0728 0.8516,-0.2049 0.2247,-0.1349 0.3991,-0.3064 0.5255,-0.5142 0.1264,-0.2081 0.2134,-0.4244 0.2614,-0.652 0.0504,-0.2304 0.0703,-0.4413 0.0646,-0.6352 z m 7.2331,-4.9737 h 2.0739 v 11.9877 h -2.0739 z m 3.8271,0.4045 c 0.3064,-0.1712 0.6743,-0.309 1.1015,-0.413 0.4272,-0.104 0.8938,-0.1573 1.3938,-0.1602 0.7251,0.006 1.3377,0.1154 1.8323,0.3345 0.4944,0.2191 0.8711,0.5227 1.124,0.9105 0.2528,0.385 0.3821,0.8317 0.3821,1.3346 -0.006,0.6015 -0.1854,1.1043 -0.5394,1.5063 -0.3541,0.4019 -0.9049,0.7333 -1.6524,0.989 -0.3458,0.1264 -0.6267,0.2446 -0.8373,0.354 -0.2109,0.1097 -0.3626,0.2251 -0.4553,0.3487 -0.0955,0.1236 -0.1434,0.2724 -0.1406,0.4439 0,0.1715 0.0451,0.3203 0.1321,0.4524 0.0871,0.1321 0.2163,0.2361 0.3878,0.309 0.1715,0.076 0.3793,0.1154 0.6268,0.1154 0.2443,-0.003 0.4748,-0.0281 0.6967,-0.076 0.222,-0.0505 0.4215,-0.1123 0.6012,-0.1826 0.1772,-0.0731 0.3232,-0.1434 0.4386,-0.2137 l 0.4215,1.4502 c -0.2472,0.1375 -0.5621,0.2529 -0.9386,0.3456 -0.3764,0.0927 -0.7954,0.1406 -1.2532,0.1434 -0.4779,-0.003 -0.9076,-0.0675 -1.2872,-0.1967 -0.3821,-0.1293 -0.7081,-0.3093 -0.9777,-0.5397 -0.2698,-0.2331 -0.4779,-0.5029 -0.621,-0.815 -0.1435,-0.309 -0.2138,-0.6463 -0.2166,-1.0114 -0.002,-0.326 0.076,-0.6381 0.2305,-0.9357 0.1547,-0.2951 0.3991,-0.5678 0.7307,-0.815 0.3342,-0.2474 0.7671,-0.4609 1.2983,-0.6434 0.3342,-0.1211 0.6012,-0.239 0.8008,-0.3513 0.1967,-0.1125 0.337,-0.2361 0.4243,-0.371 0.0842,-0.1321 0.1265,-0.2923 0.1236,-0.4748 0,-0.1829 -0.045,-0.343 -0.1377,-0.4805 -0.0927,-0.1378 -0.2359,-0.2475 -0.4326,-0.326 -0.1939,-0.0788 -0.4414,-0.121 -0.7447,-0.121 -0.2503,0.003 -0.5088,0.0337 -0.7701,0.0927 -0.2639,0.0621 -0.5114,0.1377 -0.7419,0.2304 -0.2304,0.0902 -0.4243,0.1857 -0.5788,0.2841 z m 9.6106,11.5832 h -2.0739 v -11.9877 h 2.0739 v 2.7989 l 0.6911,0.826 2.3604,-3.6249 h 2.546 l -3.4732,4.8557 3.0517,3.3551 h -2.4953 l -2.0064,-2.647 c -0.104,-0.1459 -0.2109,-0.3007 -0.3203,-0.4665 -0.1125,-0.1684 -0.2194,-0.3314 -0.3206,-0.4944 h -0.0334 z m 13.8588,-3.7769 h -2.0735 v -4.9569 c 0,-0.1208 -0.009,-0.2359 -0.0284,-0.3456 -0.0167,-0.1122 -0.0476,-0.2106 -0.0898,-0.295 -0.0675,-0.1826 -0.1715,-0.3598 -0.3118,-0.5281 -0.1435,-0.1687 -0.3203,-0.3065 -0.5312,-0.4162 -0.2135,-0.1094 -0.461,-0.1655 -0.7419,-0.1683 -0.3625,0.003 -0.6576,0.0955 -0.8849,0.278 -0.2251,0.1826 -0.3907,0.4411 -0.4947,0.7756 -0.104,0.3345 -0.1573,0.7305 -0.1545,1.1886 v 4.4679 h -2.0738 v -4.822 c 0.003,-0.6687 0.0814,-1.2308 0.2358,-1.6889 0.1548,-0.4578 0.3654,-0.826 0.6324,-1.1041 0.2671,-0.2755 0.5704,-0.475 0.9105,-0.5986 0.3399,-0.1236 0.6968,-0.1854 1.0707,-0.1826 0.3708,0.003 0.6996,0.0505 0.989,0.1403 0.2894,0.0902 0.5423,0.2081 0.7588,0.3541 0.2163,0.1434 0.396,0.2951 0.5451,0.458 0.1488,0.163 0.2671,0.3175 0.3541,0.4638 h 0.0504 l 0.1012,-1.2308 h 1.804 c -0.0167,0.3373 -0.0337,0.7081 -0.0448,1.1183 -0.0142,0.4076 -0.0227,0.8543 -0.0227,1.3433 z m 1.6356,-3.001 v -1.4332 h 4.2996 v 1.4332 z m 6.0024,-5.1761 c 0.2698,-0.0365 0.6182,-0.0703 1.0454,-0.1012 0.4272,-0.0309 0.9272,-0.0476 1.5004,-0.0504 0.697,0 1.3124,0.0391 1.8462,0.1179 0.5369,0.0788 1.0003,0.1939 1.3938,0.3484 0.3934,0.1545 0.7251,0.3484 0.9921,0.5788 0.2163,0.1857 0.4045,0.3963 0.5647,0.6353 0.1601,0.2358 0.2866,0.5 0.3764,0.7866 0.0902,0.2894 0.1378,0.6015 0.1378,0.9385 -0.003,0.3878 -0.0647,0.7393 -0.1911,1.0483 -0.1236,0.3118 -0.2922,0.5845 -0.5057,0.8206 -0.2137,0.233 -0.4581,0.4269 -0.7336,0.5845 -0.2724,0.1545 -0.559,0.2696 -0.8626,0.3455 v 0.0505 c 0.4102,0.1548 0.756,0.3569 1.0369,0.6043 0.281,0.2472 0.4919,0.5281 0.635,0.8431 0.1434,0.3146 0.2166,0.6463 0.2166,0.9975 0,0.326 -0.0508,0.6264 -0.1491,0.8963 -0.0984,0.2699 -0.233,0.5114 -0.4102,0.7194 -0.1772,0.2106 -0.3821,0.385 -0.6211,0.5256 -0.25,0.174 -0.5309,0.3146 -0.8402,0.4215 -0.3061,0.1066 -0.6576,0.1825 -1.0508,0.233 -0.3934,0.0479 -0.843,0.0703 -1.3461,0.0703 -0.3963,0 -0.7841,-0.0111 -1.1662,-0.0366 -0.3793,-0.0224 -0.7305,-0.0533 -1.0508,-0.0898 -0.3232,-0.0394 -0.5959,-0.0814 -0.8178,-0.1265 z m 2.0568,9.7957 c 0.1069,0.0252 0.256,0.0479 0.4442,0.0618 0.191,0.0142 0.4354,0.0227 0.7362,0.0227 0.441,0 0.8177,-0.0536 1.1352,-0.1658 0.3175,-0.1126 0.5593,-0.2838 0.7305,-0.5171 0.1715,-0.2304 0.2557,-0.5255 0.2585,-0.8852 0,-0.3232 -0.087,-0.6069 -0.2585,-0.8516 -0.1712,-0.2443 -0.4243,-0.4354 -0.7585,-0.5731 -0.3317,-0.1378 -0.7419,-0.2078 -1.2252,-0.2106 h -1.0624 z m 0,-4.6196 h 1.0287 c 0.3597,0 0.6968,-0.0337 1.0114,-0.104 0.3121,-0.0703 0.5873,-0.1826 0.8235,-0.3317 0.2389,-0.1516 0.4243,-0.3427 0.5564,-0.5817 0.1349,-0.2358 0.2024,-0.5224 0.2049,-0.854 -0.002,-0.3484 -0.0728,-0.6435 -0.2077,-0.8853 -0.135,-0.2415 -0.3203,-0.4354 -0.5565,-0.5845 -0.2361,-0.146 -0.5057,-0.2529 -0.8064,-0.3203 -0.3036,-0.0675 -0.6211,-0.0984 -0.9581,-0.0984 -0.2362,0 -0.4442,0 -0.6239,0.006 -0.18,0.006 -0.3374,0.0195 -0.4723,0.0451 v 3.7091 z m 9.6443,-5.2098 v 8.2108 h -2.0738 v -8.2108 z m -1.0287,11.6337 c -0.233,-0.003 -0.4354,-0.0536 -0.6097,-0.1491 -0.1715,-0.0984 -0.309,-0.2333 -0.4045,-0.4017 -0.0984,-0.1715 -0.1463,-0.3626 -0.1491,-0.5791 0.003,-0.205 0.0507,-0.3906 0.1434,-0.559 0.0955,-0.1658 0.2276,-0.3008 0.3991,-0.3991 0.1713,-0.1012 0.3736,-0.1517 0.6041,-0.1545 0.2415,0.003 0.4524,0.0533 0.6293,0.1545 0.1743,0.0983 0.3093,0.2333 0.4048,0.3991 0.0955,0.1684 0.146,0.354 0.146,0.559 -0.005,0.2165 -0.0562,0.4076 -0.1517,0.5791 -0.0955,0.1684 -0.2276,0.3033 -0.3991,0.4017 -0.1712,0.0955 -0.3764,0.1462 -0.6126,0.1491 z m 9.6443,-6.7105 c 0.003,0.4553 -0.0507,0.8907 -0.1601,1.3039 -0.1097,0.4131 -0.2923,0.7838 -0.548,1.1098 -0.2559,0.326 -0.6043,0.5817 -1.0425,0.7699 -0.4386,0.1885 -0.9837,0.2869 -1.6385,0.2897 -0.4325,-0.003 -0.8373,-0.0366 -1.2109,-0.1069 -0.3739,-0.0674 -0.7081,-0.1545 -1.006,-0.2642 -0.2951,-0.1097 -0.5451,-0.2276 -0.7504,-0.354 l 0.4048,-1.3487 c 0.1882,0.1179 0.4017,0.2248 0.6406,0.3146 0.2387,0.0899 0.4919,0.163 0.7586,0.2135 0.267,0.0507 0.5369,0.0788 0.8093,0.0788 0.3597,-0.003 0.652,-0.0533 0.8739,-0.1491 0.222,-0.0956 0.3906,-0.2163 0.506,-0.3651 0.1151,-0.1491 0.1911,-0.3036 0.233,-0.4666 0.0394,-0.163 0.0592,-0.3147 0.0564,-0.4524 v -0.135 c -1.0145,0.006 -1.8856,-0.1065 -2.6132,-0.3398 -0.7251,-0.2305 -1.2816,-0.5789 -1.6694,-1.0398 -0.3906,-0.4609 -0.5873,-1.0369 -0.5901,-1.7226 0,-0.3146 0.0592,-0.6182 0.1715,-0.9076 0.1125,-0.2923 0.278,-0.5508 0.5003,-0.7813 0.2191,-0.233 0.4887,-0.4158 0.8093,-0.5479 0.3174,-0.1349 0.6854,-0.205 1.0987,-0.2078 0.3597,0.003 0.6939,0.0476 1.0003,0.1403 0.3062,0.0956 0.5789,0.2223 0.8204,0.3878 0.2418,0.163 0.4442,0.3515 0.6071,0.5678 h 0.0505 l 0.1517,-0.9105 h 1.8717 c -0.0508,0.2585 -0.0845,0.5564 -0.1041,0.8991 -0.0226,0.3402 -0.0309,0.6999 -0.0309,1.0735 z m -2.0233,-2.0401 c 0,-0.076 0,-0.1516 -0.006,-0.2276 -0.005,-0.076 -0.0196,-0.1517 -0.0448,-0.2276 -0.0674,-0.1996 -0.1772,-0.385 -0.326,-0.5565 -0.1491,-0.1686 -0.3345,-0.3061 -0.5564,-0.4101 -0.2191,-0.1069 -0.472,-0.1602 -0.7532,-0.163 -0.2219,0 -0.4215,0.0422 -0.5984,0.1264 -0.1771,0.0842 -0.3174,0.2134 -0.4215,0.3878 -0.104,0.1743 -0.1573,0.3963 -0.1601,0.6658 0.003,0.3093 0.0842,0.5678 0.2415,0.7702 0.1573,0.1993 0.371,0.3597 0.6409,0.472 0.2696,0.1125 0.576,0.191 0.9159,0.2361 0.343,0.0419 0.697,0.0618 1.0678,0.0561 v -1.1296 z m 6.3898,-2.8831 v 5.8674 l 1.1971,0.9777 v 1.5514 l -1.1971,-0.995 v 4.5862 h -2.0738 v -6.1373 l -1.1126,-0.9272 v -1.5344 l 1.1126,0.9275 v -4.3163 z m 9.29,3.5237 c 0.017,0.0927 0.0337,0.2138 0.0479,0.3626 0.0114,0.1488 0.0196,0.3203 0.0196,0.5142 0,0.3654 -0.0366,0.7333 -0.1123,1.1072 -0.0759,0.3765 -0.1995,0.7362 -0.3654,1.0789 -0.1686,0.343 -0.3906,0.6519 -0.6658,0.9218 -0.2755,0.2727 -0.6097,0.489 -1.006,0.6463 -0.3963,0.1573 -0.8601,0.239 -1.391,0.2418 -0.5255,-0.003 -1.0032,-0.0816 -1.4275,-0.2418 -0.4244,-0.1573 -0.798,-0.3764 -1.1211,-0.6576 -0.3232,-0.2809 -0.593,-0.6069 -0.8093,-0.9805 -0.2166,-0.3711 -0.3796,-0.7728 -0.489,-1.2028 -0.1097,-0.4328 -0.1658,-0.8767 -0.1658,-1.3348 0.003,-0.843 0.1712,-1.5735 0.5057,-2.1918 0.3345,-0.6182 0.8149,-1.0987 1.4445,-1.4388 0.6293,-0.3399 1.391,-0.5114 2.2816,-0.5171 0.593,0.003 1.1296,0.0536 1.6101,0.1491 0.4833,0.0956 0.902,0.2192 1.256,0.3736 l -0.3033,1.4162 c -0.2109,-0.0728 -0.4328,-0.1374 -0.6604,-0.1939 -0.2305,-0.0561 -0.4748,-0.0983 -0.7419,-0.1292 -0.2642,-0.0309 -0.5536,-0.0476 -0.8739,-0.0476 -0.3345,0 -0.652,0.0394 -0.9499,0.1235 -0.2976,0.0814 -0.5618,0.2107 -0.7951,0.3822 -0.2333,0.1715 -0.4158,0.3934 -0.5536,0.6604 -0.1378,0.2696 -0.2163,0.5874 -0.2305,0.9581 z m -5.4964,1.45 c 0.0199,0.2137 0.0703,0.4385 0.152,0.6689 0.0842,0.233 0.1992,0.4496 0.3512,0.6517 0.1516,0.1996 0.3455,0.3654 0.576,0.4918 0.2304,0.1265 0.5057,0.1911 0.826,0.1939 0.343,-0.003 0.6267,-0.0728 0.8515,-0.2049 0.2248,-0.1349 0.3991,-0.3064 0.5256,-0.5142 0.1264,-0.2081 0.2134,-0.4244 0.2613,-0.652 0.0505,-0.2304 0.0703,-0.4413 0.0647,-0.6352 z m 5.6146,-8.5649 c 0.3456,0 0.6968,0.0337 1.048,0.0983 0.3512,0.0675 0.6857,0.1715 1.0003,0.3147 0.3178,0.1406 0.5959,0.3231 0.8348,0.5479 0.2472,0.2447 0.4496,0.5312 0.6098,0.8601 0.1601,0.3288 0.278,0.7109 0.354,1.1463 0.0757,0.4357 0.1151,0.9357 0.1151,1.5007 v 7.334 h -2.0738 v -6.7439 c 0,-0.4442 -0.008,-0.8234 -0.0309,-1.1409 -0.0196,-0.3147 -0.0505,-0.5817 -0.0927,-0.7951 -0.0423,-0.2166 -0.0984,-0.3963 -0.1687,-0.5426 -0.0674,-0.1431 -0.1516,-0.2667 -0.2472,-0.3708 -0.1686,-0.1771 -0.3849,-0.3121 -0.6491,-0.4104 -0.2613,-0.0955 -0.5621,-0.1545 -0.902,-0.1797 z m 2.9503,15.2249 c -0.2358,-0.003 -0.4439,-0.0536 -0.6208,-0.1491 -0.1771,-0.0984 -0.3121,-0.2333 -0.4104,-0.4017 -0.0984,-0.1715 -0.146,-0.3626 -0.1488,-0.5791 0,-0.205 0.0476,-0.3906 0.1406,-0.559 0.0926,-0.1658 0.2219,-0.3008 0.3931,-0.3991 0.1715,-0.1012 0.3767,-0.1517 0.6126,-0.1545 0.2475,0.003 0.4609,0.0533 0.6352,0.1545 0.1769,0.0983 0.3118,0.2333 0.4045,0.3991 0.093,0.1684 0.1406,0.354 0.1406,0.559 -0.006,0.2165 -0.0561,0.4076 -0.1516,0.5791 -0.0927,0.1684 -0.2248,0.3033 -0.3935,0.4017 -0.1686,0.0955 -0.371,0.1462 -0.6015,0.1491"
         style="fill:#20388a;fill-opacity:1;fill-rule:nonzero;stroke:none"
         id="path26" /><path
         d="M 227.1696,414.142 V 402.643 H 214.772 v 11.499 h -6.3768 v -31.2644 h 6.3768 v 13.9646 h 12.3976 v -13.9646 h 6.3749 v 31.2644 z"
         style="fill:#20388b;fill-opacity:1;fill-rule:nonzero;stroke:none"
         id="path28" /><path
         d="m 205.3647,402.5356 h -21.7556 v -5.8057 h 7.5741 v -23.2832 h 6.5909 v 23.2832 h 7.5906 z"
         style="fill:#20388b;fill-opacity:1;fill-rule:nonzero;stroke:none"
         id="path30" /><path
         d="m 180.1911,398.5396 c 2.2909,10.7226 7.4364,19.7441 14.6055,27.5159 -10.296,10.0828 -24.3927,13.7372 -39.9444,13.7372 -1.8301,0 -3.6437,-0.0844 -5.4318,-0.2545 1.7481,0.1559 4.6865,0.6236 6.4738,0.75 9.4461,0.663 20.3388,0.1262 28.3124,-3.7737 9.2021,7.7944 18.1534,12.761 31.1562,12.761 8.7638,0 17.0294,-2.1371 24.3017,-5.9154 0.1525,-0.0754 0.1437,-3.5713 -0.0105,-3.4877 l -0.635,-0.0797 c -27.1825,0 -53.1278,-15.7989 -58.8279,-41.2531 z m 16.7402,29.7218 v 0 c 0,0 14.2226,12.9452 36.9278,14.3867 -5.718,2.2906 -11.9622,3.5538 -18.4963,3.5538 -11.7967,0 -22.6307,-2.8256 -31.1562,-9.6874 4.5692,-2.0909 8.9385,-4.5431 12.7247,-8.2531"
         style="fill:#20388b;fill-opacity:1;fill-rule:nonzero;stroke:none"
         id="path32" /><path
         d="m 171.6792,420.6747 h -6.7315 l -12.2215,-31.3735 h 6.7393 l 2.6142,7.4072 h 12.6289 l 2.7207,-7.4072 h 6.8612 z m -7.6629,-18.1644 v 0 l 4.248,11.1748 4.3789,-11.1748 z"
         style="fill:#20388b;fill-opacity:1;fill-rule:nonzero;stroke:none"
         id="path34" /><path
         d="m 148.5045,460.9174 h 92.6363 v -94.0536 h -94.0536 v 94.0536 z m 89.8016,-2.8347 h -88.3842 v -88.3842 h 88.3842 z"
         style="fill:#20388b;fill-opacity:1;fill-rule:nonzero;stroke:none"
         id="path48" /></g></g></svg>
