<?xml version="1.0" encoding="UTF-8" standalone="no"?><!DOCTYPE svg PUBLIC "-//W3C//DTD SVG 1.1//EN" "http://www.w3.org/Graphics/SVG/1.1/DTD/svg11.dtd"><svg width="100%" height="100%" viewBox="0 0 182 58" version="1.1" xmlns="http://www.w3.org/2000/svg" xmlns:xlink="http://www.w3.org/1999/xlink" xml:space="preserve" xmlns:serif="http://www.serif.com/" style="fill-rule:evenodd;clip-rule:evenodd;stroke-miterlimit:22.9256;"><g><path d="M67.82,16.162l0.609,1.905l1.327,0l-2.184,-6.721l-1.566,0l-2.154,6.721l1.266,0l0.579,-1.905l2.123,0Zm-1.924,-0.927l0.518,-1.656c0.036,-0.135 0.074,-0.272 0.11,-0.417c0.037,-0.143 0.072,-0.287 0.106,-0.428c0.035,-0.144 0.07,-0.282 0.103,-0.411l0.02,0c0.051,0.196 0.104,0.404 0.159,0.62c0.056,0.217 0.116,0.428 0.18,0.636l0.529,1.656l-1.725,0Zm5.924,-4.259l-1.227,0l0,7.091l1.227,0l0,-1.656l0.409,-0.488l1.396,2.144l1.505,0l-2.054,-2.872l1.805,-1.984l-1.476,0l-1.187,1.565c-0.061,0.086 -0.125,0.178 -0.189,0.276c-0.067,0.099 -0.129,0.196 -0.189,0.292l-0.02,0l0,-4.368Zm7.728,4.179c0.002,-0.269 -0.03,-0.527 -0.095,-0.772c-0.065,-0.244 -0.173,-0.463 -0.324,-0.656c-0.151,-0.192 -0.357,-0.344 -0.616,-0.455c-0.26,-0.112 -0.583,-0.17 -0.969,-0.172c-0.256,0.002 -0.496,0.022 -0.716,0.063c-0.222,0.041 -0.42,0.092 -0.596,0.157c-0.175,0.064 -0.323,0.135 -0.444,0.21l0.24,0.797c0.112,-0.069 0.237,-0.133 0.378,-0.185c0.142,-0.055 0.292,-0.098 0.45,-0.127c0.157,-0.031 0.317,-0.047 0.478,-0.047c0.212,0.002 0.386,0.031 0.516,0.088c0.132,0.056 0.232,0.128 0.3,0.216c0.068,0.088 0.114,0.18 0.138,0.276c0.024,0.096 0.034,0.187 0.033,0.267l0,0.081c-0.6,-0.004 -1.115,0.063 -1.545,0.2c-0.43,0.136 -0.758,0.343 -0.988,0.616c-0.231,0.272 -0.347,0.612 -0.348,1.019c0,0.185 0.034,0.365 0.101,0.536c0.067,0.173 0.164,0.327 0.296,0.463c0.129,0.137 0.289,0.245 0.479,0.324c0.188,0.08 0.405,0.121 0.649,0.122c0.213,-0.001 0.411,-0.028 0.592,-0.082c0.181,-0.058 0.343,-0.132 0.485,-0.23c0.143,-0.097 0.263,-0.208 0.359,-0.336l0.029,0l0.091,0.539l1.107,0c-0.03,-0.153 -0.05,-0.329 -0.062,-0.532c-0.013,-0.201 -0.018,-0.415 -0.018,-0.635l0,-1.745Zm-1.196,1.207c0,0.045 0,0.089 -0.004,0.134c-0.003,0.046 -0.012,0.09 -0.027,0.135c-0.04,0.117 -0.104,0.228 -0.192,0.329c-0.089,0.099 -0.199,0.18 -0.329,0.243c-0.13,0.063 -0.28,0.095 -0.446,0.096c-0.132,0 -0.249,-0.025 -0.354,-0.075c-0.104,-0.05 -0.188,-0.126 -0.25,-0.229c-0.061,-0.103 -0.093,-0.235 -0.094,-0.395c0.001,-0.182 0.049,-0.334 0.142,-0.454c0.094,-0.119 0.22,-0.214 0.38,-0.279c0.159,-0.068 0.34,-0.113 0.542,-0.14c0.202,-0.025 0.412,-0.037 0.632,-0.033l0,0.668Zm5.744,-5.386l0,2.754l-0.02,0c-0.074,-0.123 -0.175,-0.228 -0.303,-0.324c-0.131,-0.095 -0.283,-0.167 -0.461,-0.223c-0.179,-0.055 -0.38,-0.081 -0.603,-0.083c-0.295,0 -0.572,0.06 -0.832,0.176c-0.263,0.118 -0.495,0.288 -0.695,0.511c-0.204,0.224 -0.361,0.496 -0.476,0.816c-0.114,0.319 -0.17,0.683 -0.17,1.091c0.001,0.374 0.056,0.714 0.16,1.018c0.106,0.304 0.254,0.566 0.444,0.783c0.189,0.219 0.409,0.388 0.661,0.504c0.252,0.117 0.524,0.176 0.819,0.177c0.234,-0.001 0.452,-0.036 0.654,-0.108c0.203,-0.072 0.383,-0.17 0.539,-0.302c0.157,-0.131 0.284,-0.286 0.381,-0.467l0.02,0l0.06,0.768l1.087,0c-0.005,-0.112 -0.013,-0.241 -0.019,-0.391c-0.005,-0.148 -0.01,-0.306 -0.014,-0.473c-0.004,-0.167 -0.006,-0.335 -0.006,-0.503l0,-5.724l-1.226,0Zm0,4.987c0,0.064 -0.003,0.125 -0.01,0.185c-0.006,0.06 -0.016,0.119 -0.03,0.174c-0.042,0.177 -0.114,0.33 -0.216,0.46c-0.104,0.129 -0.227,0.229 -0.374,0.298c-0.144,0.072 -0.3,0.107 -0.468,0.11c-0.26,-0.003 -0.48,-0.071 -0.661,-0.202c-0.181,-0.132 -0.317,-0.314 -0.412,-0.545c-0.095,-0.231 -0.144,-0.499 -0.144,-0.8c0,-0.225 0.027,-0.435 0.081,-0.628c0.055,-0.192 0.132,-0.363 0.236,-0.507c0.106,-0.145 0.234,-0.256 0.387,-0.337c0.151,-0.081 0.325,-0.121 0.524,-0.123c0.185,0.002 0.352,0.042 0.497,0.118c0.146,0.076 0.264,0.18 0.362,0.309c0.094,0.128 0.16,0.272 0.197,0.431c0.011,0.052 0.019,0.106 0.024,0.164c0.004,0.058 0.007,0.113 0.007,0.165l0,0.728Zm6.661,0.02c0.009,-0.056 0.02,-0.127 0.028,-0.215c0.007,-0.088 0.012,-0.189 0.012,-0.304c0,-0.216 -0.023,-0.434 -0.067,-0.654c-0.045,-0.223 -0.118,-0.436 -0.216,-0.639c-0.1,-0.203 -0.232,-0.385 -0.394,-0.545c-0.163,-0.162 -0.36,-0.29 -0.595,-0.383c-0.235,-0.092 -0.509,-0.141 -0.823,-0.143c-0.31,0.002 -0.593,0.048 -0.844,0.143c-0.252,0.093 -0.472,0.223 -0.664,0.389c-0.19,0.167 -0.35,0.359 -0.478,0.58c-0.128,0.22 -0.224,0.458 -0.29,0.711c-0.064,0.256 -0.097,0.519 -0.097,0.791c0.001,0.498 0.101,0.93 0.299,1.296c0.198,0.365 0.482,0.649 0.854,0.85c0.372,0.202 0.823,0.303 1.35,0.307c0.35,-0.003 0.668,-0.032 0.952,-0.089c0.286,-0.056 0.533,-0.13 0.742,-0.22l-0.178,-0.839c-0.124,0.044 -0.256,0.083 -0.391,0.116c-0.136,0.032 -0.281,0.057 -0.439,0.076c-0.156,0.019 -0.328,0.028 -0.517,0.028c-0.197,0 -0.385,-0.024 -0.561,-0.073c-0.176,-0.048 -0.332,-0.124 -0.471,-0.226c-0.137,-0.101 -0.245,-0.233 -0.327,-0.39c-0.081,-0.16 -0.128,-0.348 -0.137,-0.567l3.252,0Zm-3.252,-0.859c0.012,-0.125 0.043,-0.258 0.091,-0.394c0.049,-0.139 0.117,-0.267 0.208,-0.386c0.089,-0.118 0.204,-0.216 0.34,-0.292c0.136,-0.074 0.298,-0.112 0.488,-0.113c0.204,0.001 0.372,0.043 0.504,0.12c0.133,0.08 0.236,0.181 0.31,0.304c0.075,0.124 0.127,0.252 0.155,0.387c0.031,0.136 0.041,0.26 0.039,0.374l-2.135,0Zm4.279,2.943l1.196,0l0,-2.872c0,-0.071 0.005,-0.14 0.016,-0.208c0.009,-0.069 0.024,-0.136 0.044,-0.201c0.04,-0.114 0.101,-0.222 0.181,-0.324c0.081,-0.104 0.181,-0.191 0.3,-0.259c0.117,-0.069 0.253,-0.104 0.407,-0.105c0.189,0.001 0.345,0.052 0.47,0.149c0.123,0.097 0.216,0.233 0.276,0.405c0.062,0.174 0.091,0.375 0.091,0.603l0,2.812l1.197,0l0,-2.912c0,-0.072 0.004,-0.143 0.015,-0.216c0.009,-0.072 0.025,-0.136 0.044,-0.193c0.044,-0.118 0.107,-0.227 0.187,-0.324c0.081,-0.096 0.18,-0.175 0.293,-0.235c0.112,-0.057 0.239,-0.088 0.379,-0.089c0.196,0 0.358,0.052 0.486,0.154c0.128,0.102 0.224,0.248 0.288,0.439c0.062,0.191 0.092,0.421 0.092,0.693l0,2.683l1.198,0l0,-2.863c-0.002,-0.386 -0.048,-0.716 -0.14,-0.985c-0.091,-0.269 -0.215,-0.485 -0.37,-0.649c-0.153,-0.166 -0.326,-0.286 -0.516,-0.359c-0.192,-0.076 -0.389,-0.112 -0.59,-0.111c-0.203,0 -0.386,0.026 -0.547,0.074c-0.163,0.05 -0.312,0.121 -0.451,0.216c-0.109,0.069 -0.213,0.154 -0.312,0.256c-0.1,0.1 -0.19,0.217 -0.276,0.352l-0.02,0c-0.069,-0.182 -0.17,-0.338 -0.3,-0.472c-0.128,-0.135 -0.284,-0.238 -0.46,-0.312c-0.177,-0.075 -0.372,-0.112 -0.585,-0.114c-0.207,0.002 -0.391,0.027 -0.551,0.076c-0.161,0.05 -0.302,0.116 -0.422,0.195c-0.119,0.081 -0.224,0.172 -0.31,0.268c-0.085,0.096 -0.157,0.193 -0.213,0.289l-0.031,0l-0.06,-0.717l-1.046,0c0.01,0.207 0.02,0.432 0.028,0.669c0.006,0.239 0.012,0.498 0.012,0.776l0,3.411Zm9.682,0l0,-4.856l-1.226,0l0,4.856l1.226,0Zm-0.608,-6.881c-0.137,0.001 -0.257,0.032 -0.36,0.088c-0.102,0.058 -0.184,0.138 -0.24,0.237c-0.058,0.101 -0.086,0.215 -0.088,0.343c0.002,0.121 0.03,0.232 0.084,0.33c0.058,0.099 0.135,0.179 0.236,0.236c0.102,0.06 0.222,0.091 0.359,0.092c0.143,-0.001 0.267,-0.032 0.372,-0.092c0.103,-0.057 0.183,-0.137 0.239,-0.236c0.056,-0.098 0.086,-0.209 0.086,-0.33c-0.002,-0.128 -0.033,-0.242 -0.089,-0.343c-0.057,-0.099 -0.135,-0.179 -0.236,-0.237c-0.101,-0.056 -0.223,-0.087 -0.363,-0.088Zm5.704,3.969c0.002,-0.269 -0.029,-0.527 -0.094,-0.772c-0.066,-0.244 -0.174,-0.463 -0.324,-0.656c-0.152,-0.192 -0.358,-0.344 -0.616,-0.455c-0.26,-0.112 -0.583,-0.17 -0.97,-0.172c-0.256,0.002 -0.496,0.022 -0.716,0.063c-0.221,0.041 -0.418,0.092 -0.596,0.157c-0.174,0.064 -0.322,0.135 -0.444,0.21l0.24,0.797c0.111,-0.069 0.238,-0.133 0.379,-0.185c0.141,-0.055 0.291,-0.098 0.449,-0.127c0.158,-0.031 0.318,-0.047 0.479,-0.047c0.212,0.002 0.385,0.031 0.516,0.088c0.132,0.056 0.232,0.128 0.3,0.216c0.068,0.088 0.113,0.18 0.137,0.276c0.023,0.096 0.035,0.187 0.034,0.267l0,0.081c-0.6,-0.004 -1.115,0.063 -1.546,0.2c-0.429,0.136 -0.758,0.343 -0.988,0.616c-0.23,0.272 -0.346,0.612 -0.348,1.019c0,0.185 0.035,0.365 0.102,0.536c0.066,0.173 0.164,0.327 0.296,0.463c0.129,0.137 0.289,0.245 0.477,0.324c0.188,0.08 0.407,0.121 0.651,0.122c0.213,-0.001 0.41,-0.028 0.592,-0.082c0.181,-0.058 0.342,-0.132 0.485,-0.23c0.143,-0.097 0.263,-0.208 0.359,-0.336l0.029,0l0.091,0.539l1.106,0c-0.03,-0.153 -0.05,-0.329 -0.061,-0.532c-0.013,-0.201 -0.019,-0.415 -0.019,-0.635l0,-1.745Zm-1.197,1.207c0,0.045 0,0.089 -0.003,0.134c-0.002,0.046 -0.012,0.09 -0.026,0.135c-0.04,0.117 -0.104,0.228 -0.192,0.329c-0.09,0.099 -0.199,0.18 -0.33,0.243c-0.13,0.063 -0.28,0.095 -0.445,0.096c-0.132,0 -0.249,-0.025 -0.355,-0.075c-0.104,-0.05 -0.188,-0.126 -0.249,-0.229c-0.061,-0.103 -0.093,-0.235 -0.095,-0.395c0.002,-0.182 0.05,-0.334 0.143,-0.454c0.093,-0.119 0.22,-0.214 0.38,-0.279c0.159,-0.068 0.34,-0.113 0.541,-0.14c0.203,-0.025 0.412,-0.037 0.631,-0.033l0,0.668Zm-39.728,15.12l1.227,0l0,-5.694l1.934,0l0,-1.028l-5.076,0l0,1.028l1.915,0l0,5.694Zm7.249,-2.084c0.01,-0.055 0.02,-0.127 0.028,-0.215c0.007,-0.087 0.012,-0.189 0.012,-0.304c0,-0.216 -0.021,-0.433 -0.066,-0.655c-0.046,-0.222 -0.119,-0.434 -0.216,-0.637c-0.1,-0.203 -0.231,-0.387 -0.395,-0.545c-0.163,-0.162 -0.36,-0.29 -0.595,-0.383c-0.234,-0.093 -0.508,-0.141 -0.822,-0.143c-0.311,0.002 -0.594,0.048 -0.844,0.143c-0.251,0.093 -0.472,0.223 -0.663,0.389c-0.192,0.166 -0.351,0.359 -0.479,0.58c-0.128,0.219 -0.225,0.458 -0.289,0.711c-0.065,0.256 -0.099,0.519 -0.099,0.789c0.002,0.499 0.102,0.931 0.299,1.298c0.199,0.365 0.483,0.649 0.855,0.85c0.373,0.202 0.822,0.303 1.349,0.306c0.351,-0.002 0.669,-0.032 0.953,-0.088c0.286,-0.056 0.534,-0.13 0.743,-0.222l-0.18,-0.837c-0.124,0.044 -0.256,0.081 -0.391,0.115c-0.136,0.033 -0.28,0.058 -0.438,0.077c-0.156,0.017 -0.327,0.028 -0.516,0.028c-0.199,0 -0.387,-0.024 -0.563,-0.073c-0.176,-0.048 -0.332,-0.126 -0.471,-0.227c-0.137,-0.101 -0.245,-0.232 -0.326,-0.391c-0.082,-0.158 -0.128,-0.346 -0.136,-0.566l3.25,0Zm-3.25,-0.858c0.01,-0.126 0.041,-0.258 0.089,-0.396c0.049,-0.137 0.119,-0.265 0.208,-0.385c0.089,-0.117 0.204,-0.216 0.34,-0.291c0.136,-0.074 0.3,-0.113 0.489,-0.114c0.203,0.001 0.371,0.042 0.504,0.121c0.132,0.08 0.236,0.181 0.311,0.304c0.075,0.123 0.125,0.251 0.153,0.385c0.031,0.138 0.043,0.262 0.039,0.376l-2.133,0Zm7.678,1.886c-0.12,0.05 -0.258,0.096 -0.417,0.132c-0.159,0.037 -0.343,0.054 -0.551,0.057c-0.21,0 -0.405,-0.035 -0.585,-0.105c-0.18,-0.068 -0.336,-0.17 -0.472,-0.304c-0.135,-0.134 -0.239,-0.298 -0.313,-0.492c-0.075,-0.192 -0.114,-0.415 -0.115,-0.666c-0.003,-0.221 0.029,-0.429 0.096,-0.618c0.067,-0.192 0.163,-0.359 0.291,-0.5c0.128,-0.144 0.284,-0.255 0.469,-0.335c0.185,-0.08 0.395,-0.12 0.629,-0.121c0.218,0.001 0.403,0.02 0.554,0.056c0.152,0.037 0.276,0.081 0.374,0.133l0.219,-0.928c-0.095,-0.04 -0.204,-0.076 -0.332,-0.109c-0.127,-0.034 -0.263,-0.06 -0.409,-0.08c-0.146,-0.02 -0.294,-0.03 -0.446,-0.03c-0.426,0.002 -0.808,0.068 -1.141,0.199c-0.335,0.131 -0.617,0.313 -0.849,0.545c-0.231,0.235 -0.407,0.51 -0.528,0.822c-0.122,0.313 -0.182,0.652 -0.184,1.017c0.002,0.377 0.06,0.717 0.178,1.024c0.118,0.304 0.286,0.565 0.506,0.783c0.218,0.217 0.481,0.384 0.789,0.5c0.307,0.116 0.649,0.174 1.031,0.176c0.204,-0.002 0.393,-0.014 0.569,-0.038c0.176,-0.025 0.333,-0.054 0.469,-0.093c0.138,-0.039 0.25,-0.079 0.338,-0.119l-0.17,-0.906Zm1.076,1.056l1.227,0l0,-2.911c0,-0.065 0.004,-0.131 0.011,-0.193c0.006,-0.062 0.02,-0.122 0.04,-0.176c0.046,-0.126 0.114,-0.24 0.204,-0.343c0.088,-0.103 0.196,-0.187 0.322,-0.249c0.128,-0.063 0.271,-0.095 0.431,-0.096c0.224,0.001 0.407,0.056 0.544,0.164c0.139,0.108 0.239,0.256 0.301,0.441c0.062,0.185 0.094,0.395 0.092,0.631l0,2.732l1.227,0l0,-2.862c-0.003,-0.388 -0.052,-0.716 -0.148,-0.985c-0.097,-0.269 -0.227,-0.485 -0.389,-0.651c-0.163,-0.164 -0.344,-0.284 -0.544,-0.358c-0.2,-0.075 -0.406,-0.112 -0.615,-0.11c-0.155,0 -0.304,0.02 -0.445,0.056c-0.143,0.039 -0.278,0.094 -0.402,0.163c-0.125,0.065 -0.24,0.145 -0.342,0.237c-0.102,0.092 -0.192,0.198 -0.267,0.312l-0.02,0l0,-2.892l-1.227,0l0,7.09Zm5.704,0l1.227,0l0,-2.862c0,-0.072 0.005,-0.141 0.016,-0.209c0.009,-0.068 0.024,-0.128 0.044,-0.18c0.044,-0.124 0.111,-0.243 0.199,-0.351c0.088,-0.108 0.193,-0.196 0.321,-0.262c0.129,-0.068 0.275,-0.103 0.437,-0.104c0.223,0.001 0.4,0.056 0.538,0.162c0.137,0.107 0.236,0.251 0.298,0.435c0.062,0.185 0.094,0.395 0.092,0.629l0,2.742l1.227,0l0,-2.882c-0.003,-0.382 -0.053,-0.708 -0.149,-0.973c-0.099,-0.267 -0.23,-0.481 -0.396,-0.645c-0.166,-0.163 -0.35,-0.282 -0.554,-0.356c-0.202,-0.075 -0.412,-0.112 -0.626,-0.11c-0.202,0.002 -0.386,0.027 -0.554,0.078c-0.166,0.05 -0.314,0.117 -0.445,0.198c-0.131,0.083 -0.241,0.172 -0.335,0.271c-0.093,0.097 -0.168,0.195 -0.222,0.291l-0.03,0l-0.06,-0.728l-1.066,0c0.009,0.208 0.018,0.432 0.028,0.669c0.006,0.24 0.01,0.497 0.01,0.776l0,3.411Zm6.932,0l0,-4.856l-1.226,0l0,4.856l1.226,0Zm-0.609,-6.88c-0.137,0.001 -0.257,0.03 -0.36,0.088c-0.101,0.058 -0.183,0.137 -0.24,0.237c-0.057,0.101 -0.087,0.215 -0.088,0.343c0.001,0.121 0.031,0.23 0.085,0.33c0.056,0.099 0.135,0.178 0.236,0.236c0.102,0.06 0.222,0.09 0.358,0.092c0.142,-0.002 0.268,-0.032 0.372,-0.092c0.102,-0.058 0.182,-0.137 0.24,-0.236c0.056,-0.1 0.085,-0.209 0.085,-0.33c-0.003,-0.128 -0.033,-0.242 -0.089,-0.343c-0.058,-0.1 -0.135,-0.179 -0.236,-0.237c-0.102,-0.058 -0.223,-0.087 -0.363,-0.088Zm5.336,5.824c-0.12,0.05 -0.259,0.096 -0.417,0.132c-0.159,0.037 -0.343,0.054 -0.551,0.057c-0.211,0 -0.405,-0.035 -0.585,-0.105c-0.18,-0.068 -0.338,-0.17 -0.472,-0.304c-0.134,-0.134 -0.239,-0.298 -0.314,-0.492c-0.074,-0.192 -0.113,-0.415 -0.114,-0.666c-0.002,-0.221 0.029,-0.429 0.096,-0.618c0.066,-0.192 0.162,-0.359 0.29,-0.5c0.128,-0.144 0.284,-0.255 0.47,-0.335c0.185,-0.08 0.396,-0.12 0.629,-0.121c0.219,0.001 0.403,0.02 0.553,0.056c0.152,0.037 0.276,0.081 0.375,0.133l0.219,-0.928c-0.095,-0.04 -0.204,-0.076 -0.332,-0.109c-0.127,-0.034 -0.263,-0.06 -0.41,-0.08c-0.145,-0.02 -0.293,-0.03 -0.445,-0.03c-0.427,0.002 -0.808,0.068 -1.141,0.199c-0.335,0.131 -0.618,0.313 -0.85,0.545c-0.23,0.235 -0.406,0.51 -0.529,0.822c-0.12,0.313 -0.18,0.652 -0.183,1.017c0.003,0.377 0.06,0.717 0.179,1.024c0.117,0.304 0.285,0.565 0.505,0.783c0.219,0.217 0.482,0.384 0.79,0.5c0.308,0.116 0.649,0.174 1.03,0.176c0.204,-0.002 0.394,-0.014 0.57,-0.038c0.176,-0.025 0.332,-0.054 0.469,-0.093c0.137,-0.039 0.249,-0.079 0.337,-0.119l-0.169,-0.906Zm0.617,1.056l4.09,0l0,-0.978l-2.554,0l0,-0.018c0.126,-0.131 0.246,-0.264 0.363,-0.403c0.117,-0.14 0.236,-0.281 0.356,-0.425l1.775,-2.284l0,-0.748l-3.85,0l0,0.977l2.354,0l0,0.02c-0.123,0.137 -0.242,0.271 -0.354,0.4c-0.113,0.132 -0.232,0.271 -0.354,0.417l-1.826,2.334l0,0.708Zm4.947,0l1.227,0l0,-2.862c0,-0.072 0.005,-0.141 0.014,-0.209c0.011,-0.068 0.026,-0.128 0.046,-0.18c0.042,-0.124 0.109,-0.243 0.197,-0.351c0.088,-0.108 0.195,-0.196 0.323,-0.262c0.128,-0.068 0.273,-0.103 0.437,-0.104c0.223,0.001 0.4,0.056 0.537,0.162c0.138,0.107 0.235,0.251 0.299,0.435c0.061,0.185 0.093,0.395 0.091,0.629l0,2.742l1.226,0l0,-2.882c-0.001,-0.382 -0.052,-0.708 -0.149,-0.973c-0.097,-0.267 -0.229,-0.481 -0.396,-0.645c-0.164,-0.163 -0.348,-0.282 -0.553,-0.356c-0.203,-0.075 -0.412,-0.112 -0.627,-0.11c-0.2,0.002 -0.385,0.027 -0.553,0.078c-0.166,0.05 -0.314,0.117 -0.446,0.198c-0.129,0.083 -0.241,0.172 -0.333,0.271c-0.093,0.097 -0.168,0.195 -0.223,0.291l-0.03,0l-0.06,-0.728l-1.067,0c0.011,0.208 0.02,0.432 0.028,0.669c0.007,0.24 0.012,0.497 0.012,0.776l0,3.411Zm7.908,-4.966c-0.367,0.002 -0.705,0.06 -1.011,0.178c-0.305,0.118 -0.572,0.288 -0.796,0.51c-0.224,0.223 -0.397,0.492 -0.52,0.81c-0.122,0.317 -0.185,0.674 -0.186,1.076c0.001,0.392 0.065,0.742 0.188,1.05c0.122,0.31 0.296,0.571 0.517,0.787c0.22,0.216 0.479,0.38 0.771,0.493c0.294,0.114 0.613,0.17 0.957,0.172c0.249,0 0.493,-0.032 0.735,-0.098c0.24,-0.064 0.465,-0.163 0.676,-0.298c0.213,-0.133 0.4,-0.302 0.56,-0.506c0.164,-0.204 0.29,-0.447 0.381,-0.727c0.093,-0.279 0.14,-0.596 0.141,-0.953c-0.001,-0.371 -0.06,-0.708 -0.173,-1.012c-0.115,-0.306 -0.279,-0.568 -0.492,-0.788c-0.212,-0.222 -0.465,-0.391 -0.761,-0.512c-0.296,-0.12 -0.624,-0.18 -0.987,-0.182Zm-0.029,0.888c0.209,0.002 0.388,0.051 0.536,0.147c0.149,0.099 0.27,0.227 0.366,0.387c0.094,0.158 0.164,0.336 0.207,0.526c0.045,0.191 0.067,0.383 0.067,0.575c-0.002,0.331 -0.051,0.621 -0.152,0.871c-0.1,0.249 -0.239,0.442 -0.416,0.581c-0.178,0.14 -0.384,0.212 -0.619,0.213c-0.184,-0.001 -0.352,-0.042 -0.5,-0.124c-0.148,-0.084 -0.275,-0.198 -0.38,-0.346c-0.105,-0.15 -0.185,-0.322 -0.241,-0.522c-0.058,-0.2 -0.086,-0.417 -0.086,-0.653c0,-0.204 0.022,-0.404 0.068,-0.6c0.047,-0.195 0.119,-0.372 0.215,-0.529c0.099,-0.16 0.224,-0.287 0.377,-0.382c0.155,-0.094 0.34,-0.142 0.558,-0.144Zm3.24,0.996l0,0.848l2.542,0l0,-0.848l-2.542,0Zm3.55,-3.64l0,6.722l1.227,0l0,-2.962l2.841,0l0,2.962l1.227,0l0,-6.722l-1.227,0l0,2.694l-2.841,0l0,-2.694l-1.227,0Zm10.999,1.866l-1.227,0l0,2.932c0,0.072 -0.004,0.14 -0.016,0.204c-0.01,0.066 -0.028,0.125 -0.053,0.174c-0.04,0.108 -0.101,0.214 -0.184,0.312c-0.085,0.1 -0.189,0.182 -0.315,0.247c-0.126,0.064 -0.273,0.097 -0.438,0.1c-0.215,-0.003 -0.39,-0.057 -0.524,-0.165c-0.132,-0.108 -0.231,-0.26 -0.292,-0.459c-0.062,-0.197 -0.094,-0.432 -0.092,-0.703l0,-2.642l-1.226,0l0,2.852c0.002,0.396 0.048,0.728 0.139,0.998c0.092,0.271 0.216,0.49 0.375,0.654c0.157,0.162 0.337,0.281 0.537,0.354c0.201,0.074 0.413,0.11 0.633,0.108c0.22,-0.002 0.415,-0.03 0.586,-0.082c0.17,-0.055 0.321,-0.124 0.449,-0.21c0.128,-0.085 0.235,-0.174 0.323,-0.272c0.088,-0.096 0.157,-0.188 0.209,-0.274l0.029,0l0.06,0.728l1.067,0c-0.009,-0.199 -0.02,-0.419 -0.027,-0.662c-0.008,-0.24 -0.013,-0.505 -0.013,-0.793l0,-3.401Zm1.327,4.856l1.197,0l0,-2.872c0,-0.07 0.004,-0.139 0.015,-0.207c0.009,-0.071 0.024,-0.137 0.045,-0.201c0.04,-0.114 0.1,-0.222 0.181,-0.324c0.082,-0.106 0.18,-0.192 0.299,-0.26c0.117,-0.068 0.255,-0.103 0.407,-0.104c0.189,0.001 0.345,0.05 0.47,0.149c0.123,0.096 0.216,0.232 0.276,0.405c0.062,0.174 0.092,0.375 0.092,0.602l0,2.812l1.196,0l0,-2.911c0,-0.072 0.006,-0.144 0.015,-0.217c0.011,-0.071 0.025,-0.136 0.045,-0.192c0.043,-0.119 0.107,-0.227 0.186,-0.324c0.081,-0.098 0.18,-0.175 0.293,-0.235c0.112,-0.057 0.239,-0.088 0.379,-0.089c0.196,0 0.358,0.05 0.486,0.154c0.128,0.102 0.224,0.247 0.288,0.439c0.062,0.191 0.094,0.421 0.094,0.693l0,2.682l1.196,0l0,-2.862c-0.002,-0.388 -0.048,-0.716 -0.14,-0.985c-0.091,-0.269 -0.214,-0.485 -0.368,-0.651c-0.155,-0.164 -0.328,-0.284 -0.518,-0.358c-0.19,-0.075 -0.389,-0.112 -0.59,-0.11c-0.203,0 -0.386,0.024 -0.547,0.074c-0.163,0.049 -0.312,0.121 -0.449,0.216c-0.111,0.069 -0.215,0.154 -0.314,0.256c-0.098,0.098 -0.19,0.217 -0.276,0.352l-0.02,0c-0.069,-0.182 -0.17,-0.338 -0.3,-0.472c-0.128,-0.135 -0.282,-0.238 -0.458,-0.312c-0.179,-0.076 -0.374,-0.112 -0.588,-0.114c-0.206,0.002 -0.39,0.027 -0.55,0.076c-0.161,0.048 -0.302,0.115 -0.422,0.195c-0.119,0.081 -0.224,0.171 -0.308,0.268c-0.087,0.096 -0.159,0.192 -0.215,0.288l-0.031,0l-0.06,-0.717l-1.046,0c0.01,0.208 0.02,0.432 0.028,0.669c0.006,0.24 0.012,0.497 0.012,0.776l0,3.411Zm12.225,-2.911c0.003,-0.269 -0.029,-0.528 -0.093,-0.772c-0.066,-0.244 -0.174,-0.463 -0.326,-0.656c-0.15,-0.193 -0.357,-0.344 -0.616,-0.456c-0.26,-0.111 -0.581,-0.169 -0.969,-0.171c-0.256,0.002 -0.495,0.022 -0.716,0.063c-0.221,0.04 -0.419,0.092 -0.595,0.156c-0.174,0.065 -0.322,0.135 -0.444,0.209l0.24,0.799c0.111,-0.071 0.238,-0.133 0.379,-0.187c0.141,-0.053 0.291,-0.096 0.448,-0.126c0.157,-0.03 0.317,-0.046 0.479,-0.046c0.213,0.002 0.385,0.031 0.517,0.088c0.131,0.056 0.231,0.128 0.299,0.216c0.068,0.088 0.113,0.179 0.138,0.276c0.023,0.096 0.035,0.186 0.034,0.267l0,0.08c-0.6,-0.003 -1.116,0.063 -1.547,0.201c-0.428,0.136 -0.757,0.343 -0.987,0.615c-0.23,0.273 -0.348,0.613 -0.349,1.019c0,0.186 0.035,0.365 0.101,0.537c0.067,0.172 0.166,0.325 0.296,0.463c0.13,0.137 0.29,0.245 0.479,0.324c0.188,0.078 0.405,0.12 0.649,0.122c0.214,-0.002 0.411,-0.028 0.592,-0.082c0.182,-0.058 0.343,-0.132 0.486,-0.231c0.142,-0.096 0.262,-0.207 0.358,-0.336l0.031,0l0.089,0.539l1.107,0c-0.029,-0.152 -0.049,-0.328 -0.061,-0.531c-0.014,-0.201 -0.019,-0.415 -0.019,-0.636l0,-1.744Zm-1.196,1.205c0,0.046 0,0.091 -0.003,0.136c-0.004,0.044 -0.012,0.09 -0.026,0.135c-0.04,0.117 -0.106,0.227 -0.194,0.328c-0.088,0.1 -0.197,0.181 -0.329,0.243c-0.129,0.064 -0.279,0.094 -0.445,0.096c-0.131,0 -0.25,-0.024 -0.354,-0.074c-0.105,-0.05 -0.188,-0.126 -0.25,-0.229c-0.06,-0.104 -0.092,-0.235 -0.094,-0.395c0.002,-0.182 0.05,-0.336 0.143,-0.454c0.093,-0.119 0.219,-0.214 0.379,-0.28c0.158,-0.067 0.34,-0.114 0.541,-0.14c0.204,-0.024 0.413,-0.036 0.632,-0.032l0,0.666Zm2.493,1.706l1.227,0l0,-2.862c0,-0.072 0.004,-0.141 0.015,-0.209c0.009,-0.068 0.025,-0.128 0.045,-0.18c0.043,-0.124 0.109,-0.243 0.197,-0.351c0.088,-0.108 0.195,-0.196 0.323,-0.262c0.128,-0.068 0.273,-0.103 0.436,-0.104c0.224,0.001 0.401,0.056 0.537,0.162c0.139,0.107 0.236,0.251 0.3,0.435c0.062,0.185 0.092,0.395 0.091,0.629l0,2.742l1.227,0l0,-2.882c-0.002,-0.382 -0.054,-0.708 -0.15,-0.973c-0.098,-0.267 -0.229,-0.481 -0.396,-0.645c-0.164,-0.163 -0.348,-0.282 -0.553,-0.356c-0.203,-0.075 -0.412,-0.112 -0.627,-0.11c-0.201,0.002 -0.385,0.027 -0.553,0.078c-0.167,0.05 -0.313,0.117 -0.445,0.198c-0.13,0.083 -0.242,0.172 -0.334,0.271c-0.093,0.097 -0.168,0.195 -0.224,0.291l-0.029,0l-0.06,-0.728l-1.067,0c0.01,0.208 0.02,0.432 0.028,0.669c0.007,0.24 0.012,0.497 0.012,0.776l0,3.411Z" style="fill:#1b4d98;fill-rule:nonzero;"/><path d="M148.765,31.483l0,-4.857l-1.227,0l0,4.857l1.227,0Zm-0.608,-6.881c-0.139,0.001 -0.259,0.032 -0.361,0.088c-0.102,0.058 -0.183,0.137 -0.239,0.237c-0.059,0.101 -0.087,0.215 -0.089,0.343c0.002,0.121 0.03,0.23 0.085,0.33c0.056,0.099 0.135,0.178 0.236,0.236c0.101,0.06 0.221,0.09 0.357,0.092c0.143,-0.002 0.268,-0.032 0.372,-0.092c0.103,-0.058 0.183,-0.137 0.24,-0.236c0.056,-0.1 0.086,-0.209 0.086,-0.33c-0.003,-0.128 -0.032,-0.242 -0.09,-0.343c-0.056,-0.1 -0.134,-0.179 -0.236,-0.237c-0.101,-0.056 -0.222,-0.087 -0.361,-0.088Zm1.635,6.641c0.181,0.101 0.398,0.183 0.652,0.244c0.252,0.061 0.528,0.093 0.824,0.095c0.429,-0.003 0.792,-0.068 1.084,-0.198c0.292,-0.129 0.514,-0.309 0.664,-0.538c0.15,-0.228 0.226,-0.492 0.226,-0.79c-0.002,-0.356 -0.109,-0.653 -0.318,-0.89c-0.21,-0.238 -0.536,-0.435 -0.978,-0.586c-0.205,-0.074 -0.37,-0.144 -0.496,-0.209c-0.124,-0.064 -0.213,-0.133 -0.269,-0.205c-0.056,-0.074 -0.084,-0.162 -0.083,-0.263c0,-0.103 0.027,-0.191 0.078,-0.268c0.052,-0.079 0.128,-0.14 0.23,-0.183c0.102,-0.045 0.224,-0.068 0.371,-0.068c0.144,0.002 0.28,0.016 0.412,0.044c0.131,0.031 0.249,0.067 0.355,0.108c0.105,0.044 0.192,0.086 0.26,0.127l0.249,-0.857c-0.147,-0.082 -0.333,-0.15 -0.556,-0.204c-0.223,-0.056 -0.469,-0.084 -0.741,-0.086c-0.282,0.002 -0.536,0.04 -0.76,0.116c-0.227,0.076 -0.419,0.183 -0.579,0.32c-0.16,0.138 -0.283,0.298 -0.368,0.482c-0.084,0.182 -0.125,0.382 -0.128,0.598c-0.001,0.192 0.045,0.378 0.137,0.554c0.091,0.174 0.236,0.336 0.432,0.481c0.198,0.147 0.454,0.273 0.768,0.381c0.198,0.071 0.355,0.142 0.474,0.208c0.116,0.066 0.198,0.139 0.25,0.219c0.051,0.079 0.075,0.173 0.074,0.281c0,0.108 -0.027,0.203 -0.082,0.284c-0.054,0.082 -0.14,0.147 -0.256,0.194c-0.114,0.045 -0.261,0.07 -0.44,0.07c-0.148,-0.001 -0.301,-0.02 -0.456,-0.054c-0.156,-0.036 -0.302,-0.082 -0.438,-0.136c-0.136,-0.054 -0.251,-0.111 -0.343,-0.168l-0.249,0.897Zm4.657,-5.524l0,0.907l-0.688,0l0,0.917l0.688,0l0,2.284c0,0.319 0.029,0.592 0.093,0.817c0.063,0.227 0.162,0.41 0.296,0.55c0.116,0.125 0.263,0.222 0.442,0.292c0.18,0.07 0.384,0.104 0.616,0.106c0.19,-0.002 0.362,-0.013 0.517,-0.038c0.155,-0.026 0.277,-0.055 0.369,-0.091l-0.02,-0.928c-0.068,0.02 -0.137,0.033 -0.209,0.04c-0.073,0.007 -0.163,0.011 -0.269,0.011c-0.155,0 -0.279,-0.034 -0.371,-0.1c-0.093,-0.067 -0.16,-0.167 -0.2,-0.3c-0.039,-0.134 -0.059,-0.299 -0.057,-0.499l0,-2.144l1.166,0l0,-0.917l-1.166,0l0,-1.247l-1.207,0.34Zm2.792,0.907l1.785,4.45c0.024,0.059 0.04,0.107 0.048,0.146c0.008,0.038 0.012,0.069 0.012,0.093c0,0.029 -0.005,0.063 -0.017,0.097c-0.01,0.036 -0.028,0.078 -0.054,0.122c-0.088,0.166 -0.19,0.316 -0.312,0.45c-0.121,0.135 -0.242,0.239 -0.365,0.316c-0.125,0.09 -0.248,0.163 -0.369,0.218c-0.12,0.056 -0.233,0.097 -0.339,0.121l0.279,1.027c0.101,-0.014 0.221,-0.042 0.357,-0.084c0.139,-0.046 0.285,-0.11 0.445,-0.196c0.159,-0.087 0.32,-0.2 0.484,-0.338c0.142,-0.122 0.278,-0.27 0.41,-0.442c0.13,-0.174 0.264,-0.38 0.397,-0.623c0.131,-0.244 0.268,-0.535 0.413,-0.872c0.144,-0.335 0.299,-0.729 0.466,-1.18l1.216,-3.305l-1.306,0l-0.758,2.588c-0.032,0.105 -0.064,0.212 -0.096,0.324c-0.031,0.109 -0.06,0.22 -0.087,0.325c-0.028,0.109 -0.053,0.207 -0.076,0.296l-0.031,0c-0.022,-0.089 -0.049,-0.187 -0.081,-0.293c-0.029,-0.108 -0.063,-0.216 -0.096,-0.326c-0.033,-0.11 -0.068,-0.214 -0.101,-0.317l-0.868,-2.597l-1.356,0Zm8.836,3.8c-0.12,0.05 -0.259,0.096 -0.418,0.132c-0.158,0.037 -0.342,0.056 -0.55,0.057c-0.211,0 -0.406,-0.035 -0.586,-0.105c-0.18,-0.068 -0.337,-0.17 -0.47,-0.304c-0.135,-0.134 -0.24,-0.298 -0.315,-0.492c-0.075,-0.192 -0.113,-0.415 -0.115,-0.666c-0.001,-0.221 0.03,-0.429 0.096,-0.618c0.067,-0.192 0.163,-0.358 0.291,-0.5c0.128,-0.144 0.285,-0.255 0.469,-0.335c0.187,-0.08 0.396,-0.12 0.63,-0.121c0.218,0.001 0.402,0.02 0.553,0.056c0.152,0.037 0.276,0.081 0.375,0.133l0.218,-0.928c-0.094,-0.04 -0.204,-0.076 -0.332,-0.109c-0.126,-0.034 -0.262,-0.059 -0.409,-0.08c-0.145,-0.02 -0.293,-0.03 -0.445,-0.03c-0.427,0.002 -0.807,0.068 -1.142,0.199c-0.334,0.131 -0.617,0.313 -0.849,0.547c-0.231,0.233 -0.408,0.508 -0.529,0.82c-0.12,0.313 -0.18,0.652 -0.183,1.017c0.003,0.377 0.06,0.717 0.179,1.024c0.117,0.304 0.285,0.565 0.505,0.783c0.219,0.217 0.481,0.384 0.789,0.5c0.307,0.117 0.65,0.174 1.031,0.176c0.204,-0.002 0.393,-0.014 0.569,-0.038c0.176,-0.025 0.332,-0.054 0.47,-0.093c0.137,-0.039 0.249,-0.079 0.337,-0.119l-0.169,-0.906Zm0.618,1.057l4.088,0l0,-0.979l-2.553,0l0,-0.018c0.125,-0.131 0.245,-0.264 0.363,-0.403c0.118,-0.14 0.236,-0.281 0.356,-0.425l1.774,-2.284l0,-0.748l-3.849,0l0,0.977l2.353,0l0,0.02c-0.122,0.137 -0.241,0.271 -0.353,0.401c-0.113,0.131 -0.232,0.27 -0.355,0.416l-1.824,2.334l0,0.709Zm4.946,0l1.226,0l0,-2.863c0,-0.07 0.006,-0.141 0.015,-0.209c0.011,-0.068 0.025,-0.128 0.045,-0.18c0.043,-0.124 0.11,-0.243 0.198,-0.351c0.088,-0.108 0.194,-0.196 0.322,-0.262c0.128,-0.068 0.275,-0.103 0.438,-0.104c0.222,0.001 0.4,0.056 0.537,0.162c0.137,0.107 0.236,0.251 0.299,0.435c0.061,0.185 0.093,0.395 0.09,0.629l0,2.743l1.227,0l0,-2.883c-0.001,-0.381 -0.052,-0.708 -0.149,-0.973c-0.098,-0.267 -0.23,-0.481 -0.395,-0.645c-0.165,-0.163 -0.349,-0.282 -0.553,-0.356c-0.204,-0.075 -0.414,-0.111 -0.627,-0.11c-0.201,0.002 -0.387,0.027 -0.553,0.078c-0.167,0.05 -0.315,0.117 -0.447,0.198c-0.129,0.083 -0.241,0.174 -0.333,0.271c-0.094,0.099 -0.168,0.195 -0.223,0.291l-0.031,0l-0.06,-0.728l-1.066,0c0.009,0.208 0.02,0.432 0.028,0.67c0.008,0.239 0.012,0.496 0.012,0.776l0,3.411Zm9.473,-2.912c0.003,-0.269 -0.029,-0.527 -0.095,-0.772c-0.064,-0.244 -0.172,-0.463 -0.324,-0.656c-0.15,-0.193 -0.357,-0.344 -0.616,-0.456c-0.26,-0.111 -0.582,-0.169 -0.969,-0.171c-0.256,0.002 -0.496,0.022 -0.716,0.063c-0.221,0.04 -0.419,0.092 -0.596,0.156c-0.173,0.065 -0.321,0.135 -0.443,0.211l0.239,0.797c0.112,-0.071 0.237,-0.133 0.379,-0.187c0.141,-0.053 0.292,-0.096 0.449,-0.126c0.157,-0.03 0.317,-0.046 0.479,-0.046c0.213,0.002 0.385,0.031 0.517,0.088c0.131,0.056 0.231,0.128 0.299,0.216c0.068,0.088 0.113,0.179 0.137,0.276c0.024,0.096 0.035,0.186 0.033,0.267l0,0.08c-0.6,-0.003 -1.114,0.063 -1.545,0.201c-0.428,0.136 -0.757,0.343 -0.987,0.615c-0.232,0.273 -0.348,0.613 -0.349,1.019c0,0.186 0.035,0.366 0.101,0.537c0.067,0.173 0.164,0.325 0.296,0.463c0.13,0.137 0.29,0.245 0.479,0.324c0.188,0.078 0.405,0.12 0.649,0.122c0.214,-0.002 0.411,-0.028 0.592,-0.082c0.182,-0.058 0.343,-0.132 0.486,-0.23c0.142,-0.097 0.262,-0.208 0.358,-0.336l0.031,0l0.089,0.539l1.107,0c-0.029,-0.153 -0.049,-0.329 -0.061,-0.532c-0.014,-0.201 -0.019,-0.415 -0.019,-0.636l0,-1.744Zm-1.196,1.205c0,0.046 0,0.091 -0.004,0.136c-0.003,0.044 -0.011,0.09 -0.027,0.135c-0.04,0.117 -0.104,0.227 -0.192,0.328c-0.088,0.1 -0.198,0.181 -0.329,0.243c-0.129,0.064 -0.279,0.094 -0.445,0.096c-0.132,0 -0.25,-0.024 -0.355,-0.074c-0.104,-0.05 -0.188,-0.126 -0.249,-0.229c-0.062,-0.104 -0.092,-0.235 -0.095,-0.395c0.003,-0.182 0.051,-0.336 0.144,-0.454c0.092,-0.119 0.219,-0.214 0.379,-0.28c0.158,-0.067 0.34,-0.114 0.541,-0.14c0.203,-0.024 0.412,-0.036 0.632,-0.032l0,0.666Zm-116.136,10.266l1.436,4.856l1.147,0l0.617,-1.975c0.071,-0.237 0.135,-0.481 0.196,-0.732c0.06,-0.253 0.119,-0.528 0.174,-0.823l0.02,0c0.037,0.195 0.073,0.379 0.112,0.551c0.037,0.173 0.077,0.341 0.118,0.505c0.044,0.166 0.088,0.331 0.139,0.499l0.579,1.975l1.136,0l1.526,-4.856l-1.208,0l-0.537,2.153c-0.065,0.283 -0.127,0.559 -0.181,0.828c-0.058,0.269 -0.102,0.536 -0.139,0.797l-0.02,0c-0.055,-0.261 -0.115,-0.528 -0.179,-0.797c-0.065,-0.269 -0.134,-0.545 -0.209,-0.828l-0.608,-2.153l-0.997,0l-0.639,2.213c-0.067,0.252 -0.135,0.507 -0.207,0.772c-0.069,0.264 -0.13,0.528 -0.182,0.793l-0.02,0c-0.044,-0.264 -0.095,-0.528 -0.148,-0.79c-0.055,-0.264 -0.111,-0.526 -0.171,-0.784l-0.499,-2.204l-1.256,0Zm10.102,4.836c0.16,0.022 0.365,0.041 0.618,0.06c0.252,0.018 0.548,0.028 0.887,0.029c0.412,0 0.776,-0.023 1.092,-0.069c0.317,-0.047 0.592,-0.115 0.825,-0.206c0.232,-0.092 0.428,-0.206 0.587,-0.342c0.128,-0.111 0.239,-0.235 0.333,-0.376c0.095,-0.14 0.17,-0.296 0.223,-0.466c0.053,-0.17 0.081,-0.356 0.081,-0.554c-0.001,-0.23 -0.038,-0.438 -0.112,-0.62c-0.073,-0.186 -0.173,-0.346 -0.3,-0.486c-0.126,-0.138 -0.27,-0.253 -0.433,-0.346c-0.161,-0.091 -0.331,-0.159 -0.511,-0.204l0,-0.03c0.243,-0.092 0.447,-0.212 0.614,-0.357c0.166,-0.147 0.29,-0.313 0.376,-0.499c0.084,-0.186 0.128,-0.382 0.128,-0.59c0,-0.192 -0.031,-0.371 -0.088,-0.53c-0.059,-0.16 -0.139,-0.302 -0.243,-0.425c-0.105,-0.125 -0.227,-0.228 -0.368,-0.311c-0.148,-0.104 -0.313,-0.186 -0.497,-0.25c-0.182,-0.063 -0.388,-0.108 -0.622,-0.138c-0.232,-0.028 -0.498,-0.041 -0.796,-0.041c-0.234,0 -0.464,0.007 -0.689,0.021c-0.224,0.014 -0.432,0.032 -0.621,0.054c-0.192,0.024 -0.354,0.048 -0.484,0.074l0,6.602Zm1.216,-5.794c0.064,-0.014 0.152,-0.029 0.262,-0.036c0.114,-0.009 0.259,-0.014 0.436,-0.014c0.26,0 0.484,0.032 0.672,0.098c0.187,0.067 0.331,0.168 0.432,0.306c0.102,0.136 0.151,0.31 0.152,0.524c0,0.19 -0.05,0.358 -0.152,0.504c-0.101,0.144 -0.252,0.257 -0.449,0.338c-0.196,0.082 -0.439,0.123 -0.724,0.124l-0.629,0l0,-1.844Zm0,2.732l0.609,0c0.212,0 0.412,0.02 0.597,0.062c0.186,0.041 0.348,0.108 0.488,0.196c0.142,0.09 0.251,0.204 0.328,0.345c0.08,0.139 0.12,0.308 0.122,0.504c-0.002,0.207 -0.043,0.381 -0.123,0.524c-0.08,0.143 -0.189,0.257 -0.329,0.345c-0.14,0.087 -0.299,0.151 -0.476,0.191c-0.18,0.039 -0.368,0.057 -0.568,0.057c-0.139,0 -0.263,0 -0.368,-0.002c-0.107,-0.004 -0.2,-0.012 -0.28,-0.027l0,-2.195Zm5.705,3.082l0,-4.856l-1.227,0l0,4.856l1.227,0Zm-0.609,-6.88c-0.138,0.001 -0.258,0.03 -0.36,0.088c-0.102,0.057 -0.183,0.137 -0.24,0.237c-0.058,0.101 -0.087,0.215 -0.088,0.343c0.001,0.121 0.03,0.23 0.085,0.33c0.056,0.098 0.135,0.178 0.236,0.236c0.101,0.06 0.221,0.09 0.357,0.091c0.143,-0.001 0.268,-0.031 0.372,-0.091c0.103,-0.058 0.183,-0.138 0.24,-0.236c0.056,-0.1 0.086,-0.209 0.086,-0.33c-0.003,-0.128 -0.034,-0.242 -0.09,-0.343c-0.057,-0.1 -0.134,-0.18 -0.236,-0.237c-0.101,-0.058 -0.222,-0.087 -0.362,-0.088Zm6.053,4.796c0.009,-0.055 0.02,-0.127 0.028,-0.215c0.007,-0.088 0.012,-0.189 0.012,-0.304c0,-0.216 -0.021,-0.433 -0.067,-0.655c-0.045,-0.222 -0.117,-0.436 -0.216,-0.638c-0.1,-0.203 -0.23,-0.386 -0.393,-0.544c-0.164,-0.162 -0.361,-0.291 -0.596,-0.383c-0.233,-0.093 -0.508,-0.141 -0.823,-0.143c-0.31,0.002 -0.592,0.048 -0.844,0.143c-0.25,0.092 -0.472,0.223 -0.662,0.388c-0.192,0.167 -0.351,0.36 -0.479,0.581c-0.128,0.219 -0.224,0.456 -0.289,0.711c-0.066,0.256 -0.099,0.519 -0.099,0.789c0.003,0.499 0.101,0.931 0.3,1.296c0.197,0.367 0.481,0.651 0.855,0.852c0.372,0.2 0.822,0.303 1.349,0.306c0.351,-0.002 0.668,-0.032 0.952,-0.088c0.285,-0.056 0.533,-0.13 0.743,-0.222l-0.179,-0.837c-0.125,0.043 -0.256,0.081 -0.392,0.115c-0.136,0.033 -0.28,0.058 -0.439,0.076c-0.156,0.018 -0.326,0.028 -0.516,0.028c-0.198,0 -0.385,-0.023 -0.562,-0.072c-0.176,-0.048 -0.332,-0.126 -0.47,-0.227c-0.138,-0.101 -0.246,-0.233 -0.328,-0.391c-0.081,-0.158 -0.128,-0.348 -0.136,-0.566l3.251,0Zm-3.251,-0.858c0.012,-0.126 0.042,-0.26 0.09,-0.396c0.05,-0.137 0.118,-0.265 0.208,-0.385c0.089,-0.119 0.204,-0.216 0.341,-0.291c0.136,-0.074 0.299,-0.113 0.488,-0.114c0.203,0.001 0.371,0.042 0.504,0.121c0.133,0.08 0.236,0.181 0.311,0.304c0.074,0.123 0.126,0.251 0.154,0.385c0.03,0.136 0.042,0.262 0.039,0.376l-2.135,0Zm4.278,2.942l1.228,0l0,-7.091l-1.228,0l0,7.091Zm2.264,-0.239c0.181,0.101 0.398,0.183 0.652,0.244c0.252,0.061 0.528,0.093 0.824,0.095c0.429,-0.003 0.792,-0.068 1.084,-0.198c0.292,-0.13 0.514,-0.309 0.665,-0.538c0.149,-0.228 0.225,-0.492 0.225,-0.79c-0.002,-0.356 -0.109,-0.653 -0.318,-0.892c-0.21,-0.237 -0.536,-0.433 -0.978,-0.584c-0.205,-0.074 -0.37,-0.145 -0.496,-0.209c-0.124,-0.065 -0.214,-0.133 -0.269,-0.207c-0.056,-0.073 -0.084,-0.161 -0.083,-0.262c0,-0.102 0.027,-0.19 0.079,-0.268c0.051,-0.078 0.127,-0.139 0.228,-0.182c0.103,-0.045 0.225,-0.069 0.372,-0.069c0.144,0.003 0.28,0.017 0.412,0.045c0.131,0.03 0.249,0.067 0.356,0.108c0.104,0.043 0.191,0.084 0.259,0.127l0.249,-0.859c-0.147,-0.08 -0.332,-0.149 -0.555,-0.204c-0.222,-0.054 -0.47,-0.082 -0.741,-0.084c-0.283,0.002 -0.537,0.039 -0.761,0.116c-0.227,0.076 -0.419,0.183 -0.579,0.319c-0.16,0.139 -0.283,0.297 -0.368,0.483c-0.084,0.182 -0.125,0.381 -0.128,0.597c-0.001,0.193 0.045,0.379 0.137,0.555c0.091,0.173 0.236,0.334 0.432,0.481c0.198,0.147 0.454,0.272 0.768,0.38c0.198,0.072 0.355,0.143 0.474,0.208c0.116,0.067 0.198,0.14 0.25,0.22c0.05,0.077 0.075,0.173 0.074,0.28c0,0.108 -0.027,0.204 -0.082,0.284c-0.054,0.083 -0.14,0.147 -0.256,0.193c-0.114,0.047 -0.261,0.072 -0.44,0.072c-0.148,-0.002 -0.301,-0.02 -0.456,-0.054c-0.156,-0.038 -0.302,-0.082 -0.438,-0.136c-0.136,-0.054 -0.251,-0.111 -0.343,-0.168l-0.249,0.897Zm5.684,-6.852l-1.226,0l0,7.091l1.226,0l0,-1.655l0.409,-0.489l1.396,2.144l1.507,0l-2.055,-2.872l1.804,-1.984l-1.475,0l-1.188,1.565c-0.06,0.087 -0.124,0.177 -0.189,0.276c-0.065,0.1 -0.129,0.196 -0.189,0.292l-0.02,0l0,-4.368Zm8.197,2.235l-1.227,0l0,2.932c0,0.07 -0.004,0.138 -0.016,0.204c-0.01,0.066 -0.028,0.125 -0.053,0.174c-0.04,0.108 -0.101,0.214 -0.184,0.312c-0.085,0.1 -0.189,0.182 -0.315,0.247c-0.126,0.064 -0.272,0.097 -0.438,0.1c-0.215,-0.003 -0.39,-0.057 -0.524,-0.165c-0.134,-0.108 -0.231,-0.26 -0.292,-0.459c-0.062,-0.197 -0.094,-0.432 -0.092,-0.703l0,-2.642l-1.227,0l0,2.852c0.001,0.396 0.048,0.728 0.14,0.998c0.092,0.271 0.216,0.49 0.375,0.654c0.157,0.162 0.337,0.281 0.538,0.354c0.2,0.072 0.412,0.11 0.632,0.107c0.22,-0.001 0.415,-0.029 0.586,-0.083c0.172,-0.053 0.321,-0.122 0.449,-0.209c0.128,-0.084 0.233,-0.175 0.321,-0.271c0.09,-0.096 0.159,-0.188 0.211,-0.274l0.029,0l0.06,0.728l1.067,0c-0.009,-0.199 -0.02,-0.419 -0.027,-0.662c-0.008,-0.241 -0.013,-0.505 -0.013,-0.794l0,-3.4Zm0.968,1.774l0,0.848l2.543,0l0,-0.848l-2.543,0Zm3.549,3.062c0.16,0.022 0.367,0.041 0.619,0.06c0.253,0.018 0.548,0.028 0.888,0.029c0.412,0 0.776,-0.023 1.092,-0.069c0.317,-0.047 0.591,-0.115 0.824,-0.206c0.233,-0.092 0.429,-0.206 0.587,-0.342c0.128,-0.111 0.24,-0.235 0.333,-0.376c0.096,-0.14 0.171,-0.296 0.223,-0.466c0.054,-0.17 0.082,-0.356 0.082,-0.554c-0.002,-0.23 -0.038,-0.438 -0.113,-0.62c-0.073,-0.186 -0.173,-0.346 -0.299,-0.486c-0.126,-0.138 -0.272,-0.253 -0.434,-0.346c-0.162,-0.091 -0.331,-0.159 -0.51,-0.204l0,-0.03c0.243,-0.092 0.447,-0.212 0.612,-0.357c0.167,-0.147 0.292,-0.313 0.376,-0.499c0.086,-0.186 0.128,-0.382 0.128,-0.59c0,-0.192 -0.029,-0.371 -0.088,-0.53c-0.058,-0.16 -0.137,-0.302 -0.242,-0.425c-0.104,-0.125 -0.226,-0.228 -0.367,-0.311c-0.148,-0.104 -0.315,-0.186 -0.497,-0.25c-0.182,-0.063 -0.39,-0.108 -0.622,-0.138c-0.233,-0.028 -0.498,-0.041 -0.796,-0.041c-0.234,0 -0.464,0.007 -0.69,0.021c-0.224,0.014 -0.432,0.032 -0.622,0.054c-0.19,0.024 -0.352,0.048 -0.484,0.074l0,6.602Zm1.218,-5.794c0.062,-0.014 0.15,-0.029 0.262,-0.036c0.114,-0.009 0.258,-0.014 0.435,-0.014c0.261,0 0.484,0.032 0.672,0.098c0.188,0.067 0.331,0.168 0.432,0.306c0.101,0.136 0.151,0.31 0.153,0.524c0,0.19 -0.052,0.358 -0.153,0.504c-0.101,0.144 -0.251,0.257 -0.449,0.338c-0.196,0.082 -0.438,0.123 -0.724,0.124l-0.628,0l0,-1.844Zm0,2.732l0.608,0c0.213,0 0.412,0.02 0.598,0.062c0.184,0.041 0.347,0.108 0.487,0.196c0.141,0.09 0.251,0.204 0.329,0.345c0.08,0.139 0.12,0.308 0.122,0.504c-0.002,0.207 -0.044,0.381 -0.123,0.524c-0.08,0.143 -0.189,0.257 -0.329,0.345c-0.14,0.087 -0.3,0.151 -0.478,0.191c-0.18,0.039 -0.368,0.057 -0.566,0.057c-0.14,0 -0.263,0 -0.37,-0.002c-0.106,-0.004 -0.198,-0.012 -0.278,-0.027l0,-2.195Zm5.704,3.082l0,-4.856l-1.227,0l0,4.856l1.227,0Zm-0.608,-6.88c-0.139,0.001 -0.258,0.03 -0.362,0.088c-0.101,0.057 -0.182,0.137 -0.238,0.237c-0.059,0.101 -0.087,0.215 -0.088,0.343c0.001,0.121 0.029,0.23 0.084,0.33c0.057,0.098 0.134,0.178 0.236,0.236c0.101,0.06 0.221,0.09 0.357,0.091c0.143,-0.001 0.268,-0.031 0.372,-0.091c0.104,-0.058 0.184,-0.138 0.24,-0.236c0.056,-0.1 0.087,-0.209 0.087,-0.33c-0.004,-0.128 -0.034,-0.242 -0.09,-0.343c-0.057,-0.1 -0.136,-0.18 -0.237,-0.237c-0.101,-0.058 -0.223,-0.087 -0.361,-0.088Zm5.704,3.968c0.001,-0.27 -0.031,-0.527 -0.095,-0.771c-0.065,-0.244 -0.173,-0.464 -0.324,-0.656c-0.152,-0.193 -0.357,-0.344 -0.617,-0.456c-0.259,-0.112 -0.582,-0.169 -0.97,-0.171c-0.256,0.002 -0.494,0.022 -0.716,0.063c-0.221,0.04 -0.418,0.091 -0.594,0.156c-0.175,0.065 -0.323,0.135 -0.444,0.209l0.24,0.799c0.11,-0.071 0.237,-0.133 0.378,-0.187c0.142,-0.053 0.291,-0.096 0.448,-0.126c0.159,-0.03 0.319,-0.047 0.479,-0.047c0.213,0.003 0.385,0.032 0.517,0.088c0.131,0.057 0.231,0.128 0.3,0.216c0.068,0.088 0.112,0.18 0.138,0.276c0.022,0.097 0.034,0.187 0.033,0.268l0,0.08c-0.6,-0.004 -1.115,0.063 -1.545,0.201c-0.43,0.136 -0.759,0.342 -0.988,0.615c-0.231,0.272 -0.348,0.613 -0.35,1.019c0,0.185 0.036,0.365 0.102,0.537c0.066,0.172 0.165,0.325 0.296,0.461c0.129,0.139 0.289,0.247 0.478,0.324c0.188,0.08 0.406,0.122 0.651,0.123c0.212,-0.001 0.409,-0.028 0.592,-0.083c0.18,-0.056 0.341,-0.132 0.484,-0.229c0.144,-0.096 0.264,-0.208 0.36,-0.336l0.029,0l0.09,0.539l1.108,0c-0.031,-0.152 -0.051,-0.33 -0.063,-0.532c-0.012,-0.202 -0.017,-0.414 -0.017,-0.635l0,-1.745Zm-1.198,1.206c0,0.046 0,0.091 -0.002,0.135c-0.004,0.045 -0.012,0.089 -0.027,0.135c-0.04,0.118 -0.105,0.228 -0.193,0.329c-0.088,0.1 -0.198,0.181 -0.328,0.243c-0.131,0.062 -0.28,0.094 -0.447,0.096c-0.131,0 -0.249,-0.024 -0.353,-0.075c-0.106,-0.049 -0.188,-0.125 -0.25,-0.229c-0.061,-0.103 -0.093,-0.235 -0.094,-0.394c0.001,-0.182 0.049,-0.336 0.142,-0.456c0.094,-0.117 0.22,-0.212 0.379,-0.278c0.16,-0.067 0.341,-0.114 0.541,-0.14c0.204,-0.026 0.414,-0.036 0.632,-0.034l0,0.668Zm3.78,1.706l0,-3.47l0.708,-0.578l0,-0.918l-0.708,0.588l0,-2.713l-1.226,0l0,3.631l-0.659,0.548l0,0.908l0.659,-0.548l0,2.552l1.226,0Zm5.495,-2.084c0.009,-0.055 0.02,-0.127 0.028,-0.215c0.007,-0.088 0.012,-0.189 0.012,-0.304c0,-0.216 -0.023,-0.433 -0.067,-0.655c-0.045,-0.222 -0.117,-0.436 -0.216,-0.638c-0.1,-0.203 -0.23,-0.386 -0.394,-0.544c-0.163,-0.162 -0.36,-0.291 -0.595,-0.383c-0.233,-0.093 -0.508,-0.141 -0.823,-0.143c-0.31,0.002 -0.593,0.048 -0.844,0.143c-0.25,0.092 -0.472,0.223 -0.662,0.388c-0.192,0.167 -0.351,0.36 -0.48,0.581c-0.128,0.219 -0.224,0.456 -0.288,0.711c-0.066,0.256 -0.099,0.519 -0.099,0.789c0.001,0.499 0.101,0.931 0.3,1.296c0.197,0.367 0.481,0.651 0.853,0.852c0.372,0.2 0.823,0.303 1.35,0.306c0.35,-0.002 0.669,-0.032 0.953,-0.088c0.285,-0.056 0.533,-0.13 0.743,-0.222l-0.18,-0.837c-0.124,0.043 -0.256,0.081 -0.391,0.115c-0.136,0.033 -0.28,0.058 -0.439,0.076c-0.156,0.018 -0.326,0.028 -0.516,0.028c-0.198,0 -0.386,-0.023 -0.562,-0.072c-0.176,-0.048 -0.332,-0.126 -0.47,-0.227c-0.138,-0.101 -0.246,-0.233 -0.328,-0.391c-0.081,-0.158 -0.128,-0.348 -0.136,-0.566l3.251,0Zm-3.251,-0.858c0.012,-0.126 0.042,-0.26 0.09,-0.396c0.049,-0.137 0.117,-0.265 0.208,-0.385c0.089,-0.119 0.204,-0.216 0.34,-0.291c0.137,-0.074 0.3,-0.113 0.489,-0.114c0.203,0.001 0.371,0.042 0.504,0.121c0.132,0.08 0.235,0.181 0.309,0.304c0.076,0.123 0.127,0.251 0.156,0.385c0.03,0.136 0.042,0.262 0.038,0.376l-2.134,0Zm3.32,5.066c0.206,0 0.412,-0.02 0.62,-0.058c0.208,-0.04 0.406,-0.101 0.592,-0.186c0.188,-0.083 0.352,-0.191 0.494,-0.324c0.146,-0.144 0.266,-0.315 0.361,-0.508c0.095,-0.196 0.164,-0.422 0.209,-0.679c0.044,-0.257 0.068,-0.553 0.068,-0.888l0,-4.337l-1.226,0l0,3.989c0,0.263 -0.006,0.487 -0.019,0.675c-0.012,0.185 -0.029,0.344 -0.055,0.469c-0.025,0.129 -0.057,0.235 -0.1,0.321c-0.04,0.086 -0.089,0.158 -0.145,0.219c-0.1,0.105 -0.228,0.185 -0.384,0.244c-0.155,0.056 -0.333,0.091 -0.535,0.105l0.12,0.958Zm1.746,-9.004c-0.14,0.001 -0.263,0.03 -0.367,0.088c-0.105,0.057 -0.185,0.137 -0.244,0.237c-0.057,0.101 -0.085,0.215 -0.088,0.343c0,0.121 0.029,0.23 0.084,0.33c0.055,0.098 0.131,0.178 0.232,0.236c0.101,0.06 0.223,0.09 0.363,0.091c0.146,-0.001 0.273,-0.031 0.376,-0.091c0.104,-0.058 0.184,-0.138 0.238,-0.236c0.055,-0.1 0.083,-0.209 0.083,-0.33c-0.003,-0.128 -0.032,-0.242 -0.089,-0.343c-0.055,-0.1 -0.132,-0.18 -0.232,-0.237c-0.1,-0.058 -0.22,-0.087 -0.356,-0.088" style="fill:#1b4d98;fill-rule:nonzero;"/></g><rect x="0.806" y="1.762" width="54.477" height="54.477" style="fill:none;stroke:#1b4d98;stroke-width:1.48px;"/><path d="M47.753,28.69l0,6.864l-7.405,0l0,-6.864l-3.808,0l0,18.67l3.808,0l0,-8.344l7.405,0l0,8.344l3.808,0l0,-18.67l-3.808,0Z" style="fill:#1b4d98;fill-rule:nonzero;"/><path d="M34.73,35.619l-12.995,0l0,3.464l4.522,0l0,13.911l3.937,0l0,-13.911l4.536,0l0,-3.464Z" style="fill:#1b4d98;fill-rule:nonzero;"/><path d="M19.695,38.005c1.366,-6.401 4.44,-11.789 8.721,-16.428c-6.149,-6.022 -14.567,-8.205 -23.853,-8.205c-1.094,0 -2.179,0.052 -3.243,0.152c1.043,-0.092 2.796,-0.373 3.865,-0.448c5.639,-0.395 12.147,-0.075 16.904,2.256c5.497,-4.656 10.845,-7.621 18.613,-7.621c5.232,0 10.17,1.274 14.512,3.529c0.09,0.047 0.086,2.135 -0.006,2.084l-0.379,0.048c-16.235,0 -31.73,9.436 -35.134,24.633Zm9.997,-17.744c0,0 8.496,-7.733 22.054,-8.594c-3.413,-1.368 -7.141,-2.122 -11.044,-2.122c-7.046,0 -13.518,1.687 -18.613,5.787c2.731,1.248 5.34,2.712 7.603,4.929" style="fill:#1b4d98;fill-rule:nonzero;"/><path d="M14.611,24.79l-4.02,0l-7.299,18.733l4.025,0l1.56,-4.425l7.543,0l1.624,4.425l4.097,0l-7.53,-18.733Zm-4.576,10.844l2.536,-6.671l2.614,6.671l-5.15,0Z" style="fill:#1b4d98;fill-rule:nonzero;"/></svg>