<?xml version="1.0" encoding="UTF-8" standalone="no"?>
<!-- Created with Inkscape (http://www.inkscape.org/) -->

<svg
   version="1.1"
   id="svg9"
   width="574.15723"
   height="347.15228"
   viewBox="0 0 574.15722 347.15228"
   sodipodi:docname="logo_bitad.pdf"
   xmlns:inkscape="http://www.inkscape.org/namespaces/inkscape"
   xmlns:sodipodi="http://sodipodi.sourceforge.net/DTD/sodipodi-0.dtd"
   xmlns="http://www.w3.org/2000/svg"
   xmlns:svg="http://www.w3.org/2000/svg">
  <defs
     id="defs13">
    <clipPath
       clipPathUnits="userSpaceOnUse"
       id="clipPath41">
      <path
         d="M 0,0 H 595.276 V 841.89 H 0 Z"
         id="path39" />
    </clipPath>
    <clipPath
       clipPathUnits="userSpaceOnUse"
       id="clipPath65">
      <path
         d="M 0,0 H 595.276 V 841.89 H 0 Z"
         id="path63" />
    </clipPath>
    <clipPath
       clipPathUnits="userSpaceOnUse"
       id="clipPath91">
      <path
         d="M 0,0 H 595.276 V 841.89 H 0 Z"
         id="path89" />
    </clipPath>
    <clipPath
       clipPathUnits="userSpaceOnUse"
       id="clipPath107">
      <path
         d="M 0,0 H 595.276 V 841.89 H 0 Z"
         id="path105" />
    </clipPath>
    <clipPath
       clipPathUnits="userSpaceOnUse"
       id="clipPath129">
      <path
         d="M 0,0 H 595.276 V 841.89 H 0 Z"
         id="path127" />
    </clipPath>
  </defs>
  <sodipodi:namedview
     id="namedview11"
     pagecolor="#505050"
     bordercolor="#eeeeee"
     borderopacity="1"
     inkscape:showpageshadow="0"
     inkscape:pageopacity="0"
     inkscape:pagecheckerboard="0"
     inkscape:deskcolor="#505050"
     showgrid="false" />
  <g
     id="g17"
     inkscape:groupmode="layer"
     inkscape:label="Page 1"
     transform="matrix(1.3333333,0,0,-1.3333333,-103.93733,826.77158)">
    <g
       id="g401"
       inkscape:export-filename="../df432371/bitad.svg"
       inkscape:export-xdpi="85.04"
       inkscape:export-ydpi="85.04">
      <g
         id="g19"
         transform="translate(145.6289,521.6069)">
        <path
           d="m 0,0 h 13.872 l 91.524,91.525 -6.934,6.937 z"
           style="fill:#4e92d3;fill-opacity:1;fill-rule:nonzero;stroke:none"
           id="path21" />
      </g>
      <g
         id="g23"
         transform="translate(244.1072,620.0787)">
        <path
           d="m 0,0 -0.014,-0.013 -6.922,-6.923 50.3,-50.3 6.936,6.936 -35.201,35.201 z"
           style="fill:#4e92d3;fill-opacity:1;fill-rule:nonzero;stroke:none"
           id="path25" />
      </g>
      <g
         id="g27"
         transform="translate(319.5603,583.7834)">
        <path
           d="m 0,0 -2.523,-2.523 -36.949,-36.949 -23.5,-22.705 h 13.632 l 7.972,6.939 34.905,34.903 13.399,13.399 z"
           style="fill:#4e92d3;fill-opacity:1;fill-rule:nonzero;stroke:none"
           id="path29" />
      </g>
      <g
         id="g31"
         transform="translate(328.3108,575.033)">
        <path
           d="m 0,0 -8.32,8.32 -6.936,-6.936 54.811,-54.81 h 13.871 z"
           style="fill:#4e92d3;fill-opacity:1;fill-rule:nonzero;stroke:none"
           id="path33" />
      </g>
      <g
         id="g35">
        <g
           id="g37"
           clip-path="url(#clipPath41)">
          <g
             id="g43"
             transform="translate(77.9663,412.0242)">
            <path
               d="m 0,0 v 104.232 h 36.51 c 12.646,0 22.239,-2.421 28.78,-7.266 6.538,-4.844 9.807,-11.943 9.807,-21.297 0,-5.107 -1.314,-9.605 -3.939,-13.495 -2.624,-3.889 -6.275,-6.74 -10.951,-8.554 5.344,-1.336 9.556,-4.032 12.636,-8.091 3.076,-4.056 4.616,-9.018 4.616,-14.889 0,-10.023 -3.198,-17.612 -9.594,-22.766 C 61.469,2.721 52.355,0.096 40.52,0 Z M 21.477,60.564 H 37.37 c 10.833,0.191 16.25,4.509 16.25,12.957 0,4.726 -1.373,8.126 -4.116,10.201 -2.744,2.077 -7.076,3.113 -12.994,3.113 H 21.477 Z m 0,-15.177 V 17.254 h 18.398 c 5.058,0 9.008,1.203 11.849,3.614 2.839,2.411 4.258,5.738 4.258,9.986 0,9.546 -4.938,14.39 -14.818,14.533 z"
               style="fill:#1a334d;fill-opacity:1;fill-rule:nonzero;stroke:none"
               id="path45" />
          </g>
          <g
             id="g47"
             transform="translate(205.823,410.5923)">
            <path
               d="m 0,0 c -11.358,0 -20.605,3.484 -27.74,10.452 -7.135,6.968 -10.703,16.25 -10.703,27.849 v 2.004 c 0,7.778 1.505,14.734 4.51,20.867 3.008,6.134 7.266,10.858 12.778,14.175 5.515,3.317 11.8,4.974 18.864,4.974 10.595,0 18.936,-3.339 25.02,-10.02 6.087,-6.683 9.129,-16.156 9.129,-28.422 v -8.447 h -49.325 c 0.668,-5.058 2.684,-9.115 6.05,-12.169 3.364,-3.055 7.624,-4.582 12.778,-4.582 7.969,0 14.198,2.886 18.684,8.661 L 30.211,13.961 C 27.107,9.569 22.909,6.145 17.612,3.688 12.314,1.23 6.443,0 0,0 m -2.362,63.642 c -4.105,0 -7.434,-1.39 -9.986,-4.17 -2.553,-2.782 -4.189,-6.761 -4.903,-11.937 h 28.777 v 1.654 C 11.43,53.791 10.19,57.35 7.803,59.867 5.417,62.384 2.028,63.642 -2.362,63.642"
               style="fill:#1a334d;fill-opacity:1;fill-rule:nonzero;stroke:none"
               id="path49" />
          </g>
          <g
             id="g51"
             transform="translate(291.3718,433.4291)">
            <path
               d="m 0,0 c 0,2.529 -1.252,4.523 -3.759,5.978 -2.505,1.454 -6.526,2.756 -12.063,3.902 -18.422,3.865 -27.633,11.693 -27.633,23.48 0,6.873 2.853,12.611 8.555,17.218 5.703,4.606 13.16,6.907 22.373,6.907 9.831,0 17.693,-2.314 23.588,-6.944 5.893,-4.629 8.84,-10.642 8.84,-18.04 H -0.788 c 0,2.959 -0.953,5.404 -2.863,7.337 -1.908,1.934 -4.891,2.899 -8.948,2.899 -3.484,0 -6.182,-0.785 -8.09,-2.361 -1.91,-1.575 -2.863,-3.58 -2.863,-6.014 0,-2.291 1.083,-4.139 3.256,-5.548 2.173,-1.408 5.834,-2.625 10.99,-3.651 5.154,-1.025 9.497,-2.184 13.028,-3.472 10.929,-4.008 16.394,-10.954 16.394,-20.832 0,-7.064 -3.03,-12.779 -9.092,-17.146 -6.06,-4.367 -13.887,-6.55 -23.48,-6.55 -6.492,0 -12.255,1.158 -17.288,3.472 -5.038,2.315 -8.986,5.49 -11.85,9.521 -2.863,4.032 -4.294,8.388 -4.294,13.065 h 19.616 c 0.189,-3.675 1.549,-6.489 4.08,-8.446 2.529,-1.957 5.916,-2.937 10.166,-2.937 3.96,0 6.955,0.752 8.984,2.257 C -1.014,-4.402 0,-2.434 0,0"
               style="fill:#1a334d;fill-opacity:1;fill-rule:nonzero;stroke:none"
               id="path53" />
          </g>
        </g>
      </g>
      <g
         id="g55"
         transform="translate(352.938,443.0933)">
        <path
           d="M 0,0 -7.445,-7.444 V -31.07 H -28.134 V 78.89 H -7.445 V 17.968 l 4.009,5.154 19.83,23.267 H 41.235 L 13.244,14.104 43.668,-31.07 H 19.9 Z"
           style="fill:#1a334d;fill-opacity:1;fill-rule:nonzero;stroke:none"
           id="path57" />
      </g>
      <g
         id="g59">
        <g
           id="g61"
           clip-path="url(#clipPath65)">
          <g
             id="g67"
             transform="translate(402.9778,509.5267)">
            <path
               d="m 0,0 c 0,3.104 1.039,5.657 3.115,7.661 2.076,2.004 4.904,3.007 8.484,3.007 3.531,0 6.347,-1.003 8.447,-3.007 2.099,-2.004 3.15,-4.557 3.15,-7.661 0,-3.15 -1.063,-5.726 -3.187,-7.731 -2.124,-2.004 -4.928,-3.006 -8.41,-3.006 -3.484,0 -6.288,1.002 -8.412,3.006 C 1.063,-5.726 0,-3.15 0,0 M 21.978,-97.503 H 1.218 v 77.459 h 20.76 z"
               style="fill:#1a334d;fill-opacity:1;fill-rule:nonzero;stroke:none"
               id="path69" />
          </g>
          <g
             id="g71"
             transform="translate(438.7729,451.3264)">
            <path
               d="m 0,0 c 0,12.075 2.708,21.691 8.125,28.851 5.416,7.157 12.826,10.737 22.228,10.737 7.54,0 13.769,-2.817 18.685,-8.447 v 39.517 h 20.76 V -39.303 H 51.113 l -1.002,8.234 c -5.154,-6.444 -11.788,-9.665 -19.901,-9.665 -9.116,0 -16.43,3.592 -21.943,10.774 C 2.755,-22.778 0,-12.79 0,0 m 20.689,-1.539 c 0,-7.266 1.264,-12.835 3.793,-16.706 2.529,-3.873 6.205,-5.81 11.025,-5.81 6.396,0 10.906,2.702 13.531,8.103 v 30.616 c -2.578,5.4 -7.039,8.102 -13.387,8.102 -9.975,0 -14.962,-8.102 -14.962,-24.305"
               style="fill:#1a334d;fill-opacity:1;fill-rule:nonzero;stroke:none"
               id="path73" />
          </g>
        </g>
      </g>
      <path
         d="m 81.133,360.222 h -3.18 v 37.639 h 3.18 z"
         style="fill:#1a334d;fill-opacity:1;fill-rule:nonzero;stroke:none"
         id="path75" />
      <g
         id="g77"
         transform="translate(116.1353,395.1729)">
        <path
           d="m 0,0 h -12.9 v -34.951 h -3.178 V 0 H -28.954 V 2.688 H 0 Z"
           style="fill:#1a334d;fill-opacity:1;fill-rule:nonzero;stroke:none"
           id="path79" />
      </g>
      <g
         id="g81"
         transform="translate(157.1748,370.8057)">
        <path
           d="m 0,0 h -17.087 l -3.879,-10.575 h -3.333 l 14.244,37.642 h 3.024 L 7.213,-10.575 H 3.904 Z m -16.105,2.688 h 15.097 l -7.549,20.499 z"
           style="fill:#1a334d;fill-opacity:1;fill-rule:nonzero;stroke:none"
           id="path83" />
      </g>
      <g
         id="g85">
        <g
           id="g87"
           clip-path="url(#clipPath91)">
          <g
             id="g93"
             transform="translate(196.2883,371.9685)">
            <path
               d="m 0,0 c -0.429,-3.963 -1.849,-6.999 -4.251,-9.1 -2.405,-2.102 -5.607,-3.154 -9.606,-3.154 -2.792,0 -5.26,0.698 -7.406,2.095 -2.146,1.395 -3.804,3.374 -4.977,5.931 -1.171,2.562 -1.765,5.486 -1.783,8.777 v 4.887 c 0,3.342 0.586,6.306 1.759,8.892 1.171,2.587 2.855,4.581 5.052,5.983 2.199,1.407 4.728,2.11 7.589,2.11 4.032,0 7.217,-1.088 9.551,-3.258 C -1.737,20.992 -0.379,17.984 0,14.14 h -3.205 c -0.792,6.394 -4.266,9.591 -10.418,9.591 -3.413,0 -6.131,-1.277 -8.157,-3.83 -2.024,-2.55 -3.039,-6.079 -3.039,-10.581 V 4.714 c 0,-4.344 0.988,-7.811 2.961,-10.399 1.974,-2.586 4.641,-3.88 8.001,-3.88 3.327,0 5.834,0.796 7.524,2.391 1.688,1.594 2.731,3.987 3.128,7.174 z"
               style="fill:#1a334d;fill-opacity:1;fill-rule:nonzero;stroke:none"
               id="path95" />
          </g>
        </g>
      </g>
      <g
         id="g97"
         transform="translate(224.3367,370.8057)">
        <path
           d="m 0,0 h -17.086 l -3.879,-10.575 h -3.334 l 14.244,37.642 h 3.024 L 7.212,-10.575 H 3.904 Z m -16.105,2.688 h 15.097 l -7.549,20.499 z"
           style="fill:#1a334d;fill-opacity:1;fill-rule:nonzero;stroke:none"
           id="path99" />
      </g>
      <g
         id="g101">
        <g
           id="g103"
           clip-path="url(#clipPath107)">
          <g
             id="g109"
             transform="translate(237.0811,360.2321)">
            <path
               d="m 0,0 v 37.639 h 10.521 c 3.087,0 5.853,-0.701 8.3,-2.108 2.446,-1.403 4.356,-3.417 5.726,-6.035 1.371,-2.619 2.055,-5.602 2.055,-8.943 v -3.464 c 0,-3.362 -0.682,-6.344 -2.043,-8.946 C 23.199,5.541 21.281,3.533 18.807,2.12 16.335,0.707 13.495,0 10.289,0 Z M 3.18,34.951 V 2.688 h 7.135 c 3.965,0 7.144,1.315 9.539,3.946 2.396,2.631 3.594,6.188 3.594,10.672 v 3.311 c 0,4.329 -1.179,7.797 -3.542,10.4 -2.361,2.606 -5.471,3.915 -9.332,3.934 z"
               style="fill:#1a334d;fill-opacity:1;fill-rule:nonzero;stroke:none"
               id="path111" />
          </g>
        </g>
      </g>
      <g
         id="g113"
         transform="translate(292.5332,378.2758)">
        <path
           d="M 0,0 H -17.606 V -15.356 H 2.637 v -2.688 H -20.785 V 19.595 H 2.506 V 16.907 H -17.606 V 2.688 H 0 Z"
           style="fill:#1a334d;fill-opacity:1;fill-rule:nonzero;stroke:none"
           id="path115" />
      </g>
      <g
         id="g117"
         transform="translate(306.0791,397.8717)">
        <path
           d="M 0,0 13.882,-33.218 27.816,0 h 4.239 v -37.639 h -3.178 v 16.388 L 29.135,-4.447 15.124,-37.639 H 12.668 L -1.293,-4.576 -1.034,-21.147 V -37.639 H -4.213 V 0 Z"
           style="fill:#1a334d;fill-opacity:1;fill-rule:nonzero;stroke:none"
           id="path119" />
      </g>
      <path
         d="m 351.551,360.232 h -3.181 v 37.639 h 3.181 z"
         style="fill:#1a334d;fill-opacity:1;fill-rule:nonzero;stroke:none"
         id="path121" />
      <g
         id="g123">
        <g
           id="g125"
           clip-path="url(#clipPath129)">
          <g
             id="g131"
             transform="translate(388.416,371.9685)">
            <path
               d="m 0,0 c -0.43,-3.963 -1.849,-6.999 -4.252,-9.1 -2.405,-2.102 -5.606,-3.154 -9.605,-3.154 -2.792,0 -5.26,0.698 -7.406,2.095 -2.147,1.395 -3.804,3.374 -4.977,5.931 -1.171,2.562 -1.766,5.486 -1.784,8.777 v 4.887 c 0,3.342 0.587,6.306 1.76,8.892 1.17,2.587 2.854,4.581 5.052,5.983 2.199,1.407 4.728,2.11 7.589,2.11 4.032,0 7.217,-1.088 9.55,-3.258 C -1.737,20.992 -0.379,17.984 0,14.14 h -3.206 c -0.791,6.394 -4.266,9.591 -10.417,9.591 -3.413,0 -6.131,-1.277 -8.157,-3.83 -2.025,-2.55 -3.039,-6.079 -3.039,-10.581 V 4.714 c 0,-4.344 0.988,-7.811 2.961,-10.399 1.973,-2.586 4.641,-3.88 8.001,-3.88 3.327,0 5.834,0.796 7.524,2.391 1.688,1.594 2.731,3.987 3.127,7.174 z"
               style="fill:#1a334d;fill-opacity:1;fill-rule:nonzero;stroke:none"
               id="path133" />
          </g>
          <g
             id="g135"
             transform="translate(417.5532,360.2279)">
            <path
               d="m 0,0 v 37.639 h 10.521 c 3.088,0 5.853,-0.701 8.301,-2.108 2.445,-1.403 4.355,-3.416 5.726,-6.035 1.37,-2.619 2.054,-5.602 2.054,-8.943 V 17.089 C 26.602,13.727 25.92,10.746 24.56,8.143 23.2,5.541 21.281,3.533 18.807,2.12 16.335,0.707 13.495,0 10.289,0 Z M 3.181,34.951 V 2.688 h 7.135 c 3.965,0 7.143,1.315 9.538,3.946 2.397,2.631 3.594,6.189 3.594,10.672 v 3.311 c 0,4.329 -1.179,7.797 -3.541,10.4 -2.362,2.606 -5.472,3.915 -9.332,3.934 z"
               style="fill:#1a334d;fill-opacity:1;fill-rule:nonzero;stroke:none"
               id="path137" />
          </g>
        </g>
      </g>
      <g
         id="g139"
         transform="translate(471.9971,370.8016)">
        <path
           d="m 0,0 h -17.086 l -3.88,-10.574 h -3.333 l 14.244,37.641 h 3.024 L 7.213,-10.574 H 3.904 Z m -16.105,2.688 h 15.097 l -7.549,20.499 z"
           style="fill:#1a334d;fill-opacity:1;fill-rule:nonzero;stroke:none"
           id="path141" />
      </g>
      <g
         id="g143"
         transform="translate(493.3508,377.3414)">
        <path
           d="m 0,0 11.503,20.526 h 3.671 L 1.576,-2.946 v -14.167 h -3.179 v 14.167 l -13.572,23.472 h 3.774 z"
           style="fill:#1a334d;fill-opacity:1;fill-rule:nonzero;stroke:none"
           id="path145" />
      </g>
      <g
         id="g147"
         transform="translate(218.4067,520.3065)">
        <path
           d="M 0,0 -9.258,9.098 -18.356,-0.16"
           style="fill:#4e92d3;fill-opacity:1;fill-rule:nonzero;stroke:none"
           id="path149" />
      </g>
      <g
         id="g151"
         transform="translate(212.685,533.8734)">
        <path
           d="M 0,0 9.258,-9.098 18.356,0.16 9.098,9.258 Z"
           style="fill:#4e92d3;fill-opacity:1;fill-rule:nonzero;stroke:none"
           id="path153" />
      </g>
      <g
         id="g155"
         transform="translate(244.1827,521.1195)">
        <path
           d="M 0,0 -9.258,9.098 -18.356,-0.16"
           style="fill:#4e92d3;fill-opacity:1;fill-rule:nonzero;stroke:none"
           id="path157" />
      </g>
      <g
         id="g159"
         transform="translate(225.4366,546.7876)">
        <path
           d="M 0,0 9.258,-9.098 18.356,0.16 9.098,9.258 Z"
           style="fill:#4e92d3;fill-opacity:1;fill-rule:nonzero;stroke:none"
           id="path161" />
      </g>
      <g
         id="g163"
         transform="translate(238.5782,533.8734)">
        <path
           d="M 0,0 9.258,-9.098 18.356,0.16 9.098,9.258 Z"
           style="fill:#4e92d3;fill-opacity:1;fill-rule:nonzero;stroke:none"
           id="path165" />
      </g>
      <g
         id="g167"
         transform="translate(238.5782,559.7018)">
        <path
           d="M 0,0 9.258,-9.098 18.356,0.16 9.098,9.258 Z"
           style="fill:#4e92d3;fill-opacity:1;fill-rule:nonzero;stroke:none"
           id="path169" />
      </g>
      <g
         id="g171"
         transform="translate(251.7198,546.7876)">
        <path
           d="M 0,0 9.258,-9.098 18.356,0.16 9.098,9.258 Z"
           style="fill:#4e92d3;fill-opacity:1;fill-rule:nonzero;stroke:none"
           id="path173" />
      </g>
    </g>
  </g>
</svg>
