<?xml version="1.0" encoding="UTF-8" standalone="no"?><!DOCTYPE svg PUBLIC "-//W3C//DTD SVG 1.1//EN" "http://www.w3.org/Graphics/SVG/1.1/DTD/svg11.dtd"><svg width="100%" height="100%" viewBox="0 0 224 185" version="1.1" xmlns="http://www.w3.org/2000/svg" xmlns:xlink="http://www.w3.org/1999/xlink" xml:space="preserve" xmlns:serif="http://www.serif.com/" style="fill-rule:evenodd;clip-rule:evenodd;stroke-linejoin:round;stroke-miterlimit:2;"><path d="M132.623,103.778l14.437,-0.001c0.021,-0.003 0.043,-0.005 0.064,-0.005c0.222,0 0.405,0.183 0.405,0.405c0,0.02 -0.001,0.039 -0.004,0.058l0,1.927c0.003,0.019 0.004,0.038 0.004,0.057c0,0.226 -0.186,0.412 -0.413,0.412c-0.018,0 -0.037,-0.001 -0.056,-0.004l-18.352,0c-0.02,0.003 -0.039,0.005 -0.058,0.005c-0.222,0 -0.405,-0.183 -0.405,-0.405c0,-0.022 0.002,-0.043 0.005,-0.065l0,-1.927c-0.003,-0.209 0.081,-0.411 0.232,-0.555c1.046,-1.225 3.391,-4.107 7.036,-8.648l3.404,-4.23c2.88,-3.644 4.32,-6.482 4.32,-8.512c0.06,-1.482 -0.545,-2.917 -1.649,-3.907c-1.202,-1.027 -2.749,-1.563 -4.328,-1.5c-1.55,-0.067 -3.068,0.471 -4.23,1.5c-1.08,1.014 -1.655,2.458 -1.567,3.937l0,1.425c0.002,0.019 0.003,0.038 0.003,0.056c0,0.223 -0.182,0.405 -0.405,0.405c-0.018,0 -0.037,-0.001 -0.056,-0.003l-2.392,0c-0.019,0.002 -0.038,0.003 -0.057,0.003c-0.222,0 -0.405,-0.182 -0.405,-0.405c0,-0.018 0.001,-0.037 0.004,-0.056l0,-1.823c-0.015,-2.197 0.954,-4.29 2.64,-5.7c1.82,-1.481 4.12,-2.249 6.465,-2.16c1.685,-0.033 3.355,0.329 4.875,1.058c2.745,1.292 4.481,4.092 4.418,7.125c0,2.61 -1.443,5.755 -4.328,9.435c-1.5,1.925 -4.398,5.48 -8.692,10.665l-1.013,1.2c-0.09,0.15 -0.06,0.232 0.098,0.232Z" style="fill:#16334f;fill-rule:nonzero;"/><path d="M156.06,104.558c-1.778,-1.784 -2.728,-4.234 -2.618,-6.751l0,-14.55c-0.125,-2.518 0.827,-4.974 2.618,-6.75c1.745,-1.67 4.092,-2.505 7.042,-2.505c2.95,0 5.325,0.843 7.125,2.528c1.807,1.753 2.78,4.198 2.67,6.712l0,14.535c0.111,2.527 -0.861,4.983 -2.67,6.75c-1.78,1.69 -4.155,2.533 -7.125,2.528c-2.97,-0.005 -5.317,-0.838 -7.042,-2.498Zm11.775,-2.025c1.219,-1.191 1.874,-2.848 1.8,-4.552l0,-14.858c0.071,-1.683 -0.575,-3.319 -1.778,-4.499c-1.295,-1.177 -3.007,-1.79 -4.755,-1.703c-1.715,-0.08 -3.391,0.534 -4.65,1.703c-1.186,1.188 -1.82,2.822 -1.747,4.499l0,14.85c-0.079,1.695 0.555,3.347 1.747,4.553c1.259,1.168 2.935,1.782 4.65,1.703c1.744,0.085 3.453,-0.525 4.748,-1.695l-0.015,-0.001Z" style="fill:#16334f;fill-rule:nonzero;"/><path d="M183.262,103.778l14.438,-0.001c0.021,-0.003 0.043,-0.005 0.064,-0.005c0.222,0 0.405,0.183 0.405,0.405c0,0.02 -0.001,0.039 -0.004,0.058l0,1.927c0.003,0.019 0.004,0.038 0.004,0.057c0,0.226 -0.186,0.412 -0.413,0.412c-0.018,0 -0.037,-0.001 -0.056,-0.004l-18.352,0c-0.017,0.002 -0.033,0.003 -0.049,0.003c-0.227,0 -0.413,-0.186 -0.413,-0.412c0,-0.019 0.002,-0.037 0.004,-0.056l0,-1.927c-0.003,-0.209 0.081,-0.411 0.233,-0.555c1.04,-1.225 3.385,-4.107 7.035,-8.648l3.405,-4.23c2.88,-3.644 4.32,-6.482 4.32,-8.512c0.059,-1.482 -0.546,-2.917 -1.65,-3.907c-1.202,-1.027 -2.749,-1.563 -4.328,-1.5c-1.55,-0.067 -3.068,0.471 -4.23,1.5c-1.08,1.014 -1.655,2.458 -1.567,3.937l0,1.425c0.002,0.019 0.003,0.038 0.003,0.056c0,0.223 -0.182,0.405 -0.405,0.405c-0.018,0 -0.037,-0.001 -0.056,-0.003l-2.392,0c-0.019,0.002 -0.038,0.003 -0.057,0.003c-0.222,0 -0.405,-0.182 -0.405,-0.405c0,-0.018 0.001,-0.037 0.004,-0.056l0,-1.823c-0.012,-2.198 0.96,-4.291 2.648,-5.7c1.817,-1.481 4.114,-2.249 6.457,-2.16c1.685,-0.033 3.355,0.329 4.875,1.058c2.745,1.292 4.481,4.092 4.418,7.125c0,2.61 -1.44,5.755 -4.32,9.435c-1.5,1.925 -4.4,5.48 -8.7,10.665l-1.013,1.2c-0.105,0.15 -0.06,0.232 0.098,0.232Z" style="fill:#16334f;fill-rule:nonzero;"/><path d="M206.715,104.558c-1.778,-1.784 -2.728,-4.234 -2.617,-6.751l0,-14.55c-0.126,-2.518 0.826,-4.974 2.617,-6.75c1.745,-1.67 4.093,-2.505 7.042,-2.505c2.95,0 5.325,0.843 7.125,2.528c1.807,1.753 2.78,4.198 2.671,6.712l0,14.535c0.11,2.527 -0.862,4.983 -2.67,6.75c-1.78,1.69 -4.156,2.533 -7.126,2.528c-2.969,-0.005 -5.317,-0.838 -7.042,-2.498Zm11.775,-2.025c1.219,-1.191 1.874,-2.848 1.8,-4.552l0,-14.858c0.067,-1.681 -0.575,-3.315 -1.77,-4.5c-1.298,-1.176 -3.013,-1.789 -4.763,-1.702c-1.715,-0.08 -3.391,0.534 -4.65,1.703c-1.186,1.188 -1.82,2.822 -1.747,4.499l0,14.85c-0.079,1.695 0.555,3.347 1.747,4.553c1.259,1.168 2.935,1.782 4.65,1.703c1.739,0.081 3.441,-0.529 4.733,-1.695Z" style="fill:#16334f;fill-rule:nonzero;"/><path id="path18" d="M175.44,112.523c-0.035,-0.001 -0.07,-0.002 -0.105,-0.002c-2.781,0 -5.07,2.289 -5.07,5.07c0,2.782 2.289,5.07 5.07,5.07c2.778,0 5.065,-2.283 5.07,-5.061c0.004,-0.081 0.006,-0.161 0.006,-0.242c0,-2.654 -2.184,-4.837 -4.837,-4.837c-0.045,0 -0.089,0 -0.134,0.002Zm-47.25,0.885l0,46.29l9.202,0l0,-46.29l-9.202,0Zm86.19,0l0,14.25l-0.113,0c-1.98,-1.98 -5.73,-3.248 -9.645,-3.248c-11.737,0 -17.302,7.658 -17.302,17.962c0,10.305 5.73,17.858 17.25,17.858c4.08,0 7.605,-1.155 9.697,-3l0.113,0l0,2.535l9.18,0l0,-46.35l-9.18,-0.007Zm-214.38,1.65l0,44.64l22.95,0c10.695,0 17.085,-5.07 17.085,-13.5c0,-4.845 -2.483,-8.43 -6.113,-9.698l0,-0.052c2.805,-1.875 4.185,-4.965 4.185,-8.49c0,-6.893 -5.25,-12.9 -15.592,-12.9l-22.515,0Zm8.46,8.415l13.5,0c5.017,0 6.615,1.822 6.615,4.635c0,2.535 -1.215,4.792 -6.615,4.792l-13.5,0l0.877,-0.825l0,-7.755l-0.877,-0.847Zm55.387,0.997c-11.797,0 -18.577,7.77 -18.577,18.188c0,9.862 6.232,17.632 19.072,17.632c5.355,0.157 10.575,-1.719 14.603,-5.25l-5.565,-5.625c-2.503,2.175 -5.722,3.353 -9.038,3.308c-4.74,0 -7.935,-2.318 -9.262,-5.843l-0.825,-0.877l27.75,0c0.147,-1.097 0.22,-2.202 0.217,-3.308c0,-10.14 -6,-18.187 -18.345,-18.187l-0.03,-0.038Zm40.5,0.053c-9.862,0 -15.592,4.41 -15.592,10.417c0,6.338 6.112,8.76 12.067,10.245c0.75,0.172 5.453,1.44 6.225,1.605c4.028,0.99 4.5,1.868 4.5,3c0,1.268 -1.545,2.925 -6.832,2.925c-4.21,-0.063 -8.224,-1.812 -11.138,-4.852l-5.895,5.954c4.724,4.236 10.854,6.572 17.198,6.555c10.747,0 15.922,-5.07 15.922,-10.965c0,-5.25 -3.802,-8.25 -11.13,-10.027c-0.75,-0.225 -4.852,-1.328 -5.565,-1.5c-4.245,-1.042 -6.12,-1.597 -6.12,-3c0,-0.99 1.215,-2.752 6.398,-2.752c3.651,-0.01 7.168,1.394 9.81,3.915l5.73,-5.685c-3.945,-3.945 -9.075,-5.873 -15.578,-5.873l0,0.038Zm49.823,0.495l-16.26,17.047l16.5,17.633l11.79,0l-17.363,-17.633l0,-0.112l16.793,-16.98l-11.46,0.045Zm16.642,0l0,34.68l9.203,0l0,-34.725l-9.203,0.045Zm-106.965,6.997c4.403,0 7.215,2.04 8.483,5.678l0.885,0.885l-18.848,0l0.825,-0.885c1.433,-3.525 4.133,-5.678 8.655,-5.678Zm141.795,0.39c6.615,0 9.15,3.855 9.15,10.028c0,6.172 -2.595,9.922 -9.15,9.922c-6.555,0 -9.15,-3.75 -9.15,-9.922c0,-6.173 2.648,-10.065 9.15,-10.065l0,0.037Zm-197.182,8.318l14.49,0c5.79,0 7.552,2.37 7.552,5.407c0,3.038 -1.5,5.25 -7.552,5.25l-14.49,0l0.877,-0.907l0,-8.903l-0.877,-0.847Zm56.61,26.25c-1.2,-0.023 -2.391,0.199 -3.503,0.652c-0.982,0.404 -1.858,1.03 -2.557,1.83c-0.712,0.82 -1.248,1.777 -1.575,2.813c-0.366,1.169 -0.546,2.389 -0.533,3.615c-0.014,1.211 0.158,2.418 0.51,3.577c0.305,1.007 0.816,1.939 1.5,2.737c0.703,0.777 1.576,1.38 2.55,1.763c1.133,0.428 2.337,0.637 3.548,0.615c1.195,0.017 2.383,-0.199 3.495,-0.637c0.966,-0.394 1.83,-1.002 2.527,-1.778l-1.102,-1.103c-0.535,0.669 -1.225,1.197 -2.01,1.538c-0.92,0.389 -1.911,0.581 -2.91,0.562c-0.85,0.01 -1.695,-0.117 -2.505,-0.375c-1.344,-0.433 -2.469,-1.372 -3.135,-2.617c-0.344,-0.628 -0.597,-1.303 -0.75,-2.003c-0.157,-0.739 -0.235,-1.493 -0.233,-2.25c-0.005,-0.786 0.075,-1.571 0.24,-2.34c0.15,-0.715 0.403,-1.404 0.75,-2.047c0.326,-0.618 0.76,-1.172 1.283,-1.635c0.547,-0.476 1.181,-0.843 1.867,-1.08c0.803,-0.267 1.645,-0.399 2.49,-0.39c0.694,-0.004 1.385,0.085 2.055,0.262c0.578,0.161 1.125,0.414 1.62,0.75c0.465,0.311 0.878,0.694 1.223,1.133l1.147,-1.125c-0.69,-0.782 -1.553,-1.393 -2.52,-1.785c-1.121,-0.443 -2.319,-0.657 -3.525,-0.63l0.053,-0.053Zm91.192,0c-1.199,-0.022 -2.391,0.2 -3.502,0.653c-0.983,0.404 -1.858,1.03 -2.558,1.83c-0.711,0.82 -1.247,1.777 -1.575,2.812c-0.366,1.17 -0.546,2.39 -0.532,3.615c-0.014,1.212 0.158,2.419 0.51,3.578c0.314,1.011 0.838,1.944 1.537,2.737c0.703,0.777 1.576,1.38 2.55,1.763c1.133,0.428 2.337,0.637 3.548,0.615c1.195,0.017 2.383,-0.199 3.495,-0.638c0.966,-0.393 1.83,-1.001 2.527,-1.777l-1.102,-1.103c-0.535,0.669 -1.225,1.197 -2.01,1.538c-0.92,0.389 -1.911,0.581 -2.91,0.562c-0.85,0.01 -1.695,-0.117 -2.505,-0.375c-1.344,-0.433 -2.469,-1.372 -3.135,-2.617c-0.344,-0.628 -0.597,-1.303 -0.75,-2.003c-0.157,-0.739 -0.235,-1.493 -0.233,-2.25c-0.005,-0.786 0.075,-1.571 0.24,-2.34c0.15,-0.715 0.403,-1.404 0.75,-2.047c0.326,-0.618 0.76,-1.172 1.283,-1.635c0.559,-0.497 1.212,-0.877 1.92,-1.118c0.803,-0.266 1.644,-0.398 2.49,-0.39c0.694,-0.003 1.385,0.085 2.055,0.263c0.577,0.16 1.124,0.414 1.62,0.75c0.464,0.311 0.877,0.693 1.222,1.132l1.148,-1.125c-0.691,-0.781 -1.553,-1.392 -2.52,-1.785c-1.121,-0.442 -2.32,-0.656 -3.525,-0.63l-0.038,-0.015Zm-154.792,0.21l0,17.183l1.5,0l0,-17.19l-1.5,0.007Zm3.922,0l0,1.418l6.263,0l-0.105,0.15l0,15.615l1.5,0l0,-15.623l-0.105,-0.15l6.24,0l0,-1.417l-13.793,0.007Zm41.813,0l-7.553,17.175l1.658,0l1.905,-4.35l-0.038,-0.15l9.383,0l-0.068,0.15l1.935,4.35l1.628,0l-7.5,-17.182l-1.35,0.007Zm32.415,0l-7.56,17.175l1.635,0l1.905,-4.35l-0.045,-0.15l9.405,0l-0.06,0.15l1.927,4.35l1.635,0l-7.5,-17.182l-1.342,0.007Zm11.07,0l0,17.183l6.382,0c0.942,0.011 1.88,-0.105 2.79,-0.345c0.727,-0.195 1.412,-0.517 2.025,-0.953c0.535,-0.392 0.997,-0.874 1.365,-1.425c0.357,-0.552 0.637,-1.15 0.833,-1.777c0.201,-0.653 0.339,-1.323 0.412,-2.003c0.076,-0.694 0.113,-1.393 0.113,-2.092c0.001,-0.697 -0.039,-1.393 -0.12,-2.085c-0.074,-0.676 -0.213,-1.344 -0.413,-1.995c-0.195,-0.629 -0.478,-1.227 -0.84,-1.778c-0.372,-0.556 -0.842,-1.042 -1.387,-1.432c-0.619,-0.434 -1.31,-0.756 -2.04,-0.953c-0.92,-0.242 -1.869,-0.358 -2.82,-0.345l-6.3,0Zm16.995,0l0,17.183l12.09,0l0,-1.425l-10.755,0l0.15,-0.143l0,-6.172l-0.15,-0.128l9.75,0l0,-1.447l-9.75,0l0.15,-0.128l0,-6.172l-0.15,-0.15l10.755,0l0,-1.418l-12.09,0Zm15.48,0l0,17.183l1.5,0l0,-13.905l0.045,0l1.17,2.887l5.445,11.25l0.045,0l5.407,-11.175l1.208,-2.955l0.045,0l0,13.898l1.5,0l0,-17.19l-1.335,0l-5.918,12.172l-0.892,1.995l-0.075,0l-0.885,-1.972l-5.94,-12.195l-1.32,0.007Zm20.25,0l0,17.183l1.5,0l0,-17.19l-1.5,0.007Zm34.575,0l0,17.183l6.39,0c0.941,0.01 1.879,-0.106 2.79,-0.345c0.723,-0.196 1.406,-0.519 2.017,-0.953c0.538,-0.388 1.001,-0.871 1.365,-1.425c0.363,-0.548 0.644,-1.147 0.833,-1.777c0.201,-0.653 0.339,-1.323 0.412,-2.003c0.15,-1.388 0.15,-2.789 0,-4.177c-0.076,-0.677 -0.217,-1.345 -0.419,-1.995c-0.196,-0.629 -0.479,-1.227 -0.841,-1.778c-0.372,-0.554 -0.839,-1.039 -1.38,-1.432c-0.621,-0.435 -1.314,-0.758 -2.047,-0.953c-0.917,-0.242 -1.864,-0.358 -2.813,-0.345l-6.307,0Zm22.32,0l-7.553,17.183l1.635,0l1.905,-4.35l-0.037,-0.15l9.397,0l-0.067,0.15l1.935,4.35l1.627,0l-7.5,-17.183l-1.342,0Zm7.357,0l6.893,9.923l0,7.252l1.5,0l0,-7.252l6.892,-9.93l-1.867,0l-4.62,6.75l-1.148,1.912l-1.14,-1.912l-4.627,-6.75l-1.883,0.007Zm-115.65,1.418l4.793,0c0.923,-0.018 1.843,0.117 2.722,0.397c0.677,0.217 1.297,0.58 1.815,1.065c0.462,0.454 0.829,0.994 1.08,1.59c0.259,0.628 0.436,1.286 0.525,1.958c0.099,0.716 0.144,1.438 0.135,2.16c0.008,0.727 -0.035,1.454 -0.127,2.175c-0.088,0.671 -0.259,1.329 -0.51,1.957c-0.499,1.273 -1.552,2.251 -2.858,2.655c-0.873,0.272 -1.785,0.402 -2.7,0.383l-4.837,0l0.15,-0.143l0,-14.025l-0.188,-0.172Zm87.315,0l4.748,0c0.923,-0.018 1.843,0.117 2.722,0.397c0.678,0.215 1.298,0.579 1.815,1.065c0.467,0.452 0.836,0.993 1.088,1.59c0.26,0.627 0.434,1.285 0.517,1.958c0.099,0.716 0.144,1.438 0.136,2.16c0.007,0.727 -0.036,1.454 -0.128,2.175c-0.085,0.672 -0.256,1.33 -0.51,1.957c-0.499,1.273 -1.552,2.251 -2.858,2.655c-0.873,0.272 -1.785,0.402 -2.7,0.383l-4.852,0l0.142,-0.143l0,-14.025l-0.12,-0.172Zm-131.497,0.345l0.045,0l0.465,1.612l3.39,7.74l0.172,0.15l-8.115,0l0.15,-0.127l3.368,-7.77l0.525,-1.605Zm32.415,0l0.465,1.612l3.397,7.74l0.173,0.15l-8.085,0l0.15,-0.127l3.397,-7.763l0.503,-1.612Zm120.697,0l0.038,0l0.472,1.612l3.39,7.74l0.173,0.15l-8.123,0l0.15,-0.127l3.398,-7.763l0.502,-1.612Z" style="fill:#16334f;fill-rule:nonzero;"/><path id="path40" d="M102.173,0l-74.176,78.135c-1.299,-0.51 -2.684,-0.764 -4.08,-0.75c-5.91,0 -8.85,3.75 -8.85,8.603c0,4.852 2.94,8.602 8.873,8.602c5.932,0 8.872,-3.788 8.872,-8.602c0.034,-1.65 -0.367,-3.28 -1.162,-4.726l70.5,-74.25l35.25,37.426l-32.393,34.117c-1.524,-0.807 -3.233,-1.205 -4.957,-1.155c-5.91,0 -8.85,3.75 -8.85,8.603c0,4.852 2.94,8.602 8.872,8.602c5.933,0 8.873,-3.788 8.873,-8.602c0.007,-1.315 -0.248,-2.618 -0.75,-3.833l53.685,-56.55l27.097,28.792c-1.297,1.642 -1.973,3.691 -1.905,5.783c0,4.837 2.94,8.602 8.873,8.602c5.932,0 8.865,-3.75 8.865,-8.602c0,-4.852 -2.94,-8.61 -8.895,-8.61c-0.904,-0.005 -1.805,0.095 -2.685,0.3l-31.32,-33.285l-21.203,22.373l-38.535,-40.973Zm93.75,55.403c3.098,0 4.448,1.935 4.448,4.8c0,2.865 -1.35,4.815 -4.448,4.815c-3.097,0 -4.447,-1.958 -4.447,-4.815c0,-2.858 1.335,-4.8 4.485,-4.8l-0.038,0Zm-171.982,25.815c3.097,0 4.447,1.927 4.447,4.792c0,2.865 -1.35,4.822 -4.447,4.822c-3.098,0 -4.448,-1.965 -4.448,-4.822c0,-2.858 1.328,-4.792 4.448,-4.792Zm76.117,0c3.098,0 4.448,1.927 4.448,4.792c0,2.865 -1.35,4.822 -4.448,4.822c-3.097,0 -4.447,-1.965 -4.447,-4.822c0,-2.858 1.32,-4.792 4.447,-4.792Z" style="fill:#4093cd;fill-rule:nonzero;"/></svg>