<?xml version="1.0" encoding="UTF-8" standalone="no"?><!DOCTYPE svg PUBLIC "-//W3C//DTD SVG 1.1//EN" "http://www.w3.org/Graphics/SVG/1.1/DTD/svg11.dtd"><svg width="100%" height="100%" viewBox="0 0 98 48" version="1.1" xmlns="http://www.w3.org/2000/svg" xmlns:xlink="http://www.w3.org/1999/xlink" xml:space="preserve" xmlns:serif="http://www.serif.com/" style="fill-rule:evenodd;clip-rule:evenodd;stroke-linecap:round;stroke-linejoin:round;stroke-miterlimit:1.5;"><g><path d="M25.116,13.642c0.702,0 1.272,0.57 1.272,1.272l0,6.392l6.391,0c0.702,0 1.272,0.57 1.272,1.272l0,2.544c0,0.702 -0.57,1.272 -1.272,1.272l-6.391,0l0,6.392c0,0.702 -0.57,1.272 -1.272,1.272l-2.544,0c-0.702,0 -1.272,-0.57 -1.272,-1.272l0,-6.392l-6.392,0c-0.702,0 -1.272,-0.57 -1.272,-1.272l0,-2.544c0,-0.702 0.57,-1.272 1.272,-1.272l6.392,0l0,-6.392c0,-0.702 0.57,-1.272 1.272,-1.272l2.544,0Z" style="fill:none;stroke:#16334f;stroke-width:1.7px;"/><circle cx="79.243" cy="29.429" r="3.546" style="fill:none;stroke:#16334f;stroke-width:1.7px;"/><circle cx="68.269" cy="18.271" r="3.546" style="fill:none;stroke:#16334f;stroke-width:1.7px;"/><path d="M23.844,0.911c-12.661,0 -22.939,10.279 -22.939,22.939c0,12.66 10.278,22.939 22.939,22.939c6.985,0 13.246,-3.129 17.454,-8.061l15.004,0c4.208,4.932 10.469,8.061 17.454,8.061c12.661,0 22.939,-10.279 22.939,-22.939c0,-12.66 -10.278,-22.939 -22.939,-22.939l-49.912,0Z" style="fill:none;stroke:#16334f;stroke-width:1.7px;"/></g></svg>