<?xml version="1.0" encoding="UTF-8" standalone="no"?><!DOCTYPE svg PUBLIC "-//W3C//DTD SVG 1.1//EN" "http://www.w3.org/Graphics/SVG/1.1/DTD/svg11.dtd"><svg width="100%" height="100%" viewBox="0 0 52 49" version="1.1" xmlns="http://www.w3.org/2000/svg" xmlns:xlink="http://www.w3.org/1999/xlink" xml:space="preserve" xmlns:serif="http://www.serif.com/" style="fill-rule:evenodd;clip-rule:evenodd;stroke-linecap:round;stroke-linejoin:round;stroke-miterlimit:1.5;"><g><path d="M4.772,27.735l0,16.991c0,1.312 1.065,2.377 2.377,2.377l37.606,0c1.312,0 2.377,-1.065 2.377,-2.377l0,-16.991" style="fill:none;stroke:#16334f;stroke-width:1.7px;"/><path d="M38.448,27.735l9.48,0c1.599,0 2.897,-1.298 2.897,-2.897l0,-7.974c0,-1.599 -1.298,-2.897 -2.897,-2.897l-43.952,0c-1.599,0 -2.898,1.298 -2.898,2.897l0,7.974c0,1.599 1.299,2.897 2.898,2.897l7.83,0" style="fill:none;stroke:#16334f;stroke-width:1.7px;"/><path d="M20.449,47.103l0,-33.136" style="fill:none;stroke:#16334f;stroke-width:1.7px;"/><path d="M31.455,47.103l0,-33.136" style="fill:none;stroke:#16334f;stroke-width:1.7px;"/><path d="M38.547,13.967c3.577,0 6.482,-2.904 6.482,-6.482c0,-3.577 -2.905,-6.482 -6.482,-6.482c-0.518,0 -1.021,0.061 -1.503,0.176c0,0 -6.077,0.987 -9.443,11.917" style="fill:none;stroke:#16334f;stroke-width:1.7px;"/><path d="M13.357,13.967c-3.578,0 -6.482,-2.904 -6.482,-6.482c0,-3.577 2.904,-6.482 6.482,-6.482c0.517,0 1.02,0.061 1.503,0.176c0,0 6.077,0.987 9.443,11.917" style="fill:none;stroke:#16334f;stroke-width:1.7px;"/></g></svg>