<?xml version="1.0" encoding="UTF-8" standalone="no"?><!DOCTYPE svg PUBLIC "-//W3C//DTD SVG 1.1//EN" "http://www.w3.org/Graphics/SVG/1.1/DTD/svg11.dtd"><svg width="100%" height="100%" viewBox="0 0 67 36" version="1.1" xmlns="http://www.w3.org/2000/svg" xmlns:xlink="http://www.w3.org/1999/xlink" xml:space="preserve" xmlns:serif="http://www.serif.com/" style="fill-rule:evenodd;clip-rule:evenodd;stroke-linecap:round;stroke-linejoin:round;stroke-miterlimit:1.5;"><g><path d="M65.409,4.86c0,-2.331 -1.892,-4.223 -4.222,-4.223l-56.327,0c-2.331,0 -4.223,1.892 -4.223,4.223l0,26.123c0,2.33 1.892,4.222 4.223,4.222l56.327,0c2.33,0 4.222,-1.892 4.222,-4.222l0,-26.123Z" style="fill:none;stroke:#16334f;stroke-width:1.28px;"/><g><path d="M21.637,27.701l22.751,0" style="fill:none;stroke:#16334f;stroke-width:1.28px;"/><g><path d="M50.138,16.699c0,-0.675 -0.548,-1.223 -1.222,-1.223l-2.445,0c-0.675,0 -1.223,0.548 -1.223,1.223l0,2.445c0,0.675 0.548,1.222 1.223,1.222l2.445,0c0.674,0 1.222,-0.547 1.222,-1.222l0,-2.445Z" style="fill:none;stroke:#16334f;stroke-width:1.28px;"/><path d="M30.578,16.699c0,-0.675 -0.548,-1.223 -1.222,-1.223l-2.445,0c-0.675,0 -1.223,0.548 -1.223,1.223l0,2.445c0,0.675 0.548,1.222 1.223,1.222l2.445,0c0.674,0 1.222,-0.547 1.222,-1.222l0,-2.445Z" style="fill:none;stroke:#16334f;stroke-width:1.28px;"/><path d="M55.028,26.479c0,-0.675 -0.548,-1.223 -1.222,-1.223l-2.445,0c-0.675,0 -1.223,0.548 -1.223,1.223l0,2.445c0,0.675 0.548,1.222 1.223,1.222l2.445,0c0.674,0 1.222,-0.547 1.222,-1.222l0,-2.445Z" style="fill:none;stroke:#16334f;stroke-width:1.28px;"/><path d="M15.908,26.479c0,-0.675 -0.548,-1.223 -1.222,-1.223l-2.445,0c-0.675,0 -1.223,0.548 -1.223,1.223l0,2.445c0,0.675 0.548,1.222 1.223,1.222l2.445,0c0.674,0 1.222,-0.547 1.222,-1.222l0,-2.445Z" style="fill:none;stroke:#16334f;stroke-width:1.28px;"/><path d="M11.018,16.699c0,-0.675 -0.548,-1.223 -1.222,-1.223l-2.445,0c-0.675,0 -1.223,0.548 -1.223,1.223l0,2.445c0,0.675 0.548,1.222 1.223,1.222l2.445,0c0.674,0 1.222,-0.547 1.222,-1.222l0,-2.445Z" style="fill:none;stroke:#16334f;stroke-width:1.28px;"/><path d="M59.918,16.699c0,-0.675 -0.548,-1.223 -1.222,-1.223l-2.445,0c-0.675,0 -1.223,0.548 -1.223,1.223l0,2.445c0,0.675 0.548,1.222 1.223,1.222l2.445,0c0.674,0 1.222,-0.547 1.222,-1.222l0,-2.445Z" style="fill:none;stroke:#16334f;stroke-width:1.28px;"/><path d="M20.798,16.699c0,-0.675 -0.548,-1.223 -1.222,-1.223l-2.445,0c-0.675,0 -1.223,0.548 -1.223,1.223l0,2.445c0,0.675 0.548,1.222 1.223,1.222l2.445,0c0.674,0 1.222,-0.547 1.222,-1.222l0,-2.445Z" style="fill:none;stroke:#16334f;stroke-width:1.28px;"/><path d="M25.688,7.174c0,-0.675 -0.548,-1.223 -1.222,-1.223l-2.445,0c-0.675,0 -1.223,0.548 -1.223,1.223l0,2.445c0,0.674 0.548,1.222 1.223,1.222l2.445,0c0.674,0 1.222,-0.548 1.222,-1.222l0,-2.445Z" style="fill:none;stroke:#16334f;stroke-width:1.28px;"/><path d="M40.358,16.699c0,-0.675 -0.548,-1.223 -1.222,-1.223l-2.445,0c-0.675,0 -1.223,0.548 -1.223,1.223l0,2.445c0,0.675 0.548,1.222 1.223,1.222l2.445,0c0.674,0 1.222,-0.547 1.222,-1.222l0,-2.445Z" style="fill:none;stroke:#16334f;stroke-width:1.28px;"/><path d="M35.468,7.174c0,-0.675 -0.548,-1.223 -1.222,-1.223l-2.445,0c-0.675,0 -1.223,0.548 -1.223,1.223l0,2.445c0,0.674 0.548,1.222 1.223,1.222l2.445,0c0.674,0 1.222,-0.548 1.222,-1.222l0,-2.445Z" style="fill:none;stroke:#16334f;stroke-width:1.28px;"/><path d="M45.248,7.174c0,-0.675 -0.548,-1.223 -1.222,-1.223l-2.445,0c-0.675,0 -1.223,0.548 -1.223,1.223l0,2.445c0,0.674 0.548,1.222 1.223,1.222l2.445,0c0.674,0 1.222,-0.548 1.222,-1.222l0,-2.445Z" style="fill:none;stroke:#16334f;stroke-width:1.28px;"/><path d="M55.028,7.174c0,-0.675 -0.548,-1.223 -1.222,-1.223l-2.445,0c-0.675,0 -1.223,0.548 -1.223,1.223l0,2.445c0,0.674 0.548,1.222 1.223,1.222l2.445,0c0.674,0 1.222,-0.548 1.222,-1.222l0,-2.445Z" style="fill:none;stroke:#16334f;stroke-width:1.28px;"/><path d="M15.908,7.174c0,-0.675 -0.548,-1.223 -1.222,-1.223l-2.445,0c-0.675,0 -1.223,0.548 -1.223,1.223l0,2.445c0,0.674 0.548,1.222 1.223,1.222l2.445,0c0.674,0 1.222,-0.548 1.222,-1.222l0,-2.445Z" style="fill:none;stroke:#16334f;stroke-width:1.28px;"/></g></g></g></svg>