<?xml version="1.0" encoding="UTF-8" standalone="no"?>
<!-- Created with Inkscape (http://www.inkscape.org/) -->

<svg
   version="1.1"
   id="svg900"
   xml:space="preserve"
   width="392.60971"
   height="109.47626"
   viewBox="0 0 392.60971 109.47627"
   sodipodi:docname="radio-bielsko.svg"
   inkscape:version="1.1.1 (eb90963e84, 2021-10-02)"
   xmlns:inkscape="http://www.inkscape.org/namespaces/inkscape"
   xmlns:sodipodi="http://sodipodi.sourceforge.net/DTD/sodipodi-0.dtd"
   xmlns="http://www.w3.org/2000/svg"
   xmlns:svg="http://www.w3.org/2000/svg"><defs
     id="defs904" /><sodipodi:namedview
     id="namedview902"
     pagecolor="#ffffff"
     bordercolor="#666666"
     borderopacity="1.0"
     inkscape:pageshadow="2"
     inkscape:pageopacity="0.0"
     inkscape:pagecheckerboard="0"
     showgrid="false"
     inkscape:zoom="1.9790832"
     inkscape:cx="260.47415"
     inkscape:cy="54.570724"
     inkscape:window-width="1916"
     inkscape:window-height="1041"
     inkscape:window-x="0"
     inkscape:window-y="18"
     inkscape:window-maximized="1"
     inkscape:current-layer="g906" /><g
     id="g906"
     inkscape:groupmode="layer"
     inkscape:label="Radio-Bielsko-logo"
     transform="matrix(1.3333333,0,0,-1.3333333,-87.159731,243.71453)"><g
       id="g1031"><path
         d="m 100.4471,127.946 c 3.4866,2.0219 5.5789,5.4394 5.5789,10.8088 0,9.8328 -7.2528,14.9235 -16.5277,14.9235 H 65.3698 V 101.376 h 26.2207 c 9.0658,0 16.2485,4.7424 16.2485,14.6449 0,6.2762 -2.859,9.972 -7.3919,11.9251 z m -9.5539,9.1352 c 0,-1.7436 -1.4644,-3.4866 -3.3472,-3.4866 h -7.0435 v 6.9735 h 7.0435 c 1.8828,0 3.3472,-1.6739 3.3472,-3.4869 z m -1.6739,-22.5947 h -8.7168 v 6.9735 h 8.7168 c 2.0226,0 3.4867,-1.7433 3.4867,-3.4866 0,-1.813 -1.4641,-3.4869 -3.4867,-3.4869"
         style="fill:#ed1c24;fill-opacity:1;fill-rule:nonzero;stroke:none"
         id="path908" /><path
         d="m 114.0883,101.376 h 15.1327 v 52.3023 h -15.1327 z"
         style="fill:#ed1c24;fill-opacity:1;fill-rule:nonzero;stroke:none"
         id="path910" /><path
         d="m 181.8731,101.376 h 0.3218 10.3872 20.7851 v 13.1105 h -16.0399 v 39.1918 h -4.7452 -10.3872 -0.3218 z"
         style="fill:#ed1c24;fill-opacity:1;fill-rule:nonzero;stroke:none"
         id="path912" /><path
         d="m 236.0409,100.6787 c 11.2972,0 21.1303,7.4616 21.1303,17.5153 0,20.3632 -26.4302,13.5989 -26.4302,20.3632 0,1.9412 1.3249,3.0569 3.5566,3.0569 2.2312,0 5.6486,-1.1157 8.2985,-4.4515 l 10.7393,9.1938 c -4.5329,5.0208 -12.134,8.0195 -18.8983,8.0195 -9.2055,0 -18.8989,-5.8578 -18.8989,-16.9344 0,-18.5497 26.5,-11.9713 26.5,-19.6657 0,-2.1038 -2.2314,-2.9409 -5.4394,-2.9409 -4.7421,0 -8.2984,2.1739 -10.3212,6.0208 l -12.2735,-7.8336 c 3.5567,-6.5551 12.134,-12.3434 22.0368,-12.3434"
         style="fill:#ed1c24;fill-opacity:1;fill-rule:nonzero;stroke:none"
         id="path914" /><path
         d="m 332.9787,100.6787 c 14.8536,0 26.8484,11.9945 26.8484,26.8486 0,14.8538 -11.9948,26.8486 -26.8484,26.8486 -14.8541,0 -26.8489,-11.9948 -26.8489,-26.8486 0,-14.8541 11.9948,-26.8486 26.8489,-26.8486 z m 0,14.9235 c -6.904,0 -11.925,5.021 -11.925,11.9251 0,6.9041 5.021,11.9251 11.925,11.9251 6.9035,0 11.9946,-5.021 11.9946,-11.9251 0,-6.9041 -5.0911,-11.9251 -11.9946,-11.9251"
         style="fill:#ed1c24;fill-opacity:1;fill-rule:nonzero;stroke:none"
         id="path916" /><path
         d="M 173.1444,153.6783 H 144.447 137.5622 V 101.376 h 6.8848 26.9765 2.0979 v 12.9447 h -22.4283 l 11.4764,9.8895 11.3947,9.8181 v 0.2106 h -22.8711 l 11.4764,9.8895 11.0832,9.5499 z"
         style="fill:#214395;fill-opacity:1;fill-rule:nonzero;stroke:none"
         id="path918" /><path
         d="m 276.2306,152.8563 v -18.5672 l 14.614,19.0471 0.2398,0.3124 h 0.3883 16.263 1.6922 l -1.0859,-1.3 -19.6424,-23.5114 21.5456,-26.1675 1.0649,-1.2937 h -1.6747 -17.0988 -0.3838 l -0.2382,0.3067 -15.684,20.1453 v -19.6594 -0.7926 h -0.7926 -13.771 -0.792 v 0.7926 50.6877 0.7923 h 0.792 13.771 0.7926 z"
         style="fill:#ed1c24;fill-opacity:1;fill-rule:nonzero;stroke:none"
         id="path920" /><path
         d="m 76.7962,169.0838 c 1.2912,0.2979 1.986,0.6293 2.7139,1.2248 1.3241,1.0919 2.1181,2.9787 2.1181,4.9972 0,1.8204 -0.6948,3.608 -1.8862,4.8654 -1.2909,1.357 -2.9126,1.9528 -5.4278,1.9528 h -8.9031 v -22.0754 h 5.7258 v 8.4725 l 5.4609,-8.4725 h 7.1484 z m -5.6593,3.1445 v 5.4938 h 1.059 c 1.0922,0 1.9196,-0.1987 2.4491,-0.5959 0.6287,-0.4631 1.0925,-1.3569 1.0925,-2.1512 0,-0.7942 -0.4638,-1.6877 -1.0925,-2.1512 -0.5295,-0.3971 -1.3569,-0.5955 -2.4491,-0.5955 z m 30.9503,-8.3404 1.4233,-3.8393 h 6.1228 l -8.3072,22.0754 h -6.2552 l -8.4728,-22.0754 h 6.0568 l 1.5225,3.8393 z m -1.5556,4.3687 h -4.7659 l 2.4162,7.0492 z m 12.8891,-8.208 h 8.473 c 5.8249,0 10.8556,5.0967 10.8556,11.054 0,5.9244 -5.0346,11.0214 -10.8556,11.0214 h -8.473 z m 5.726,4.8651 v 12.3449 h 1.3238 c 2.1512,0 3.5413,-0.5624 4.6995,-1.8533 1.0262,-1.125 1.5886,-2.681 1.5886,-4.3027 0,-1.6549 -0.5624,-3.2102 -1.5886,-4.3356 -1.1582,-1.2903 -2.552,-1.8533 -4.6995,-1.8533 z m 24.5687,17.2103 h -5.726 v -22.0754 h 5.726 z m 17.4197,0.6619 c -2.8794,0 -5.6928,-0.8938 -7.7448,-2.5155 -2.7799,-2.1844 -4.4679,-5.5933 -4.4679,-9.0351 0,-6.8842 5.1633,-11.9809 12.1135,-11.9809 3.0779,0 5.6594,0.8274 7.8435,2.5151 2.8134,2.2179 4.468,5.5934 4.468,9.2671 0,2.8794 -1.0256,5.5933 -2.8792,7.7116 -2.3499,2.6805 -5.4941,4.0377 -9.3331,4.0377 z m 0,-5.5605 c 3.4416,0 6.2221,-2.7799 6.2221,-6.1888 0,-3.4419 -2.7805,-6.2224 -6.2221,-6.2224 -3.4752,0 -6.222,2.7805 -6.222,6.2884 0,3.3429 2.8128,6.1228 6.222,6.1228"
         style="fill:#214395;fill-opacity:1;fill-rule:nonzero;stroke:none"
         id="path922" /></g></g></svg>
