<?xml version="1.0" encoding="UTF-8" standalone="no"?>
<!DOCTYPE svg PUBLIC "-//W3C//DTD SVG 1.1//EN" "http://www.w3.org/Graphics/SVG/1.1/DTD/svg11.dtd">
<svg width="100%" height="100%" viewBox="0 0 1536 1024" version="1.1" xmlns="http://www.w3.org/2000/svg" xmlns:xlink="http://www.w3.org/1999/xlink" xml:space="preserve" xmlns:serif="http://www.serif.com/" style="fill-rule:evenodd;clip-rule:evenodd;stroke-linejoin:round;stroke-miterlimit:2;">
    <g transform="matrix(1,0,0,1,-6567.38,0)">
        <g transform="matrix(1,0,0,1.77664,4385.16,-588.297)">
            <g transform="matrix(0.798645,0,0,0.475814,3066.48,-2070.84)">
                <g id="Block-1" serif:id="Block 1">
                    <rect x="-786.655" y="5053.75" width="320.543" height="302.834" style="fill:rgb(242,242,242);"/>
                </g>
            </g>
            <g transform="matrix(0.798645,0,0,0.475814,4090.48,-2073.51)">
                <g id="Block-11" serif:id="Block 1">
                    <rect x="-786.655" y="5053.75" width="320.543" height="302.834" style="fill:rgb(242,242,242);"/>
                </g>
            </g>
            <g transform="matrix(0.798645,0,0,0.475814,4090.48,-1929.42)">
                <g id="Block-12" serif:id="Block 1">
                    <rect x="-786.655" y="5053.75" width="320.543" height="302.834" style="fill:rgb(242,242,242);"/>
                </g>
            </g>
            <g transform="matrix(0.798645,0,0,0.475814,4090.48,-1785.33)">
                <g id="Block-3" serif:id="Block 3">
                    <rect x="-786.655" y="5053.75" width="320.543" height="302.834" style="fill:rgb(232,232,232);"/>
                </g>
            </g>
            <g transform="matrix(0.798645,0,0,0.475814,3834.48,-2073.51)">
                <g id="Block-31" serif:id="Block 3">
                    <rect x="-786.655" y="5053.75" width="320.543" height="302.834" style="fill:rgb(232,232,232);"/>
                </g>
            </g>
            <g transform="matrix(0.798645,0,0,0.475814,3578.48,-2073.51)">
                <g id="Block-4" serif:id="Block 4">
                    <rect x="-786.655" y="5053.75" width="320.543" height="302.834" style="fill:white;"/>
                </g>
            </g>
            <g transform="matrix(0.798645,0,0,0.475814,2810.48,-2073.51)">
                <g id="Block-41" serif:id="Block 4">
                    <rect x="-786.655" y="5053.75" width="320.543" height="302.834" style="fill:white;"/>
                </g>
            </g>
            <g transform="matrix(0.798645,0,0,0.475814,3322.48,-2073.51)">
                <g id="Block-42" serif:id="Block 4">
                    <rect x="-786.655" y="5053.75" width="320.543" height="302.834" style="fill:white;"/>
                </g>
            </g>
            <g transform="matrix(0.798645,0,0,0.475814,2810.48,-1641.24)">
                <g id="Block-13" serif:id="Block 1">
                    <rect x="-786.655" y="5053.75" width="320.543" height="302.834" style="fill:rgb(242,242,242);"/>
                </g>
            </g>
        </g>
    </g>
</svg>
