<?xml version="1.0" encoding="UTF-8" standalone="no"?>
<!DOCTYPE svg PUBLIC "-//W3C//DTD SVG 1.1//EN" "http://www.w3.org/Graphics/SVG/1.1/DTD/svg11.dtd">
<svg width="100%" height="100%" viewBox="0 0 109 43" version="1.1" xmlns="http://www.w3.org/2000/svg" xmlns:xlink="http://www.w3.org/1999/xlink" xml:space="preserve" xmlns:serif="http://www.serif.com/" style="fill-rule:evenodd;clip-rule:evenodd;stroke-linejoin:round;stroke-miterlimit:2;">
    <g transform="matrix(1,0,0,1,-1431.23,-126.514)">
        <g transform="matrix(1,0,0,6.42951,1144.21,0)">
            <g transform="matrix(0.519676,0,0,0.519676,113.295,9.90025)">
                <g transform="matrix(0.0372286,0,0,0.00579027,334.292,-31.9284)">
                    <path d="M246.957,10492L0,10492L0,8763.31L1234.77,8763.31C1564.09,8763.31 1728.69,8927.97 1728.69,9257.2C1728.69,9586.53 1564.09,9751.12 1234.77,9751.12L987.816,9751.12L2222.59,10985.9L1852.17,10985.9L370.438,9504.17L1234.77,9504.17C1399.43,9504.17 1481.73,9421.86 1481.73,9257.2C1481.73,9092.61 1399.43,9010.26 1234.77,9010.26L246.957,9010.26L246.957,10492Z" style="fill:rgb(199,29,36);fill-rule:nonzero;"/>
                </g>
                <g transform="matrix(0.0372286,0,0,0.00579027,334.292,-28.1848)">
                    <path d="M1961.91,8764.55L1961.91,9592.6L2789.98,9592.6L2789.98,9474.3L2080.17,9474.3L2080.17,9237.66L2789.98,9237.66L2789.98,9119.42L2080.17,9119.42L2080.17,8882.79L2789.98,8882.79L2789.98,8764.55L1961.91,8764.55ZM3144.86,8764.55C2987.13,8764.55 2908.29,8843.38 2908.29,9001.09C2908.29,9158.83 2987.13,9237.66 3144.86,9237.66L3499.73,9237.66C3578.63,9237.66 3618.04,9277.14 3618.04,9355.97C3618.04,9434.87 3578.63,9474.3 3499.73,9474.3L2908.29,9474.3L2908.29,9592.6L3499.73,9592.6C3657.47,9592.6 3736.35,9513.7 3736.35,9355.97C3736.35,9198.25 3657.47,9119.42 3499.73,9119.42L3144.86,9119.42C3066.02,9119.42 3026.6,9079.99 3026.6,9001.09C3026.6,8922.26 3066.02,8882.79 3144.86,8882.79L3736.35,8882.79L3736.35,8764.55L3144.86,8764.55ZM3854.61,8764.55L3854.61,9592.6L4682.66,9592.6L4682.66,9474.3L3972.91,9474.3L3972.91,9237.66L4682.66,9237.66L4682.66,9119.42L3972.91,9119.42L3972.91,8882.79L4682.66,8882.79L4682.66,8764.55L3854.61,8764.55ZM4801.04,8764.55L4801.04,8882.79L5155.86,8882.79L5155.86,9592.6L5274.24,9592.6L5274.24,8882.79L5629.05,8882.79L5629.05,8764.55L4801.04,8764.55Z" style="fill:rgb(22,51,79);fill-rule:nonzero;"/>
                </g>
            </g>
        </g>
    </g>
</svg>
