<?xml version="1.0" encoding="UTF-8" standalone="no"?><!DOCTYPE svg PUBLIC "-//W3C//DTD SVG 1.1//EN" "http://www.w3.org/Graphics/SVG/1.1/DTD/svg11.dtd"><svg width="100%" height="100%" viewBox="0 0 119 47" version="1.1" xmlns="http://www.w3.org/2000/svg" xmlns:xlink="http://www.w3.org/1999/xlink" xml:space="preserve" xmlns:serif="http://www.serif.com/" style="fill-rule:evenodd;clip-rule:evenodd;stroke-linejoin:round;stroke-miterlimit:2;"><g id="reset"><path id="path58" d="M5.2,36.4l-5.2,0l0,-36.4l26,0c6.933,0 10.4,3.467 10.4,10.4c0,6.933 -3.467,10.4 -10.4,10.4l-5.2,0l26,26l-7.8,0l-31.2,-31.2l18.2,0c3.467,0 5.2,-1.733 5.2,-5.2c0,-3.466 -1.733,-5.2 -5.2,-5.2l-20.8,0l0,31.2Z" style="fill:#16334f;fill-rule:nonzero;"/><path id="path60" d="M58.747,16.13l-14.946,0l0,4.981l14.946,0l0,2.492l-14.946,0l0,4.982l14.946,0l0,2.491l-17.437,0l0,-17.437l17.437,0l0,2.491Z" style="fill:#16334f;fill-rule:nonzero;"/><path id="path62" d="M78.673,13.639l0,2.491l-12.454,0c-1.66,0 -2.49,0.83 -2.49,2.491c0,1.661 0.83,2.49 2.49,2.49l7.473,0c3.321,0 4.981,1.661 4.981,4.983c0,3.321 -1.66,4.982 -4.981,4.982l-12.454,0l0,-2.491l12.454,0c1.661,0 2.491,-0.831 2.491,-2.491c0,-1.661 -0.83,-2.491 -2.491,-2.491l-7.473,0c-3.321,0 -4.981,-1.661 -4.981,-4.982c0,-3.322 1.66,-4.982 4.981,-4.982l12.454,0Z" style="fill:#16334f;fill-rule:nonzero;"/><path id="path64" d="M98.6,16.13l-14.945,0l0,4.981l14.945,0l0,2.492l-14.945,0l0,4.982l14.945,0l0,2.491l-17.436,0l0,-17.437l17.436,0l0,2.491Z" style="fill:#16334f;fill-rule:nonzero;"/><path id="path66" d="M101.092,13.639l17.436,0l0,2.491l-7.472,0l0,14.946l-2.492,0l0,-14.946l-7.472,0l0,-2.491Z" style="fill:#16334f;fill-rule:nonzero;"/><path id="path3975" d="M5.2,36.4l-5.2,0l0,-36.4l26,0c6.933,0 10.4,3.467 10.4,10.4c0,6.933 -3.467,10.4 -10.4,10.4l-5.2,0l26,26l-7.8,0l-31.2,-31.2l18.2,0c3.467,0 5.2,-1.733 5.2,-5.2c0,-3.466 -1.733,-5.2 -5.2,-5.2l-20.8,0l0,31.2Z" style="fill:#16334f;fill-rule:nonzero;"/><path id="path3977" d="M58.747,16.13l-14.946,0l0,4.981l14.946,0l0,2.492l-14.946,0l0,4.982l14.946,0l0,2.491l-17.437,0l0,-17.437l17.437,0l0,2.491Z" style="fill:#16334f;fill-rule:nonzero;"/><path id="path3979" d="M78.673,13.639l0,2.491l-12.454,0c-1.66,0 -2.49,0.83 -2.49,2.491c0,1.661 0.83,2.49 2.49,2.49l7.473,0c3.321,0 4.981,1.661 4.981,4.983c0,3.321 -1.66,4.982 -4.981,4.982l-12.454,0l0,-2.491l12.454,0c1.661,0 2.491,-0.831 2.491,-2.491c0,-1.661 -0.83,-2.491 -2.491,-2.491l-7.473,0c-3.321,0 -4.981,-1.661 -4.981,-4.982c0,-3.322 1.66,-4.982 4.981,-4.982l12.454,0Z" style="fill:#16334f;fill-rule:nonzero;"/><path id="path3981" d="M98.6,16.13l-14.945,0l0,4.981l14.945,0l0,2.492l-14.945,0l0,4.982l14.945,0l0,2.491l-17.436,0l0,-17.437l17.436,0l0,2.491Z" style="fill:#16334f;fill-rule:nonzero;"/><path id="path3983" d="M101.092,13.639l17.436,0l0,2.491l-7.472,0l0,14.946l-2.492,0l0,-14.946l-7.472,0l0,-2.491Z" style="fill:#16334f;fill-rule:nonzero;"/></g></svg>