<?xml version="1.0" encoding="UTF-8" standalone="no"?>
<!DOCTYPE svg PUBLIC "-//W3C//DTD SVG 1.1//EN" "http://www.w3.org/Graphics/SVG/1.1/DTD/svg11.dtd">
<svg width="100%" height="100%" viewBox="0 0 78 78" version="1.1" xmlns="http://www.w3.org/2000/svg" xmlns:xlink="http://www.w3.org/1999/xlink" xml:space="preserve" xmlns:serif="http://www.serif.com/" style="fill-rule:evenodd;clip-rule:evenodd;stroke-linejoin:round;stroke-miterlimit:2;">
    <g transform="matrix(1,0,0,1,-1549.16,672.423)">
        <g id="Margins">
        </g>
        <g>
            <g transform="matrix(0.699047,0,0,0.699047,511.523,-2263.11)">
                <path d="M1539.53,2296.68C1550.85,2296.68 1560.05,2305.88 1560.05,2317.2C1560.05,2328.53 1550.85,2337.72 1539.53,2337.72C1528.2,2337.72 1519.01,2328.53 1519.01,2317.2C1519.01,2305.88 1528.2,2296.68 1539.53,2296.68ZM1539.53,2299.54C1549.27,2299.54 1557.18,2307.45 1557.18,2317.2C1557.18,2326.95 1549.27,2334.86 1539.53,2334.86C1529.78,2334.86 1521.87,2326.95 1521.87,2317.2C1521.87,2307.45 1529.78,2299.54 1539.53,2299.54Z" style="fill:rgb(22,51,79);"/>
            </g>
            <g transform="matrix(1.22839,0,0,1.22839,-328.153,179.074)">
                <path d="M1559.66,-693.181C1576.99,-693.181 1591.06,-679.114 1591.06,-661.787C1591.06,-644.46 1576.99,-630.392 1559.66,-630.392C1542.34,-630.392 1528.27,-644.46 1528.27,-661.787C1528.27,-679.114 1542.34,-693.181 1559.66,-693.181ZM1559.66,-691.553C1576.09,-691.553 1589.43,-678.215 1589.43,-661.787C1589.43,-645.358 1576.09,-632.02 1559.66,-632.02C1543.24,-632.02 1529.9,-645.358 1529.9,-661.787C1529.9,-678.215 1543.24,-691.553 1559.66,-691.553Z" style="fill:rgb(22,51,79);"/>
            </g>
            <path d="M1557.66,-609.712L1557.66,-615.678C1557.66,-620.501 1561.58,-624.416 1566.4,-624.416L1609.05,-624.416C1613.87,-624.416 1617.79,-620.501 1617.79,-615.678L1617.79,-609.712C1610.71,-600.922 1599.87,-595.293 1587.72,-595.293C1575.58,-595.293 1564.73,-600.922 1557.66,-609.712ZM1559.66,-610.427L1559.66,-615.678C1559.66,-619.397 1562.68,-622.416 1566.4,-622.416L1609.05,-622.416C1612.77,-622.416 1615.79,-619.397 1615.79,-615.678C1615.79,-615.678 1615.79,-610.427 1615.79,-610.427C1609.07,-602.401 1598.99,-597.293 1587.72,-597.293C1576.46,-597.293 1566.37,-602.401 1559.66,-610.426L1559.66,-610.427Z" style="fill:rgb(22,51,79);"/>
        </g>
    </g>
</svg>
