<?xml version="1.0" encoding="UTF-8" standalone="no"?><!DOCTYPE svg PUBLIC "-//W3C//DTD SVG 1.1//EN" "http://www.w3.org/Graphics/SVG/1.1/DTD/svg11.dtd"><svg width="100%" height="100%" viewBox="0 0 115 69" version="1.1" xmlns="http://www.w3.org/2000/svg" xmlns:xlink="http://www.w3.org/1999/xlink" xml:space="preserve" xmlns:serif="http://www.serif.com/" style="fill-rule:evenodd;clip-rule:evenodd;stroke-linecap:round;stroke-miterlimit:2;"><path d="M38.551,0.879l0,2.589" style="fill:none;stroke:#16334f;stroke-width:1.7px;"/><path d="M38.551,7.68l0,7.208" style="fill:none;stroke:#16334f;stroke-width:1.7px;"/><path d="M38.551,19.1l0,7.209" style="fill:none;stroke:#16334f;stroke-width:1.7px;"/><path d="M38.551,30.521l0,7.208" style="fill:none;stroke:#16334f;stroke-width:1.7px;"/><path d="M38.551,41.941l0,7.209" style="fill:none;stroke:#16334f;stroke-width:1.7px;"/><path d="M38.551,53.362l0,7.208" style="fill:none;stroke:#16334f;stroke-width:1.7px;"/><path d="M38.551,64.782l0,2.589" style="fill:none;stroke:#16334f;stroke-width:1.7px;"/><path d="M38.551,-3.334l0,5.787" style="fill:none;stroke:#16334f;stroke-width:1.7px;stroke-linecap:butt;"/><path d="M38.551,65.797l0,19.438" style="fill:none;stroke:#16334f;stroke-width:1.7px;stroke-linecap:butt;"/><path d="M0.85,85.235l0,-106.525" style="fill:none;stroke:#16334f;stroke-width:1.7px;stroke-linecap:butt;stroke-linejoin:round;stroke-miterlimit:1.5;"/><path d="M76.252,0.879l0,2.589" style="fill:none;stroke:#16334f;stroke-width:1.7px;"/><path d="M76.252,7.68l0,7.208" style="fill:none;stroke:#16334f;stroke-width:1.7px;"/><path d="M76.252,19.1l0,7.209" style="fill:none;stroke:#16334f;stroke-width:1.7px;"/><path d="M76.252,30.521l0,7.208" style="fill:none;stroke:#16334f;stroke-width:1.7px;"/><path d="M76.252,41.941l0,7.209" style="fill:none;stroke:#16334f;stroke-width:1.7px;"/><path d="M76.252,53.362l0,7.208" style="fill:none;stroke:#16334f;stroke-width:1.7px;"/><path d="M76.252,64.782l0,2.589" style="fill:none;stroke:#16334f;stroke-width:1.7px;"/><path d="M76.252,-8.07l0,10.523" style="fill:none;stroke:#16334f;stroke-width:1.7px;stroke-linecap:butt;"/><path d="M76.252,65.797l0,19.438" style="fill:none;stroke:#16334f;stroke-width:1.7px;stroke-linecap:butt;"/></svg>