<?xml version="1.0" encoding="UTF-8" standalone="no"?><!DOCTYPE svg PUBLIC "-//W3C//DTD SVG 1.1//EN" "http://www.w3.org/Graphics/SVG/1.1/DTD/svg11.dtd"><svg width="100%" height="100%" viewBox="0 0 16 13" version="1.1" xmlns="http://www.w3.org/2000/svg" xmlns:xlink="http://www.w3.org/1999/xlink" xml:space="preserve" xmlns:serif="http://www.serif.com/" style="fill-rule:evenodd;clip-rule:evenodd;stroke-linejoin:round;stroke-miterlimit:2;"><g id="Tw-logo" serif:id="Tw logo"><path id="Tw-logo1" serif:id="Tw logo" d="M15.165,1.469c-0.545,0.239 -1.127,0.402 -1.739,0.477c0.624,-0.376 1.104,-0.969 1.331,-1.676c-0.585,0.341 -1.234,0.59 -1.925,0.728c-0.551,-0.59 -1.338,-0.959 -2.21,-0.959c-1.673,0 -3.029,1.356 -3.029,3.027c0,0.24 0.028,0.471 0.078,0.692c-2.518,-0.119 -4.749,-1.328 -6.243,-3.156c-0.263,0.444 -0.41,0.961 -0.41,1.524c0,1.052 0.536,1.978 1.347,2.521c-0.497,-0.016 -0.964,-0.153 -1.371,-0.379l0,0.037c0,1.469 1.042,2.693 2.429,2.972c-0.254,0.068 -0.523,0.105 -0.798,0.105c-0.193,0 -0.379,-0.018 -0.564,-0.053c0.388,1.203 1.505,2.079 2.834,2.104c-1.034,0.812 -2.345,1.296 -3.756,1.296c-0.24,0 -0.48,-0.015 -0.72,-0.042c1.347,0.859 2.935,1.36 4.652,1.36c5.573,0 8.617,-4.614 8.617,-8.61c0,-0.128 0,-0.258 -0.009,-0.387c0.592,-0.425 1.108,-0.961 1.515,-1.569l-0.029,-0.012Z" style="fill:#00acee;fill-rule:nonzero;"/></g></svg>