<?xml version="1.0" encoding="UTF-8" standalone="no"?><!DOCTYPE svg PUBLIC "-//W3C//DTD SVG 1.1//EN" "http://www.w3.org/Graphics/SVG/1.1/DTD/svg11.dtd"><svg width="100%" height="100%" viewBox="0 0 369 66" version="1.1" xmlns="http://www.w3.org/2000/svg" xmlns:xlink="http://www.w3.org/1999/xlink" xml:space="preserve" xmlns:serif="http://www.serif.com/" style="fill-rule:evenodd;clip-rule:evenodd;stroke-linejoin:round;stroke-miterlimit:2;"><path id="path3735" d="M141.886,65.667c-2.949,-0.792 -4.874,-3.578 -4.867,-7.04c0.01,-4.889 3.659,-8.204 8.246,-7.49c3.575,0.555 5.72,3.273 5.72,7.248c0,3.758 -1.889,6.455 -5.106,7.293c-1.146,0.298 -2.859,0.294 -3.993,-0.011l0,0Zm3.056,-2.434c2.297,-0.631 3.371,-4.757 1.977,-7.589c-0.689,-1.399 -1.524,-1.967 -2.888,-1.967c-2.075,0 -3.318,1.553 -3.518,4.394c-0.246,3.51 1.793,5.887 4.429,5.162Zm-70.47,2.422c-5.114,-0.328 -10.201,-1.698 -13.656,-3.679c-5.3,-3.037 -8.349,-7.235 -9.676,-13.322c-0.335,-1.539 -0.357,-1.959 -0.323,-6.34c0.031,-4.184 0.002,-4.832 -0.27,-5.979c-0.943,-3.971 -3.383,-6.682 -6.801,-7.558c-1.218,-0.312 -3.39,-0.216 -4.744,0.211l-0.942,0.296l0,2.505c0,1.377 0.033,4.976 0.073,7.998c0.08,5.992 0.022,6.696 -0.79,9.587c-1.973,7.027 -7.117,13.089 -12.624,14.876c-1.517,0.493 -3.183,0.56 -13.929,0.565l-10.79,0.005l0,-32.41l0,-32.41l2.329,0c1.281,0 4.247,0.047 6.592,0.104l4.263,0.103l0,16.78l0.431,-0.099c0.238,-0.054 1.562,-0.142 2.943,-0.195c1.947,-0.075 2.914,-0.037 4.305,0.168c3.133,0.463 6.269,1.687 8.316,3.244l0.85,0.647l2.054,-1.036c2.526,-1.274 4.039,-1.829 6.46,-2.373c11.451,-2.573 21.874,4.559 24.209,16.566c0.454,2.33 0.486,2.683 0.583,6.27c0.129,4.748 0.402,6.336 1.444,8.392c0.544,1.073 2.259,2.732 3.383,3.272c1.777,0.854 3.065,1.094 5.957,1.107l2.629,0.012l0,12.8l-0.745,-0.029c-0.41,-0.015 -1.099,-0.051 -1.531,-0.078l0,0Zm-56.658,-12.908c3.777,-0.981 6.056,-3.292 6.933,-7.03c0.414,-1.767 0.416,-8.154 0.003,-10.072c-1.13,-5.239 -3.542,-7.711 -7.52,-7.707c-1.08,0.001 -3.599,0.429 -3.799,0.646c-0.031,0.032 -0.107,5.596 -0.171,12.364l-0.115,12.304l1.707,-0.089c0.938,-0.049 2.271,-0.236 2.962,-0.416l0,0Zm-5.258,-18.598l0,-6.031l0.51,-0.16c4.036,-1.268 7.074,-0.856 9.315,1.264c2.041,1.929 3.076,4.814 3.439,9.584l0.105,1.373l11.429,0l0,-5.698l0,-5.698l1.074,-0.346c3.634,-1.17 6.96,-0.517 9.51,1.868c0.562,0.526 1.183,1.215 1.379,1.531l0.357,0.574l0.099,-1.108c0.349,-3.898 4.308,-6.346 7.996,-4.944c0.435,0.165 1.035,0.486 1.332,0.712c0.297,0.227 0.54,0.366 0.54,0.31c0,-0.232 -1.748,-2.732 -2.53,-3.617c-3.23,-3.656 -7.226,-5.679 -12.233,-6.193c-4.073,-0.418 -9.262,0.848 -13.488,3.29c-1.085,0.627 -1.381,0.737 -1.586,0.589c-0.139,-0.1 -0.598,-0.446 -1.02,-0.769c-1.039,-0.793 -3.171,-1.879 -4.659,-2.374c-2.218,-0.737 -3.719,-0.949 -6.704,-0.946c-4.134,0.004 -6.941,0.62 -10.28,2.254c-2.907,1.424 -4.939,3.222 -5.994,5.306l-0.362,0.716l0,14.543l11.771,0l0,-6.03Zm50.022,4.029c-0.084,-1.809 -0.55,-4.836 -0.883,-5.732c-0.113,-0.306 -0.143,-0.267 -0.24,0.301c-0.171,1.008 -0.913,2.418 -1.673,3.179c-0.38,0.381 -1.15,0.91 -1.711,1.177c-0.907,0.431 -1.177,0.485 -2.433,0.483c-1.192,-0.001 -1.549,-0.066 -2.294,-0.413c-0.485,-0.226 -1.185,-0.684 -1.555,-1.017l-0.672,-0.607l0.119,0.628c0.241,1.274 0.394,2.531 0.397,3.256l0.003,0.746l11.034,0l-0.092,-2.001Zm31.434,20.369l0,-7.225l3.3,0l-0.041,7.181l-0.041,7.18l-1.609,0.045l-1.609,0.045l0,-7.226Zm10.516,0l0,-7.225l3.299,0l-0.041,7.181l-0.04,7.18l-1.609,0.045l-1.609,0.045l0,-7.226Zm6.388,7.115c-0.06,-0.06 -0.11,-3.313 -0.11,-7.229l0,-7.12l1.993,0.044l1.994,0.044l1.548,2.668c1.28,2.204 2.503,4.564 3.703,7.141c0.172,0.369 0.178,0.36 0.104,-0.157c-0.043,-0.302 -0.125,-2.615 -0.182,-5.14l-0.104,-4.591l3.029,0l0,14.44l-1.646,0l-1.646,0l-0.368,-0.589c-0.84,-1.341 -3.833,-6.833 -4.599,-8.436l-0.824,-1.726l0.029,5.336l0.03,5.336l-1.421,0.045c-0.781,0.024 -1.469,-0.005 -1.53,-0.066l0,0Zm15.114,-7.12l0,-7.22l8.946,0l0,2.668l-2.825,0l-2.825,0l0,3.296l5.336,0l0,1.086c0,1.692 0.191,1.583 -2.763,1.583l-2.573,0l0,5.807l-1.648,0l-1.648,0l0,-7.22Zm27.466,0.081l0,-7.138l0.432,-0.118c0.237,-0.064 1.773,-0.118 3.413,-0.118c2.771,-0.002 3.049,0.025 3.924,0.371c0.578,0.229 1.186,0.624 1.574,1.024c1.722,1.774 1.178,4.837 -1.065,5.997l-0.478,0.247l0.489,0.31c0.269,0.17 0.633,0.542 0.809,0.826c0.263,0.427 1.732,5.183 1.732,5.61c0,0.07 -0.739,0.128 -1.642,0.128l-1.641,0l-0.379,-1.217c-0.208,-0.669 -0.467,-1.605 -0.575,-2.079c-0.25,-1.098 -0.717,-1.951 -1.216,-2.218c-0.215,-0.115 -0.788,-0.21 -1.275,-0.212l-0.884,-0.003l-0.043,2.864l-0.043,2.865l-1.566,0l-1.566,0l0,-7.139Zm5.864,-1.239c1.212,-0.506 1.624,-2.079 0.801,-3.058c-0.486,-0.577 -1.716,-0.902 -2.8,-0.739l-0.726,0.109l0,3.904l1.104,0c0.607,0 1.337,-0.097 1.621,-0.216Zm6.847,8.025c-0.004,-0.692 0.807,-13.387 0.878,-13.734c0.07,-0.345 0.117,-0.353 2.243,-0.353l2.172,0l0.8,2.708c0.868,2.933 1.756,6.439 1.756,6.928c0,0.593 0.185,0.103 0.711,-1.89c0.293,-1.11 0.941,-3.304 1.441,-4.878l0.909,-2.861l2.147,-0.003l2.146,-0.004l0.088,0.824c0.091,0.847 0.723,12.411 0.721,13.184l-0.002,0.431l-1.547,0l-1.547,0l-0.097,-0.929c-0.054,-0.511 -0.146,-3.089 -0.205,-5.729c-0.059,-2.641 -0.133,-4.775 -0.165,-4.743c-0.032,0.032 -0.221,0.65 -0.42,1.374c-0.199,0.724 -0.955,3.206 -1.68,5.515l-1.318,4.198l-1.286,0l-1.286,0l-0.237,-0.824c-0.894,-3.107 -1.862,-6.756 -2.218,-8.357c-0.231,-1.036 -0.435,-1.899 -0.454,-1.918c-0.019,-0.019 -0.122,2.029 -0.229,4.551c-0.107,2.523 -0.236,5.099 -0.288,5.724l-0.093,1.138l-1.469,0c-1.419,0 -1.47,-0.012 -1.472,-0.353l0.001,0.001Zm17.737,0.259c0,-0.092 2.068,-6.836 3.785,-12.345l0.623,-2.001l4.357,0l0.161,0.51c1.883,5.953 4.258,13.629 4.258,13.759c0,0.113 -0.584,0.171 -1.714,0.171l-1.715,0l-0.492,-1.609c-0.271,-0.885 -0.528,-1.732 -0.572,-1.883c-0.071,-0.244 -0.315,-0.275 -2.177,-0.275l-2.097,0l-0.257,0.902c-0.142,0.497 -0.38,1.327 -0.53,1.844l-0.272,0.942l-1.679,0.045c-0.923,0.024 -1.679,-0.003 -1.679,-0.06Zm8.005,-6.264c0,-0.13 -0.318,-1.334 -0.707,-2.675c-0.388,-1.342 -0.706,-2.556 -0.706,-2.699c0,-0.545 -0.288,0.074 -0.53,1.138c-0.137,0.604 -0.453,1.82 -0.701,2.702c-0.249,0.883 -0.415,1.642 -0.369,1.688c0.046,0.045 0.742,0.083 1.548,0.083c1.201,0 1.465,-0.043 1.465,-0.237Zm8.475,0.472l0,-5.886l-1.962,0l-1.962,0l0,-1.334l0,-1.334l11.144,0l0,2.668l-1.962,0l-1.962,0l0,11.772l-1.648,0l-1.648,0l0,-5.886Zm12.817,5.781c-0.057,-0.058 -0.104,-1.436 -0.104,-3.063l0,-2.959l-2.117,-3.904c-1.165,-2.147 -2.161,-4.017 -2.214,-4.156c-0.086,-0.223 0.115,-0.253 1.733,-0.253l1.831,0l0.332,0.746c0.182,0.41 0.774,1.802 1.316,3.093c0.898,2.142 0.998,2.313 1.14,1.941c0.085,-0.224 0.664,-1.616 1.285,-3.094l1.131,-2.686l1.784,0c0.981,0 1.783,0.045 1.783,0.099c0,0.054 -1.059,1.952 -2.354,4.217l-2.354,4.119l0,6.005l-1.544,0c-0.848,0 -1.59,-0.047 -1.648,-0.105Zm9.47,-7.11l0,-7.225l3.296,0l0,6.343l1.424,-2.112c0.783,-1.162 1.747,-2.589 2.142,-3.171l0.717,-1.06l4.062,0l-0.776,0.981c-2.871,3.629 -3.956,5.08 -3.902,5.218c0.034,0.087 1.167,1.959 2.519,4.16l2.456,4.002l-1.761,0.045c-0.969,0.024 -1.842,0.013 -1.941,-0.025c-0.099,-0.038 -0.899,-1.334 -1.777,-2.88c-2.14,-3.768 -1.876,-3.503 -2.573,-2.588l-0.582,0.762l-0.043,2.343l-0.044,2.343l-1.609,0.045l-1.608,0.045l0,-7.226Zm13.497,-0.005l0,-7.22l3.296,0l0,14.44l-1.648,0l-1.648,0l0,-7.22Zm-109.668,-15.486l-0.824,-0.068l0,-7.122l0,-7.122l0.903,-0.123c0.496,-0.067 1.997,-0.121 3.335,-0.118c3.482,0.007 5.01,0.455 6.644,1.948c1.45,1.326 2.115,3.28 1.94,5.697c-0.156,2.146 -0.837,3.677 -2.19,4.922c-1.51,1.39 -3.329,1.934 -6.708,2.006c-1.252,0.027 -2.647,0.018 -3.1,-0.02l0,0Zm5.194,-2.642c1.999,-0.52 3.098,-1.896 3.331,-4.169c0.223,-2.178 -0.573,-3.948 -2.129,-4.735c-0.933,-0.472 -2.413,-0.703 -3.358,-0.526l-0.566,0.106l0,4.675c0,2.572 0.047,4.723 0.105,4.78c0.186,0.187 1.688,0.111 2.617,-0.131Zm59.194,2.605l-0.784,-0.093l-0.041,-7.084l-0.041,-7.084l0.669,-0.093c1.56,-0.217 4.211,-0.275 5.416,-0.119c2.243,0.29 3.648,1.179 4.119,2.607c0.444,1.345 -0.227,2.939 -1.546,3.668l-0.67,0.37l0.767,0.355c3.072,1.423 2.651,5.731 -0.682,6.979c-1.5,0.561 -4.755,0.785 -7.206,0.494l-0.001,0Zm5.33,-2.594c0.726,-0.308 1.065,-0.787 1.144,-1.618c0.128,-1.349 -0.779,-2.059 -2.809,-2.198l-1.232,-0.085l0,2.052c0,1.818 0.031,2.06 0.275,2.131c0.424,0.123 2.089,-0.056 2.622,-0.282l0,0Zm-0.096,-6.511c0.903,-0.461 1.191,-1.319 0.738,-2.196c-0.348,-0.674 -1.618,-1.068 -2.847,-0.883l-0.692,0.103l0,3.277l1.105,0c0.78,0 1.279,-0.089 1.696,-0.301Zm10.932,9.028c-1.927,-0.61 -3.032,-1.915 -3.511,-4.148c-0.109,-0.511 -0.177,-2.626 -0.177,-5.528l0,-4.701l3.296,0l0,4.68c0,3.718 0.049,4.844 0.237,5.478c0.711,2.395 3.736,2.599 4.727,0.319c0.257,-0.593 0.296,-1.219 0.341,-5.572l0.051,-4.905l3.276,0l-0.002,4.355c0,2.396 -0.073,4.815 -0.161,5.376c-0.359,2.29 -1.673,3.968 -3.565,4.552c-1.179,0.364 -3.504,0.412 -4.512,0.094l0,0Zm12.164,0.087l-0.863,-0.103l0,-7.057l0,-7.056l0.549,-0.13c0.302,-0.071 1.785,-0.141 3.296,-0.155c2.124,-0.02 2.987,0.034 3.809,0.239c2.518,0.629 4.061,1.951 4.85,4.156c0.449,1.255 0.453,3.796 0.008,5.176c-0.376,1.167 -1.112,2.362 -1.86,3.019c-0.742,0.651 -2.21,1.369 -3.392,1.66c-1.076,0.264 -4.992,0.418 -6.397,0.251l0,0Zm5.924,-2.851c0.951,-0.42 1.531,-0.974 2.056,-1.961c0.381,-0.718 0.417,-0.937 0.417,-2.589c0,-1.558 -0.048,-1.894 -0.344,-2.448c-0.398,-0.743 -1.295,-1.58 -2.018,-1.882c-0.652,-0.272 -2.4,-0.448 -3.117,-0.313l-0.564,0.105l0,4.675c0,2.572 0.053,4.731 0.118,4.798c0.222,0.232 2.678,-0.042 3.452,-0.385l0,0Zm12.317,2.674c-1.135,-0.409 -1.753,-0.815 -2.57,-1.691c-1.269,-1.359 -1.856,-3.036 -1.856,-5.298c0,-2.308 0.556,-3.858 1.917,-5.348c1.373,-1.501 2.925,-2.137 5.204,-2.131c3.43,0.01 5.912,2.012 6.617,5.338c0.724,3.413 -0.485,6.883 -2.939,8.435c-1.605,1.015 -4.581,1.34 -6.373,0.695Zm3.695,-2.445c0.773,-0.323 1.248,-0.786 1.682,-1.64c0.842,-1.66 0.897,-3.98 0.133,-5.683c-0.693,-1.543 -1.846,-2.274 -3.361,-2.128c-1.897,0.182 -3.116,2.071 -3.116,4.829c0,2.236 0.728,3.786 2.101,4.475c0.89,0.447 1.728,0.495 2.561,0.147Zm78.782,2.459c-0.585,-0.153 -1.144,-0.358 -1.243,-0.457c-0.135,-0.136 -0.108,-0.493 0.108,-1.44c0.158,-0.694 0.31,-1.261 0.337,-1.261c0.027,0 0.576,0.177 1.219,0.393c2.202,0.739 4.234,0.45 4.657,-0.661c0.387,-1.018 -0.23,-1.685 -2.299,-2.486c-2.974,-1.153 -4.088,-2.449 -3.965,-4.614c0.051,-0.902 0.143,-1.209 0.528,-1.752c1.1,-1.556 2.579,-2.216 4.939,-2.202c1.416,0.008 3.203,0.338 3.516,0.65c0.084,0.084 -0.003,0.648 -0.214,1.39l-0.355,1.247l-0.527,-0.22c-0.773,-0.323 -2.422,-0.52 -3.185,-0.381c-0.862,0.158 -1.433,0.69 -1.433,1.338c0,0.697 0.468,1.072 2.355,1.891c0.887,0.385 1.844,0.843 2.125,1.017c2.502,1.546 2.648,4.951 0.29,6.748c-1.403,1.069 -4.456,1.425 -6.853,0.8Zm-224.31,-0.058c-0.034,-0.108 -0.777,-3.198 -1.651,-6.867c-0.873,-3.668 -1.627,-6.829 -1.676,-7.023c-0.086,-0.35 -0.072,-0.353 1.646,-0.353c1.514,0 1.743,0.035 1.817,0.275c0.166,0.543 1.82,9.823 1.82,10.21c0,0.218 0.038,0.359 0.085,0.312c0.046,-0.046 0.538,-2.336 1.093,-5.088c0.555,-2.751 1.049,-5.164 1.097,-5.361c0.086,-0.35 0.129,-0.357 1.845,-0.314l1.757,0.044l0.739,3.846c0.407,2.114 0.827,4.495 0.934,5.29c0.106,0.794 0.242,1.414 0.302,1.377c0.06,-0.037 0.154,-0.457 0.21,-0.934c0.087,-0.741 1.523,-8.27 1.774,-9.304c0.083,-0.338 0.155,-0.353 1.73,-0.353l1.643,0l-0.096,0.431c-0.053,0.238 -0.889,3.469 -1.858,7.181l-1.762,6.749l-1.8,0l-1.801,0l-0.819,-4.159c-0.451,-2.288 -0.869,-4.645 -0.928,-5.238c-0.117,-1.167 -0.274,-1.119 -0.447,0.137c-0.06,0.431 -0.527,2.672 -1.04,4.978c-0.512,2.306 -0.931,4.231 -0.931,4.277c0,0.046 -0.815,0.083 -1.81,0.083c-1.31,0 -1.827,-0.054 -1.873,-0.196l0,0Zm20.476,-2.81l0,-3.006l-1.747,-3.233c-0.961,-1.778 -1.991,-3.674 -2.289,-4.213l-0.542,-0.981l3.76,0l0.739,1.687c0.406,0.928 0.988,2.31 1.293,3.071c0.305,0.761 0.605,1.326 0.667,1.256c0.062,-0.071 0.232,-0.438 0.378,-0.816c0.146,-0.378 0.695,-1.702 1.219,-2.943l0.952,-2.255l1.787,0c0.983,0 1.788,0.044 1.788,0.099c0,0.054 -1.06,1.952 -2.355,4.217l-2.354,4.119l0,6.004l-1.648,0l-1.648,0l0,-3.006Zm23.857,2.175c0,-0.829 0.007,-0.841 3.513,-5.846l3.513,-5.016l-3.121,-0.042l-3.121,-0.042l0,-1.331l0,-1.331l10.516,0l0,1.859l-3.316,4.76c-1.823,2.618 -3.349,4.848 -3.391,4.956c-0.059,0.153 0.683,0.196 3.394,0.196l3.47,0l0,2.668l-5.729,0l-5.728,0l0,-0.831Zm13.654,-6.388l0,-7.22l3.296,0l0,14.439l-1.648,0l-1.648,0l0,-7.219Zm7.598,0.039l2.221,-7.181l4.369,0l2.242,7.141c1.233,3.928 2.243,7.159 2.244,7.181c0.002,0.022 -0.794,0.039 -1.769,0.039l-1.772,0l-0.545,-1.844l-0.545,-1.844l-2.108,0l-2.108,0l-0.269,0.942c-0.148,0.518 -0.384,1.347 -0.523,1.844l-0.255,0.902l-1.701,0l-1.702,0l2.221,-7.18Zm5.9,0.983c0,-0.128 -1.429,-5.159 -1.561,-5.496c-0.096,-0.243 -0.168,-0.102 -0.321,0.628c-0.108,0.518 -0.435,1.789 -0.725,2.825c-0.291,1.036 -0.53,1.937 -0.531,2.001c-0.001,0.065 0.705,0.118 1.568,0.118c0.863,0 1.57,-0.034 1.57,-0.076Zm7.498,3.687l-0.043,-2.509l-0.706,0.468c-0.389,0.258 -0.763,0.469 -0.832,0.47c-0.068,0 -0.104,-0.475 -0.078,-1.056l0.046,-1.056l0.819,-0.553l0.818,-0.552l0.006,-3.571l0.006,-3.57l3.296,0l0,2.433c0,1.338 0.038,2.432 0.085,2.432c0.047,0 0.609,-0.353 1.249,-0.784c0.639,-0.432 1.201,-0.785 1.248,-0.785c0.047,0 0.086,0.484 0.086,1.075l0,1.075l-1.334,0.888l-1.334,0.888l0,4.549l5.807,0l0,2.668l-4.548,0l-4.547,0l-0.044,-2.51l0,0Zm76.94,2.412c0,-0.112 -3.053,-12.945 -3.29,-13.831l-0.137,-0.51l3.528,0l0.348,1.844c0.191,1.014 0.59,3.221 0.887,4.905c0.298,1.683 0.586,3.307 0.641,3.609c0.094,0.509 0.698,-2.163 2.138,-9.456l0.178,-0.902l3.517,0l0.642,3.335c0.353,1.834 0.745,3.971 0.872,4.748c0.127,0.777 0.283,1.73 0.347,2.119l0.115,0.706l0.197,-1.177c0.109,-0.648 0.569,-3.102 1.024,-5.454l0.826,-4.277l1.691,0c1.284,0 1.674,0.047 1.623,0.196c-0.038,0.108 -0.745,2.809 -1.572,6.003c-0.827,3.194 -1.65,6.355 -1.828,7.024l-0.324,1.216l-1.775,0l-1.774,0l-0.16,-0.745c-0.291,-1.358 -1.572,-8.265 -1.681,-9.064c-0.102,-0.746 -0.137,-0.639 -0.715,2.197c-0.335,1.64 -0.843,4.006 -1.13,5.258l-0.522,2.276l-1.833,0.044c-1.008,0.024 -1.833,-0.004 -1.833,-0.064l0,0Zm20.561,-2.828l0,-2.926l-2.276,-4.203c-1.252,-2.312 -2.276,-4.244 -2.276,-4.294c0,-0.049 0.83,-0.089 1.844,-0.088l1.844,0.001l1.236,2.941c0.679,1.618 1.29,3.001 1.356,3.074c0.067,0.072 0.21,-0.14 0.319,-0.471c0.273,-0.834 2.182,-5.284 2.331,-5.435c0.067,-0.068 0.907,-0.103 1.868,-0.078l1.748,0.044l-2.349,4.122l-2.349,4.122l0,6.117l-1.648,0l-1.648,0l0,-2.926l0,0Zm13.736,2.102c0.089,-0.874 0.86,-12.817 0.86,-13.325c0,-0.282 0.127,-0.296 2.22,-0.255l2.22,0.043l0.838,2.825c0.46,1.554 1.021,3.638 1.246,4.63c0.605,2.671 0.57,2.66 1.155,0.378c0.285,-1.114 0.948,-3.35 1.472,-4.968l0.954,-2.943l4.334,0l0,0.474c0,0.638 0.593,11.392 0.707,12.827l0.091,1.138l-1.631,0l-1.63,0l-0.102,-2.786c-0.056,-1.532 -0.148,-4.117 -0.205,-5.745l-0.105,-2.96l-0.603,2.175c-0.332,1.196 -1.089,3.693 -1.681,5.549l-1.078,3.375l-1.316,0.045l-1.315,0.044l-1.014,-3.654c-0.558,-2.01 -1.2,-4.502 -1.428,-5.538l-0.413,-1.884l-0.098,1.413c-0.054,0.777 -0.183,3.337 -0.287,5.689l-0.188,4.277l-1.544,0l-1.544,0l0.085,-0.824Zm19.917,-6.356l2.221,-7.181l4.371,0l2.24,7.141c1.232,3.928 2.241,7.159 2.242,7.181c0.002,0.022 -0.794,0.039 -1.769,0.039l-1.772,0l-0.545,-1.844l-0.545,-1.844l-2.111,0l-2.112,0l-0.214,0.785c-0.118,0.431 -0.353,1.261 -0.522,1.844l-0.308,1.059l-1.699,0l-1.699,0l2.222,-7.18Zm5.898,0.983c0,-0.128 -1.429,-5.159 -1.561,-5.496c-0.096,-0.243 -0.168,-0.102 -0.321,0.628c-0.108,0.518 -0.435,1.789 -0.725,2.825c-0.291,1.036 -0.53,1.937 -0.531,2.001c-0.001,0.065 0.705,0.118 1.568,0.118c0.864,0 1.57,-0.034 1.57,-0.076Zm18.363,5.312l0,-0.886l3.453,-4.917c1.899,-2.704 3.453,-4.954 3.453,-5c0,-0.046 -1.413,-0.083 -3.139,-0.083l-3.139,0l0,-1.334l0,-1.334l10.515,0l0,1.983l-3.378,4.855l-3.378,4.855l3.457,0.042l3.456,0.042l0,2.662l-5.65,0l-5.65,0l0,-0.885Zm17.107,-2.118l0,-3.003l-1.748,-3.236c-0.961,-1.779 -1.992,-3.677 -2.289,-4.216l-0.541,-0.981l3.75,0l0.871,2.001c0.479,1.101 1.063,2.483 1.298,3.071c0.235,0.588 0.478,1.012 0.54,0.942c0.062,-0.071 0.232,-0.438 0.378,-0.816c0.146,-0.378 0.695,-1.702 1.219,-2.943l0.952,-2.255l1.787,0c0.983,0 1.788,0.044 1.788,0.099c0,0.054 -1.06,1.952 -2.355,4.217l-2.354,4.119l0,6.004l-1.648,0l-1.648,0l0,-3.003Zm9.574,-4.217l0,-7.219l3.845,0.002l1.76,3.099c0.968,1.704 2.168,3.954 2.668,5l0.909,1.902l-0.056,-5.001l-0.055,-5.002l3.014,0l0,14.45l-1.763,-0.045l-1.764,-0.044l-1.552,-2.747c-0.853,-1.51 -2.125,-3.883 -2.827,-5.273l-1.275,-2.526l0.052,5.312l0.052,5.312l-1.504,0l-1.504,0l0,-7.22Z" style="fill:#1b4d98;fill-rule:nonzero;"/></svg>