<?xml version="1.0" encoding="UTF-8" standalone="no"?><!DOCTYPE svg PUBLIC "-//W3C//DTD SVG 1.1//EN" "http://www.w3.org/Graphics/SVG/1.1/DTD/svg11.dtd"><svg width="100%" height="100%" viewBox="0 0 18 13" version="1.1" xmlns="http://www.w3.org/2000/svg" xmlns:xlink="http://www.w3.org/1999/xlink" xml:space="preserve" xmlns:serif="http://www.serif.com/" style="fill-rule:evenodd;clip-rule:evenodd;stroke-linejoin:round;stroke-miterlimit:2;"><g id="Yt-logo" serif:id="Yt logo"><path id="Yt-logo1" serif:id="Yt logo" d="M17.294,1.915c-0.202,-0.725 -0.77,-1.293 -1.495,-1.495c-1.338,-0.359 -6.726,-0.359 -6.726,-0.359c0,0 -5.374,-0.007 -6.727,0.359c-0.724,0.202 -1.292,0.77 -1.495,1.495c-0.253,1.37 -0.378,2.761 -0.373,4.155c-0.004,1.389 0.121,2.775 0.373,4.14c0.203,0.725 0.771,1.293 1.495,1.495c1.338,0.359 6.727,0.359 6.727,0.359c0,0 5.373,0 6.726,-0.359c0.725,-0.202 1.293,-0.77 1.495,-1.495c0.248,-1.366 0.367,-2.752 0.358,-4.14c0.01,-1.393 -0.109,-2.784 -0.358,-4.155Zm-9.941,6.726l0,-5.149l4.485,2.578l-4.485,2.571Z" style="fill:#ca4a46;fill-rule:nonzero;"/></g></svg>