<?xml version="1.0" encoding="UTF-8" standalone="no"?>
<!DOCTYPE svg PUBLIC "-//W3C//DTD SVG 1.1//EN" "http://www.w3.org/Graphics/SVG/1.1/DTD/svg11.dtd">
<svg width="100%" height="100%" viewBox="0 0 2373 900" version="1.1" xmlns="http://www.w3.org/2000/svg" xmlns:xlink="http://www.w3.org/1999/xlink" xml:space="preserve" xmlns:serif="http://www.serif.com/" style="fill-rule:evenodd;clip-rule:evenodd;stroke-linejoin:round;stroke-miterlimit:2;">
    <g transform="matrix(1,0,0,1,-2009.8,-37.0147)">
        <g id="Brand---Logotyp---horizontal---buddy_works" serif:id="Brand / Logotyp / horizontal / buddy_works" transform="matrix(19.9176,0,0,7.5541,-22849,-4772.23)">
            <rect x="1248.08" y="636.64" width="119.141" height="119.141" style="fill:none;"/>
            <g>
                <g transform="matrix(1.95533,0,0,5.156,653.175,-7241.39)">
                    <g transform="matrix(12,0,0,12,324.899,1543.42)">
                        <path d="M0.058,-0L0.334,-0C0.474,-0 0.588,-0.065 0.588,-0.212C0.588,-0.28 0.558,-0.337 0.491,-0.367C0.54,-0.4 0.566,-0.446 0.566,-0.51C0.566,-0.632 0.476,-0.7 0.329,-0.7L0.058,-0.7L0.058,-0ZM0.256,-0.435L0.256,-0.534L0.312,-0.534C0.346,-0.534 0.363,-0.514 0.363,-0.486C0.363,-0.457 0.346,-0.435 0.314,-0.435L0.256,-0.435ZM0.256,-0.167L0.256,-0.28L0.33,-0.28C0.365,-0.28 0.384,-0.252 0.384,-0.224C0.384,-0.197 0.363,-0.167 0.327,-0.167L0.256,-0.167Z" style="fill-rule:nonzero;"/>
                    </g>
                    <g transform="matrix(12,0,0,12,332.219,1543.42)">
                        <path d="M0.219,0.013C0.284,0.013 0.332,-0.023 0.351,-0.05L0.351,-0L0.54,-0L0.54,-0.528L0.346,-0.528L0.346,-0.214C0.346,-0.184 0.328,-0.158 0.29,-0.158C0.258,-0.158 0.234,-0.177 0.234,-0.217L0.234,-0.528L0.04,-0.528L0.04,-0.188C0.04,-0.066 0.094,0.013 0.219,0.013Z" style="fill-rule:nonzero;"/>
                    </g>
                    <g transform="matrix(12,0,0,12,339.167,1543.42)">
                        <path d="M0.596,-0.723L0.402,-0.723L0.402,-0.495C0.383,-0.511 0.336,-0.541 0.268,-0.541C0.115,-0.541 0.019,-0.427 0.019,-0.264C0.019,-0.102 0.127,0.013 0.281,0.013C0.35,0.013 0.396,-0.014 0.416,-0.034L0.416,-0L0.596,-0L0.596,-0.723ZM0.408,-0.264C0.408,-0.204 0.375,-0.154 0.311,-0.154C0.25,-0.154 0.213,-0.197 0.213,-0.264C0.213,-0.329 0.249,-0.375 0.311,-0.375C0.369,-0.375 0.408,-0.334 0.408,-0.264Z" style="fill-rule:nonzero;"/>
                    </g>
                    <g transform="matrix(12,0,0,12,346.835,1543.42)">
                        <path d="M0.596,-0.723L0.402,-0.723L0.402,-0.495C0.383,-0.511 0.336,-0.541 0.268,-0.541C0.115,-0.541 0.019,-0.427 0.019,-0.264C0.019,-0.102 0.127,0.013 0.281,0.013C0.35,0.013 0.396,-0.014 0.416,-0.034L0.416,-0L0.596,-0L0.596,-0.723ZM0.408,-0.264C0.408,-0.204 0.375,-0.154 0.311,-0.154C0.25,-0.154 0.213,-0.197 0.213,-0.264C0.213,-0.329 0.249,-0.375 0.311,-0.375C0.369,-0.375 0.408,-0.334 0.408,-0.264Z" style="fill-rule:nonzero;"/>
                    </g>
                    <g transform="matrix(12,0,0,12,354.503,1543.42)">
                        <path d="M0.313,0.179L0.573,-0.528L0.371,-0.528L0.29,-0.255L0.214,-0.528L0.006,-0.528L0.202,-0.02L0.131,0.179L0.313,0.179Z" style="fill-rule:nonzero;"/>
                    </g>
                </g>
                <g transform="matrix(0.0640428,0,0,0.168875,1041.37,451.41)">
                    <path d="M3531.62,1214.34C3544.63,1206.83 3560.66,1206.83 3573.68,1214.34C3614.49,1237.9 3704.01,1289.59 3744.82,1313.15C3757.84,1320.66 3765.85,1334.55 3765.85,1349.58L3765.85,1547.2C3765.85,1562.23 3757.84,1576.11 3744.82,1583.62C3704.01,1607.19 3614.49,1658.87 3573.68,1682.44C3560.66,1689.95 3544.63,1689.95 3531.62,1682.44C3490.8,1658.87 3401.28,1607.19 3360.47,1583.62C3347.46,1576.11 3339.44,1562.23 3339.44,1547.2L3339.44,1349.58C3339.44,1334.55 3347.46,1320.66 3360.47,1313.15C3401.28,1289.59 3490.8,1237.9 3531.62,1214.34Z" style="fill:rgb(13,167,254);"/>
                    <clipPath id="_clip1">
                        <path d="M3531.62,1214.34C3544.63,1206.83 3560.66,1206.83 3573.68,1214.34C3614.49,1237.9 3704.01,1289.59 3744.82,1313.15C3757.84,1320.66 3765.85,1334.55 3765.85,1349.58L3765.85,1547.2C3765.85,1562.23 3757.84,1576.11 3744.82,1583.62C3704.01,1607.19 3614.49,1658.87 3573.68,1682.44C3560.66,1689.95 3544.63,1689.95 3531.62,1682.44C3490.8,1658.87 3401.28,1607.19 3360.47,1583.62C3347.46,1576.11 3339.44,1562.23 3339.44,1547.2L3339.44,1349.58C3339.44,1334.55 3347.46,1320.66 3360.47,1313.15C3401.28,1289.59 3490.8,1237.9 3531.62,1214.34Z"/>
                    </clipPath>
                    <g clip-path="url(#_clip1)">
                        <g transform="matrix(4.73457,0,0,4.73441,-3837.86,-2328.21)">
                            <path d="M1515.44,823.698L1539.39,797.692L1561.03,849.692L1515.44,823.698Z" style="fill:rgb(26,103,253);"/>
                        </g>
                        <g transform="matrix(4.73457,0,0,4.73441,-3837.86,-2328.21)">
                            <path d="M1539.39,797.692L1515.76,771.51L1515.44,823.698L1539.39,797.692Z" style="fill:rgb(13,167,254);"/>
                        </g>
                        <g transform="matrix(4.73457,0,0,4.73441,-3837.86,-2328.21)">
                            <path d="M1539.39,797.692L1561.03,745.692L1515.76,771.51L1539.39,797.692Z" style="fill:rgb(5,187,255);"/>
                        </g>
                        <g transform="matrix(4.73457,0,0,4.73441,-3837.86,-2328.21)">
                            <path d="M1561.03,745.692L1606.07,823.692L1539.39,797.692" style="fill:rgb(0,201,255);"/>
                        </g>
                        <g transform="matrix(4.73457,0,0,4.73441,-3837.86,-2328.21)">
                            <path d="M1561.03,849.781L1606.07,823.698L1539.39,797.692L1561.03,849.781Z" style="fill:rgb(26,134,253);"/>
                        </g>
                        <g transform="matrix(4.73457,0,0,4.73441,-3837.86,-2328.21)">
                            <path d="M1606.07,823.692L1606.07,771.692L1561.03,745.692L1606.07,823.692Z" style="fill:rgb(5,187,255);"/>
                        </g>
                        <g transform="matrix(0.404916,0,0,0.404903,3335.71,489.336)">
                            <path d="M459.626,2129.11L714.645,2384.13L459.626,2639.15L392.785,2572.31L580.963,2384.13L392.785,2195.95L459.626,2129.11Z" style="fill:rgb(26,103,253);fill-opacity:0.5;"/>
                        </g>
                        <g transform="matrix(0.723097,0,0,0.723073,3571.8,711.727)">
                            <g transform="matrix(0.395962,0.395962,-0.442685,0.442685,769.524,-151.964)">
                                <rect x="494.942" y="2099.11" width="94.527" height="322.587" style="fill:rgb(214,255,255);"/>
                            </g>
                            <g transform="matrix(0.395962,-0.395962,0.442685,0.442685,-1231.77,172.047)">
                                <rect x="494.942" y="2099.11" width="94.527" height="322.587" style="fill:rgb(214,255,255);"/>
                            </g>
                        </g>
                    </g>
                </g>
            </g>
        </g>
    </g>
</svg>
