<?xml version="1.0" encoding="UTF-8" standalone="no"?>
<!DOCTYPE svg PUBLIC "-//W3C//DTD SVG 1.1//EN" "http://www.w3.org/Graphics/SVG/1.1/DTD/svg11.dtd">
<svg width="100%" height="100%" viewBox="0 0 3496 1167" version="1.1" xmlns="http://www.w3.org/2000/svg" xmlns:xlink="http://www.w3.org/1999/xlink" xml:space="preserve" xmlns:serif="http://www.serif.com/" style="fill-rule:evenodd;clip-rule:evenodd;stroke-linejoin:round;stroke-miterlimit:2;">
    <g transform="matrix(4.16667,0,0,4.16667,0,0)">
        <g id="Artboard1" transform="matrix(0.239081,0,0,0.112653,0,0)">
            <rect x="0" y="0" width="3508" height="2481" style="fill:none;"/>
            <g transform="matrix(4.18268,0,0,8.87685,-1800.79,-7686.88)">
                <g transform="matrix(1,0,0,1,-903.015,-236.752)">
                    <g transform="matrix(1.57855,0,0,1.57855,1645.83,1183.82)">
                        <path d="M0,18.48C-1.898,23.687 -3.763,27.896 -7.936,32.185C-13.861,38.076 -21.712,41.606 -29.62,41.606C-31.377,41.606 -33.015,41.49 -34.522,41.244C-42.671,40.65 -49.001,38.541 -54.509,34.51C-54.509,34.51 -50.616,35.02 -45.318,34.103C-45.318,34.103 -28.122,33.664 -21.368,16.012C-20.94,14.959 -20.494,13.768 -20.01,12.433L-7.08,-23.115L15.14,-23.126L0,18.48Z" style="fill:rgb(142,159,159);"/>
                    </g>
                    <g transform="matrix(1.57855,0,0,1.57855,1741.74,1147.34)">
                        <path d="M0,61.595L2.939,0L-21.712,0L-68.323,61.595L-44.513,61.595L-39.49,53.848L-22.75,53.848L-23.903,61.595L0,61.595ZM-20.656,39.125L-29.917,39.125L-25.201,32.159C-23.052,28.883 -20.084,24.596 -17.368,18.64L-16.949,18.64C-18.908,24.596 -19.354,28.883 -19.814,32.159L-20.656,39.125Z" style="fill:rgb(142,159,159);"/>
                    </g>
                    <g transform="matrix(1.57855,0,0,1.57855,1838.88,1147.34)">
                        <path d="M0,61.595L22.42,0L1.042,0L-6.479,20.668C-6.665,21.175 -6.879,21.766 -7.093,22.352C-8.069,25.038 -9.182,28.32 -10,32.18L-14.828,0L-36.531,0L-58.955,61.595L-37.582,61.595L-29.475,39.324C-28.587,36.885 -27.479,33.611 -26.605,29.573L-21.88,61.595L0,61.595Z" style="fill:rgb(142,159,159);"/>
                    </g>
                    <g transform="matrix(1.57855,0,0,1.57855,1947.34,1212.82)">
                        <path d="M0,-21.285L7.34,-41.479L-46.563,-41.479L-53.913,-21.285L-38.029,-21.285L-53.127,20.194L-30.912,20.194L-15.814,-21.285L0,-21.285Z" style="fill:rgb(142,159,159);"/>
                    </g>
                    <g transform="matrix(1.57855,0,0,1.57855,2018.03,1147.34)">
                        <path d="M0,61.595L2.939,0L-21.708,0L-68.318,61.595L-44.504,61.595L-39.485,53.848L-22.745,53.848L-23.894,61.595L0,61.595ZM-20.652,39.125L-29.907,39.125L-25.196,32.159C-23.052,28.883 -20.075,24.596 -17.363,18.64L-16.94,18.64C-18.903,24.596 -19.35,28.883 -19.81,32.159L-20.652,39.125Z" style="fill:rgb(142,159,159);"/>
                    </g>
                    <g transform="matrix(1.57855,0,0,1.57855,2095.52,1210.21)">
                        <path d="M0,-18.063C1.535,-21.975 3.01,-24.038 -4.261,-24.038L-9.005,-24.038L-13.433,-11.872L-9.749,-11.872C-5.274,-11.872 -1.544,-14.147 0,-18.063M12.531,21.766L-12.01,21.766L-19.665,5.256L-25.67,21.766L-47.341,21.766L-24.922,-39.829L3.14,-39.829C22.224,-39.829 25.043,-33.257 19.89,-19.086C16.476,-9.698 7.54,-1.795 0.084,-0.874L12.531,21.766Z" style="fill:rgb(142,159,159);"/>
                    </g>
                    <g transform="matrix(1.57902,0,0,1.57902,1399.38,1211.51)">
                        <path d="M0,-17.719C2,-23.168 4.289,-27.571 9.861,-32.064C17.833,-38.229 29.084,-41.92 41.006,-41.92C51.908,-41.92 59.872,-39.81 66.69,-34.885C66.69,-34.885 40.178,-38.334 31.303,-11.393L21.452,15.656L6.614,13.301L19.2,21.849L18.335,24.201L-15.256,24.201L0,-17.719Z" style="fill:rgb(142,159,159);"/>
                    </g>
                    <g transform="matrix(1.57902,0,0,1.57902,1535.87,1185.26)">
                        <path d="M0,17.717C-2.004,23.168 -4.13,27.569 -9.712,32.061C-17.684,38.225 -28.931,41.92 -40.852,41.92C-51.755,41.92 -59.727,39.811 -66.528,34.878C-66.528,34.878 -40.029,38.337 -31.145,11.394L-21.726,-14.498L-9.289,-13.689L-19.094,-21.733L-18.191,-24.203L15.256,-24.203L0,17.717Z" style="fill:rgb(142,159,159);"/>
                    </g>
                </g>
                <g transform="matrix(0.525855,0,0,0.492161,-3251.59,-1886.47)">
                    <rect x="7081.55" y="5930.8" width="699.541" height="143.001" style="fill:rgb(255,129,0);"/>
                </g>
                <g transform="matrix(1.05847,0,0,1.05847,-1200.28,-310.958)">
                    <g transform="matrix(38.4277,-9.41209e-15,9.41209e-15,38.4277,1659.06,1313.05)">
                        <path d="M0.002,0.029C0.035,0.032 0.06,0.034 0.075,0.034C0.105,0.034 0.125,0.028 0.135,0.016C0.145,0.004 0.15,-0.019 0.15,-0.053L0.15,-0.739L0.338,-0.739L0.338,-0.056C0.338,0.028 0.321,0.09 0.287,0.129C0.253,0.168 0.195,0.188 0.112,0.188C0.079,0.188 0.043,0.185 0.002,0.179L0.002,0.029Z" style="fill:white;fill-rule:nonzero;"/>
                    </g>
                    <g transform="matrix(38.4277,-9.41209e-15,9.41209e-15,38.4277,1674.93,1313.05)">
                        <path d="M0.259,0.008C0.158,0.008 0.078,-0.012 0.019,-0.053L0.065,-0.176C0.092,-0.157 0.123,-0.143 0.158,-0.133C0.193,-0.122 0.227,-0.117 0.26,-0.117C0.281,-0.117 0.297,-0.12 0.308,-0.126C0.319,-0.132 0.325,-0.14 0.325,-0.151C0.325,-0.16 0.321,-0.168 0.313,-0.174C0.304,-0.179 0.288,-0.184 0.265,-0.189L0.183,-0.208C0.131,-0.219 0.093,-0.236 0.071,-0.259C0.048,-0.282 0.036,-0.313 0.036,-0.354C0.036,-0.387 0.046,-0.416 0.065,-0.441C0.084,-0.466 0.111,-0.486 0.146,-0.501C0.18,-0.515 0.219,-0.522 0.264,-0.522C0.301,-0.522 0.337,-0.517 0.372,-0.506C0.407,-0.495 0.44,-0.48 0.471,-0.461L0.423,-0.341C0.396,-0.358 0.369,-0.372 0.341,-0.381C0.313,-0.39 0.287,-0.395 0.262,-0.395C0.242,-0.395 0.226,-0.392 0.215,-0.386C0.204,-0.379 0.198,-0.37 0.198,-0.358C0.198,-0.351 0.201,-0.345 0.208,-0.341C0.215,-0.336 0.227,-0.332 0.246,-0.327L0.331,-0.308C0.385,-0.295 0.424,-0.277 0.448,-0.253C0.471,-0.228 0.483,-0.195 0.483,-0.153C0.483,-0.103 0.463,-0.064 0.424,-0.035C0.384,-0.006 0.329,0.008 0.259,0.008Z" style="fill:white;fill-rule:nonzero;"/>
                    </g>
                    <g transform="matrix(38.4277,-9.41209e-15,9.41209e-15,38.4277,1694.79,1313.05)">
                        <path d="M0.31,0.008C0.253,0.008 0.204,-0.003 0.162,-0.024C0.12,-0.045 0.088,-0.076 0.065,-0.116C0.042,-0.156 0.031,-0.203 0.031,-0.257C0.031,-0.311 0.042,-0.358 0.065,-0.398C0.088,-0.438 0.12,-0.469 0.162,-0.49C0.204,-0.511 0.253,-0.522 0.31,-0.522C0.366,-0.522 0.415,-0.511 0.457,-0.49C0.498,-0.468 0.53,-0.437 0.553,-0.398C0.576,-0.358 0.587,-0.311 0.587,-0.257C0.587,-0.203 0.576,-0.156 0.553,-0.117C0.53,-0.077 0.498,-0.046 0.457,-0.025C0.415,-0.003 0.366,0.008 0.31,0.008ZM0.31,-0.127C0.375,-0.127 0.408,-0.17 0.408,-0.257C0.408,-0.301 0.4,-0.333 0.384,-0.355C0.367,-0.376 0.343,-0.386 0.31,-0.386C0.277,-0.386 0.252,-0.376 0.235,-0.355C0.218,-0.333 0.21,-0.301 0.21,-0.257C0.21,-0.212 0.218,-0.18 0.235,-0.159C0.252,-0.137 0.277,-0.127 0.31,-0.127Z" style="fill:white;fill-rule:nonzero;"/>
                    </g>
                    <g transform="matrix(38.4277,-9.41209e-15,9.41209e-15,38.4277,1718.7,1313.05)">
                        <path d="M0.351,-0.595C0.33,-0.595 0.312,-0.589 0.298,-0.577C0.284,-0.564 0.277,-0.545 0.277,-0.52L0.277,-0.508L0.376,-0.508L0.376,-0.375L0.277,-0.375L0.277,0L0.096,0L0.096,-0.375L0.003,-0.375L0.003,-0.508L0.096,-0.508L0.096,-0.522C0.096,-0.591 0.114,-0.644 0.15,-0.683C0.185,-0.722 0.237,-0.741 0.305,-0.741C0.344,-0.741 0.375,-0.736 0.399,-0.727L0.399,-0.588C0.38,-0.593 0.364,-0.595 0.351,-0.595Z" style="fill:white;fill-rule:nonzero;"/>
                    </g>
                    <g transform="matrix(38.4277,-9.41209e-15,9.41209e-15,38.4277,1735.68,1313.05)">
                        <path d="M0.354,-0.138C0.366,-0.138 0.382,-0.14 0.402,-0.144L0.402,-0.007C0.377,0.003 0.346,0.008 0.308,0.008C0.239,0.008 0.187,-0.011 0.152,-0.05C0.116,-0.089 0.098,-0.142 0.098,-0.211L0.098,-0.375L0.003,-0.375L0.003,-0.508L0.098,-0.508L0.098,-0.623L0.279,-0.681L0.279,-0.508L0.401,-0.508L0.401,-0.375L0.279,-0.375L0.279,-0.211C0.279,-0.187 0.286,-0.169 0.301,-0.157C0.315,-0.144 0.333,-0.138 0.354,-0.138Z" style="fill:white;fill-rule:nonzero;"/>
                    </g>
                    <g transform="matrix(38.4277,-9.41209e-15,9.41209e-15,38.4277,1752.47,1313.05)">
                        <path d="M0.736,-0.508L0.91,-0.508L0.698,0L0.549,0L0.447,-0.252L0.351,0L0.201,0L-0.011,-0.508L0.173,-0.508L0.286,-0.215L0.396,-0.508L0.512,-0.508L0.625,-0.209L0.736,-0.508Z" style="fill:white;fill-rule:nonzero;"/>
                    </g>
                    <g transform="matrix(38.4277,-9.41209e-15,9.41209e-15,38.4277,1787.03,1313.05)">
                        <path d="M0.589,-0.508L0.589,0L0.411,0L0.411,-0.069C0.396,-0.045 0.375,-0.026 0.347,-0.013C0.319,0.001 0.288,0.008 0.255,0.008C0.212,0.008 0.173,-0.003 0.139,-0.024C0.105,-0.045 0.079,-0.076 0.06,-0.116C0.041,-0.155 0.031,-0.201 0.031,-0.253C0.031,-0.306 0.041,-0.352 0.06,-0.393C0.079,-0.434 0.106,-0.465 0.14,-0.488C0.174,-0.511 0.212,-0.522 0.255,-0.522C0.288,-0.522 0.319,-0.515 0.347,-0.501C0.374,-0.486 0.396,-0.467 0.411,-0.443L0.411,-0.508L0.589,-0.508ZM0.311,-0.127C0.343,-0.127 0.368,-0.138 0.385,-0.16C0.402,-0.182 0.411,-0.214 0.411,-0.255C0.411,-0.297 0.402,-0.329 0.385,-0.352C0.368,-0.374 0.343,-0.385 0.311,-0.385C0.28,-0.385 0.255,-0.374 0.237,-0.351C0.219,-0.328 0.21,-0.295 0.21,-0.253C0.21,-0.212 0.219,-0.181 0.236,-0.16C0.253,-0.138 0.278,-0.127 0.311,-0.127Z" style="fill:white;fill-rule:nonzero;"/>
                    </g>
                    <g transform="matrix(38.4277,-9.41209e-15,9.41209e-15,38.4277,1812.11,1313.05)">
                        <path d="M0.375,-0.52C0.4,-0.52 0.419,-0.516 0.432,-0.509L0.432,-0.344C0.403,-0.357 0.376,-0.364 0.349,-0.364C0.273,-0.364 0.235,-0.328 0.235,-0.255L0.235,0L0.054,0L0.054,-0.362C0.054,-0.417 0.051,-0.465 0.046,-0.508L0.216,-0.508L0.227,-0.423C0.239,-0.454 0.258,-0.478 0.285,-0.495C0.312,-0.512 0.342,-0.52 0.375,-0.52Z" style="fill:white;fill-rule:nonzero;"/>
                    </g>
                    <g transform="matrix(38.4277,-9.41209e-15,9.41209e-15,38.4277,1828.64,1313.05)">
                        <path d="M0.523,-0.236L0.204,-0.236C0.207,-0.197 0.219,-0.168 0.238,-0.151C0.257,-0.134 0.286,-0.125 0.323,-0.125C0.348,-0.125 0.374,-0.129 0.399,-0.138C0.424,-0.146 0.447,-0.157 0.468,-0.172L0.514,-0.052C0.489,-0.033 0.458,-0.019 0.422,-0.008C0.386,0.003 0.35,0.008 0.314,0.008C0.256,0.008 0.206,-0.003 0.163,-0.024C0.12,-0.045 0.088,-0.076 0.065,-0.116C0.042,-0.155 0.031,-0.202 0.031,-0.256C0.031,-0.307 0.042,-0.353 0.064,-0.394C0.085,-0.434 0.115,-0.465 0.154,-0.488C0.192,-0.511 0.236,-0.522 0.285,-0.522C0.333,-0.522 0.375,-0.511 0.411,-0.49C0.447,-0.469 0.475,-0.438 0.494,-0.399C0.513,-0.359 0.523,-0.313 0.523,-0.26L0.523,-0.236ZM0.29,-0.398C0.245,-0.398 0.217,-0.372 0.206,-0.32L0.368,-0.32C0.361,-0.372 0.335,-0.398 0.29,-0.398Z" style="fill:white;fill-rule:nonzero;"/>
                    </g>
                </g>
                <g transform="matrix(0.525855,0,0,0.492161,-2864.24,-1886.47)">
                    <rect x="7081.55" y="5930.8" width="699.541" height="143.001" style="fill:rgb(255,82,0);"/>
                </g>
                <g transform="matrix(1.05847,0,0,1.05847,-1087.02,-310.958)">
                    <g transform="matrix(38.4277,0,0,38.4277,1927.89,1313.36)">
                        <path d="M0.002,0.029C0.035,0.032 0.06,0.034 0.075,0.034C0.105,0.034 0.125,0.028 0.135,0.016C0.145,0.004 0.15,-0.019 0.15,-0.053L0.15,-0.747L0.338,-0.747L0.338,-0.056C0.338,0.028 0.321,0.09 0.287,0.129C0.253,0.168 0.195,0.188 0.112,0.188C0.079,0.188 0.043,0.185 0.002,0.179L0.002,0.029Z" style="fill:white;fill-rule:nonzero;"/>
                    </g>
                    <g transform="matrix(38.4277,0,0,38.4277,1943.77,1313.36)">
                        <path d="M0.259,0.008C0.158,0.008 0.078,-0.012 0.019,-0.053L0.065,-0.176C0.092,-0.157 0.123,-0.143 0.158,-0.133C0.193,-0.122 0.227,-0.117 0.26,-0.117C0.281,-0.117 0.297,-0.12 0.308,-0.126C0.319,-0.132 0.325,-0.14 0.325,-0.151C0.325,-0.16 0.321,-0.168 0.313,-0.174C0.304,-0.179 0.288,-0.184 0.265,-0.189L0.183,-0.208C0.131,-0.219 0.093,-0.236 0.071,-0.259C0.048,-0.282 0.036,-0.313 0.036,-0.354C0.036,-0.387 0.046,-0.416 0.065,-0.441C0.084,-0.466 0.111,-0.486 0.146,-0.501C0.18,-0.515 0.219,-0.522 0.264,-0.522C0.301,-0.522 0.337,-0.517 0.372,-0.506C0.407,-0.495 0.44,-0.48 0.471,-0.461L0.423,-0.341C0.396,-0.358 0.369,-0.372 0.341,-0.381C0.313,-0.39 0.287,-0.395 0.262,-0.395C0.242,-0.395 0.226,-0.392 0.215,-0.386C0.204,-0.379 0.198,-0.37 0.198,-0.358C0.198,-0.351 0.201,-0.345 0.208,-0.341C0.215,-0.336 0.227,-0.332 0.246,-0.327L0.331,-0.308C0.385,-0.295 0.424,-0.277 0.448,-0.253C0.471,-0.228 0.483,-0.195 0.483,-0.153C0.483,-0.103 0.463,-0.064 0.424,-0.035C0.384,-0.006 0.329,0.008 0.259,0.008Z" style="fill:white;fill-rule:nonzero;"/>
                    </g>
                    <g transform="matrix(38.4277,0,0,38.4277,1963.63,1313.36)">
                        <path d="M0.523,-0.236L0.204,-0.236C0.207,-0.197 0.219,-0.168 0.238,-0.151C0.257,-0.134 0.286,-0.125 0.323,-0.125C0.348,-0.125 0.374,-0.129 0.399,-0.138C0.424,-0.146 0.447,-0.157 0.468,-0.172L0.514,-0.052C0.489,-0.033 0.458,-0.019 0.422,-0.008C0.386,0.003 0.35,0.008 0.314,0.008C0.256,0.008 0.206,-0.003 0.163,-0.024C0.12,-0.045 0.088,-0.076 0.065,-0.116C0.042,-0.155 0.031,-0.202 0.031,-0.256C0.031,-0.307 0.042,-0.353 0.064,-0.394C0.085,-0.434 0.115,-0.465 0.154,-0.488C0.192,-0.511 0.236,-0.522 0.285,-0.522C0.333,-0.522 0.375,-0.511 0.411,-0.49C0.447,-0.469 0.475,-0.438 0.494,-0.399C0.513,-0.359 0.523,-0.313 0.523,-0.26L0.523,-0.236ZM0.29,-0.398C0.245,-0.398 0.217,-0.372 0.206,-0.32L0.368,-0.32C0.361,-0.372 0.335,-0.398 0.29,-0.398Z" style="fill:white;fill-rule:nonzero;"/>
                    </g>
                    <g transform="matrix(38.4277,0,0,38.4277,1985.27,1313.36)">
                        <path d="M0.375,-0.52C0.4,-0.52 0.419,-0.516 0.432,-0.509L0.432,-0.344C0.403,-0.357 0.376,-0.364 0.349,-0.364C0.273,-0.364 0.235,-0.328 0.235,-0.255L0.235,0L0.054,0L0.054,-0.362C0.054,-0.417 0.051,-0.465 0.046,-0.508L0.216,-0.508L0.227,-0.423C0.239,-0.454 0.258,-0.478 0.285,-0.495C0.312,-0.512 0.342,-0.52 0.375,-0.52Z" style="fill:white;fill-rule:nonzero;"/>
                    </g>
                    <g transform="matrix(38.4277,0,0,38.4277,2004.09,1313.36)">
                        <path d="M0.401,-0.507L0.579,-0.507L0.353,0L0.204,0L-0.019,-0.507L0.169,-0.507L0.283,-0.215L0.401,-0.507Z" style="fill:white;fill-rule:nonzero;"/>
                    </g>
                    <g transform="matrix(38.4277,0,0,38.4277,2025.96,1313.36)">
                        <path d="M0.054,0L0.054,-0.508L0.235,-0.508L0.235,0L0.054,0ZM0.049,-0.757L0.238,-0.757L0.238,-0.594L0.049,-0.594L0.049,-0.757Z" style="fill:white;fill-rule:nonzero;"/>
                    </g>
                    <g transform="matrix(38.4277,0,0,38.4277,2037.45,1313.36)">
                        <path d="M0.306,0.008C0.22,0.008 0.153,-0.015 0.104,-0.062C0.055,-0.109 0.031,-0.172 0.031,-0.253C0.031,-0.306 0.043,-0.353 0.067,-0.394C0.09,-0.435 0.123,-0.466 0.166,-0.489C0.209,-0.511 0.258,-0.522 0.314,-0.522C0.351,-0.522 0.388,-0.517 0.424,-0.506C0.46,-0.495 0.489,-0.48 0.51,-0.461L0.464,-0.336C0.446,-0.351 0.425,-0.362 0.401,-0.371C0.377,-0.38 0.354,-0.384 0.332,-0.384C0.295,-0.384 0.266,-0.373 0.246,-0.352C0.226,-0.331 0.216,-0.299 0.216,-0.257C0.216,-0.214 0.226,-0.182 0.246,-0.161C0.266,-0.139 0.295,-0.128 0.333,-0.128C0.355,-0.128 0.378,-0.132 0.402,-0.141C0.425,-0.15 0.446,-0.161 0.464,-0.176L0.51,-0.053C0.488,-0.034 0.459,-0.019 0.423,-0.008C0.386,0.003 0.347,0.008 0.306,0.008Z" style="fill:white;fill-rule:nonzero;"/>
                    </g>
                    <g transform="matrix(38.4277,0,0,38.4277,2057.62,1313.36)">
                        <path d="M0.523,-0.236L0.204,-0.236C0.207,-0.197 0.219,-0.168 0.238,-0.151C0.257,-0.134 0.286,-0.125 0.323,-0.125C0.348,-0.125 0.374,-0.129 0.399,-0.138C0.424,-0.146 0.447,-0.157 0.468,-0.172L0.514,-0.052C0.489,-0.033 0.458,-0.019 0.422,-0.008C0.386,0.003 0.35,0.008 0.314,0.008C0.256,0.008 0.206,-0.003 0.163,-0.024C0.12,-0.045 0.088,-0.076 0.065,-0.116C0.042,-0.155 0.031,-0.202 0.031,-0.256C0.031,-0.307 0.042,-0.353 0.064,-0.394C0.085,-0.434 0.115,-0.465 0.154,-0.488C0.192,-0.511 0.236,-0.522 0.285,-0.522C0.333,-0.522 0.375,-0.511 0.411,-0.49C0.447,-0.469 0.475,-0.438 0.494,-0.399C0.513,-0.359 0.523,-0.313 0.523,-0.26L0.523,-0.236ZM0.29,-0.398C0.245,-0.398 0.217,-0.372 0.206,-0.32L0.368,-0.32C0.361,-0.372 0.335,-0.398 0.29,-0.398Z" style="fill:white;fill-rule:nonzero;"/>
                    </g>
                    <g transform="matrix(38.4277,0,0,38.4277,2079.26,1313.36)">
                        <path d="M0.259,0.008C0.158,0.008 0.078,-0.012 0.019,-0.053L0.065,-0.176C0.092,-0.157 0.123,-0.143 0.158,-0.133C0.193,-0.122 0.227,-0.117 0.26,-0.117C0.281,-0.117 0.297,-0.12 0.308,-0.126C0.319,-0.132 0.325,-0.14 0.325,-0.151C0.325,-0.16 0.321,-0.168 0.313,-0.174C0.304,-0.179 0.288,-0.184 0.265,-0.189L0.183,-0.208C0.131,-0.219 0.093,-0.236 0.071,-0.259C0.048,-0.282 0.036,-0.313 0.036,-0.354C0.036,-0.387 0.046,-0.416 0.065,-0.441C0.084,-0.466 0.111,-0.486 0.146,-0.501C0.18,-0.515 0.219,-0.522 0.264,-0.522C0.301,-0.522 0.337,-0.517 0.372,-0.506C0.407,-0.495 0.44,-0.48 0.471,-0.461L0.423,-0.341C0.396,-0.358 0.369,-0.372 0.341,-0.381C0.313,-0.39 0.287,-0.395 0.262,-0.395C0.242,-0.395 0.226,-0.392 0.215,-0.386C0.204,-0.379 0.198,-0.37 0.198,-0.358C0.198,-0.351 0.201,-0.345 0.208,-0.341C0.215,-0.336 0.227,-0.332 0.246,-0.327L0.331,-0.308C0.385,-0.295 0.424,-0.277 0.448,-0.253C0.471,-0.228 0.483,-0.195 0.483,-0.153C0.483,-0.103 0.463,-0.064 0.424,-0.035C0.384,-0.006 0.329,0.008 0.259,0.008Z" style="fill:white;fill-rule:nonzero;"/>
                    </g>
                </g>
            </g>
        </g>
    </g>
</svg>
