<?xml version="1.0" encoding="utf-8"?>
<!-- Generator: Adobe Illustrator 25.0.1, SVG Export Plug-In . SVG Version: 6.00 Build 0)  -->
<svg version="1.0" id="Layer_1" xmlns="http://www.w3.org/2000/svg" xmlns:xlink="http://www.w3.org/1999/xlink" x="0px" y="0px"
	 viewBox="0 0 1386.7 408.6" style="enable-background:new 0 0 1386.7 408.6;" xml:space="preserve">
<style type="text/css">
	.st0{fill:#FFFFFF;}
</style>
<g>
	<path d="M296.2,87.9c63.5,0,115,51.5,115,115c0,63.5-51.5,115-115,115s-115-51.5-115-115C181.2,139.4,232.7,87.9,296.2,87.9"/>
	<path class="st0" d="M264.1,262.7h-15c-4,0-7.2-3.2-7.2-7.2V149.1c0-3.4,2.8-6.2,6.2-6.2H265c3.4,0,6.2,2.8,6.2,6.2v106.4
		C271.2,259.5,268,262.7,264.1,262.7"/>
	<path class="st0" d="M343.3,262.7h-15c-4,0-7.2-3.2-7.2-7.2V149.1c0-3.4,2.8-6.2,6.2-6.2h16.8c3.4,0,6.2,2.8,6.2,6.2v106.4
		C350.4,259.5,347.2,262.7,343.3,262.7"/>
	<path class="st0" d="M298.3,214.7c-1.3,0.9-3,0.9-4.3,0c-4-2.9-12.5-10.3-12.5-12.9v-52.6c0-3.4,2.8-6.2,6.2-6.2h16.8
		c3.4,0,6.2,2.8,6.2,6.2v52.6C310.8,204.4,302.4,211.7,298.3,214.7"/>
	<polygon points="552.4,184.6 530.9,237.4 525.7,237.4 504.4,184.6 504.4,237.4 492.1,237.4 492.1,167.6 509.4,167.6 528.3,214.6 
		547.3,167.6 564.6,167.6 564.6,237.4 552.4,237.4 552.4,184.6 	"/>
	<path d="M626,166.5c20.9,0,35.6,15.3,35.6,36.1S647,238.6,626,238.6c-20.9,0-35.6-15.3-35.6-36.1S605.1,166.5,626,166.5 M626,177.3
		c-14.1,0-23.1,10.8-23.1,25.2c0,14.3,9,25.2,23.1,25.2c14,0,23.1-10.9,23.1-25.2C649.1,188.1,640.1,177.3,626,177.3"/>
	<polygon points="701.6,178.4 680.5,178.4 680.5,167.6 735,167.6 735,178.4 713.9,178.4 713.9,237.4 701.6,237.4 	"/>
	<rect x="759.4" y="167.6" width="12.2" height="69.7"/>
	<path d="M833.1,166.5c20.9,0,35.6,15.3,35.6,36.1s-14.7,36.1-35.6,36.1c-20.9,0-35.6-15.3-35.6-36.1S812.2,166.5,833.1,166.5
		 M833.1,177.3c-14.1,0-23.1,10.8-23.1,25.2c0,14.3,9,25.2,23.1,25.2c14,0,23.1-10.9,23.1-25.2C856.2,188.1,847.1,177.3,833.1,177.3
		"/>
	<polygon points="906.9,186.5 906.9,237.4 894.7,237.4 894.7,167.6 907.2,167.6 942.9,217.1 942.9,167.6 955.1,167.6 955.1,237.4 
		943.3,237.4 	"/>
	<polygon points="976.7,167.6 990.6,167.6 1011.8,224.1 1032.9,167.6 1046.8,167.6 1019.4,237.4 1004.1,237.4 	"/>
	<polygon points="1068.5,167.6 1116.3,167.6 1116.3,178.4 1080.7,178.4 1080.7,196.5 1115.5,196.5 1115.5,207.3 1080.7,207.3 
		1080.7,237.4 1068.5,237.4 	"/>
	<polygon points="1168.4,210.1 1148.9,237.3 1134.3,237.3 1160.4,201.6 1135.8,167.6 1150.5,167.6 1168.4,193.2 1186.3,167.6 
		1201,167.6 1176.6,201.5 1202.6,237.4 1188,237.4 	"/>
</g>
</svg>
