<svg xmlns="http://www.w3.org/2000/svg" fill="none" viewBox="95 0 1910.7 1074.8"><path fill="#8017e1" d="M1526 325h54v330h-54V325zM761 550l-1 17H598c7 26 28 44 59 44 19 0 40-7 52-23l38 30c-19 27-53 43-89 43-64 0-113-48-113-110 0-60 42-112 110-112 62 0 106 51 106 111zm-55-23c-3-22-25-38-52-38-25 0-46 15-54 38h106zm451-25c0-5 3-13 21-13 12 0 30 3 48 16l29-39c-24-23-58-27-77-27-47 0-75 29-75 68 0 76 108 57 108 88 0 8-7 16-26 16-16 0-39-5-59-22l-29 42c19 15 45 30 84 30 54 0 82-29 82-68 0-75-106-61-106-91zm343 48-2 17h-162c6 26 27 44 59 44 19 0 40-7 53-23l37 30c-19 27-53 43-89 43-64 0-113-48-113-110 0-60 42-112 109-112 63 0 108 51 108 111zm-56-23c-3-22-25-38-52-38-26 0-46 15-54 38h106zm-400-189c-20 0-35 15-35 35 0 19 15 35 35 35s34-16 34-35c0-20-14-35-34-35zM894 608c-32 0-59-26-59-58a59 59 0 0 1 107-34l47-27c-20-30-55-50-95-50a111 111 0 1 0 0 222c40 0 76-21 96-52l-47-28a58 58 0 0 1-49 27zm122 47h55V443h-55v212zM459 465v-22h-55v212h55V550c0-38 27-59 57-59 13 0 19 1 25 3v-55h-17c-24 0-47 6-65 26zm1315-22-54 147-53-147h-60l88 218-39 107h54l118-325h-54zM378 550a111 111 0 0 1-222 10v208h-55V443h55v96a111 111 0 0 1 222 11zm-55 0a56 56 0 1 0-112 0 56 56 0 0 0 112 0z"/></svg>