<?xml version="1.0" encoding="utf-8"?>
<!-- Generator: Adobe Illustrator 24.0.2, SVG Export Plug-In . SVG Version: 6.00 Build 0)  -->
<svg version="1.1" id="Layer_1" xmlns="http://www.w3.org/2000/svg" xmlns:xlink="http://www.w3.org/1999/xlink" x="0px" y="0px"
	 viewBox="0 0 566.93 566.93" style="enable-background:new 0 0 566.93 566.93;" xml:space="preserve">
<style type="text/css">
	.st0{fill:#252525;}
</style>
<g>
	<g>
		<path class="st0" d="M111.9,330.36c-1.23,0.05-2.46,0.11-3.69,0.17c0,7.22,0,14.44-0.01,21.67c-4.46,0.32-8.92,0.64-13.38,0.99
			c0-19.92,0-39.85,0-59.77c5.82-0.01,11.64-0.03,17.45-0.04c14.05,0,21.14,5.59,21.13,17.74c-0.01,7.4-2.98,11.84-9.28,15.9
			c4.17,7.88,8.34,15.65,12.51,23.33c-4.97,0.29-9.94,0.61-14.91,0.93C118.46,344.38,115.18,337.41,111.9,330.36z M108.21,319.87
			c1.5-0.05,2.99-0.1,4.49-0.15c4.56-0.15,6.95-2.73,6.95-8.32c0-5.01-2.61-7.23-7.67-7.16c-1.26,0.02-2.51,0.04-3.77,0.06
			C108.22,309.49,108.21,314.68,108.21,319.87z"/>
		<path class="st0" d="M188.23,320.49c-0.02,17.71-8.5,29-23.13,29.76c-14.63,0.78-23.01-9.71-23-28.62
			c0.01-18.5,8.42-29.84,23.05-29.79C179.79,291.88,188.25,302.39,188.23,320.49z M156.01,321.24c-0.01,13.54,3.02,18.64,9.1,18.39
			c6.3-0.26,9.13-5.52,9.14-18.84c0.01-13.31-2.88-18.37-9.11-18.32C158.99,302.51,156.02,307.7,156.01,321.24z"/>
		<path class="st0" d="M236.35,297.88c-2.17,2.68-4.35,5.38-6.52,8.07c-2.54-2.36-5.21-3.74-8.69-3.72
			c-6.01,0.02-10.07,5.47-10.08,17.78c-0.01,12.17,4.04,17.48,10.34,17.34c3.77-0.08,6.59-2.21,9.57-4.64
			c1.98,2.65,3.96,5.3,5.94,7.95c-3.55,3.81-9.21,7.3-16.24,7.49c-14.2,0.4-23.54-9.22-23.52-27.91
			c0.02-18.14,9.73-28.44,23.2-28.41C227.24,291.83,232.08,294.13,236.35,297.88z"/>
		<path class="st0" d="M259.01,346.09c-4.33,0.04-8.67,0.1-13,0.17c0.01-17.68,0.02-35.37,0.03-53.05c4.33,0,8.66,0,13,0
			C259.02,310.83,259.02,328.46,259.01,346.09z M272.8,316.74c5.32,9.74,10.63,19.47,15.96,29.22c-4.97-0.01-9.94,0-14.91,0.02
			c-4.8-9.35-9.6-18.69-14.4-28.05c4.83-8.27,9.66-16.51,14.48-24.73c4.52,0,9.04,0,13.56,0
			C282.59,301.04,277.69,308.88,272.8,316.74z"/>
		<path class="st0" d="M331.22,298.68c-1.94,2.52-3.88,5.04-5.82,7.55c-3.38-2.95-6.75-4.42-10.61-4.43c-3.79-0.01-5.9,1.6-5.9,4.52
			c0,3.08,1.83,4.15,9.14,6.81c9.63,3.36,14.48,7.98,14.48,17.72c0.01,10.14-7.44,17.08-19.95,16.92
			c-8.93-0.11-15.05-3.66-19.06-7.9c2.16-2.6,4.31-5.2,6.47-7.8c3.52,3.32,7.38,5.34,12.09,5.38c4.5,0.04,6.96-2.24,6.96-5.7
			c0-3.54-1.69-5.11-8.44-7.38c-11.39-3.99-15.04-9.11-15.04-16.94c0-9.74,7.79-15.87,18.26-15.87
			C321.38,291.57,326.86,294.11,331.22,298.68z"/>
		<path class="st0" d="M386.32,320.62c0.02,17.87-8.44,28.52-23.08,28c-14.64-0.5-23.05-11.03-23.06-28.76
			c-0.01-17.34,8.38-28.01,23.01-28.03C377.83,291.8,386.31,302.36,386.32,320.62z M354.09,320.05c0.01,12.98,3.06,18.08,9.14,18.24
			c6.3,0.18,9.12-4.81,9.11-17.95c-0.01-13.13-2.91-18.15-9.14-18.18C357.05,302.13,354.08,307.07,354.09,320.05z"/>
		<path class="st0" d="M426.97,303.97c-5.85-0.06-11.71-0.11-17.56-0.16c0,4.47,0.01,8.94,0.01,13.42
			c4.73,0.11,9.46,0.22,14.19,0.34c0,3.56,0.01,7.11,0.01,10.67c-4.73-0.17-9.46-0.33-14.19-0.48c0.01,7.12,0.01,14.25,0.02,21.37
			c-4.46-0.23-8.93-0.44-13.4-0.64c-0.02-18.41-0.04-36.81-0.05-55.22c10.31,0.01,20.62,0.03,30.92,0.05
			C426.94,296.87,426.96,300.42,426.97,303.97z"/>
		<path class="st0" d="M473.24,305.53c-4.4-0.08-8.8-0.15-13.2-0.22c0,15.93,0.01,31.87,0.01,47.8c-4.46-0.32-8.92-0.63-13.38-0.93
			c-0.01-15.69-0.02-31.39-0.03-47.08c-4.2-0.06-8.4-0.12-12.6-0.18c0-3.87-0.01-7.73-0.01-11.6c13.08,0.02,26.17,0.05,39.25,0.08
			C473.27,297.45,473.25,301.49,473.24,305.53z"/>
	</g>
	<path class="st0" d="M389.82,192.34l-26.39,25.67l-79.98-77.38l-79.69,77.63l-26.65-25.92l-80.68,78.47H470.5L389.82,192.34z
		 M183.35,231.11l-6.45,5.41l-6.35-5.38l-14.51,2.34l20.9-20.5l21.63,20.53L183.35,231.11z M298.27,201.84l-15.16,16.58
		l-14.92-16.51l-34.11,9.36l49.12-48.2l50.87,48.27L298.27,201.84z M389.84,236.72l-6.35-5.38l-14.51,2.34l20.89-20.5l21.64,20.53
		l-15.23-2.4L389.84,236.72z"/>
	<path class="st0" d="M474.28,379.39c-126.67-17.13-254.95-17.19-381.63-0.17v18.91c126.67-17.25,254.97-17.19,381.63,0.17V379.39z"
		/>
</g>
</svg>
